<svg width="500" height="500" version="1.1" xmlns="http://www.w3.org/2000/svg" desc="Created with imagetracer.js version 1.2.6" ><path fill="rgb(18,39,57)" stroke="rgb(18,39,57)" stroke-width="1" opacity="1" d="M 179.5 127 Q 191.3 125.7 198.5 129 L 208.5 137 Q 213.4 130.9 221.5 128 Q 228.2 125.7 238.5 127 Q 248.4 129.6 254.5 136 Q 260.4 129.4 270.5 127 L 283.5 127 Q 293.7 129.8 300.5 136 Q 305.7 129.2 315.5 127 L 328.5 127 Q 340.8 129.7 347 138.5 L 353 150.5 L 353 164.5 Q 350.3 174.8 343.5 181 Q 335.5 189 319.5 189 Q 306.5 187 299.5 179 Q 292.2 189.2 274.5 189 L 265.5 187 L 254.5 179 L 240.5 188 L 229.5 189 Q 228 186.5 222.5 188 Q 214.2 185.3 209.5 179 L 207.5 179 Q 202.8 185.3 194.5 188 L 182.5 189 L 171.5 186 L 161 177.5 L 155 165.5 L 154 154.5 Q 156.7 139.2 167.5 132 L 179.5 127 Z M 185 128 Q 183 131 178 129 L 167 135 Q 158 141 156 154 L 156 162 L 161 175 L 172 184 L 181 187 Q 196 188 204 181 L 209 175 L 210 178 L 217 183 L 229 187 Q 247 187 255 176 Q 260 185 273 187 L 286 186 Q 294 184 298 178 L 292 164 L 292 152 L 298 138 L 288 130 L 278 128 L 267 130 Q 259 133 255 139 L 245 131 L 233 128 Q 216 129 209 140 Q 202 129 185 128 Z M 323 128 L 313 130 L 301 137 L 305 145 L 308 158 L 306 169 L 301 178 Q 307 185 319 187 Q 333 188 341 181 Q 350 174 352 161 L 351 151 L 347 142 L 339 133 L 330 129 Q 324 131 323 128 Z M 300 140 L 295 148 L 293 156 L 294 166 L 297 173 L 301 175 L 306 162 Q 307 147 300 140 Z " /><path fill="rgb(18,39,57)" stroke="rgb(18,39,57)" stroke-width="1" opacity="1" d="M 185.5 143 L 186 148.5 L 185 149.5 L 185 157.5 L 182.5 170 L 182 162.5 L 183 161.5 L 184 145.5 L 185.5 143 Z " /><path fill="rgb(18,39,57)" stroke="rgb(18,39,57)" stroke-width="1" opacity="1" d="M 232.5 143 L 233 150.5 L 232 151.5 L 231 168.5 L 229.5 171 L 229 165.5 L 230 164.5 L 231 147.5 L 232.5 143 Z " /><path fill="rgb(18,39,57)" stroke="rgb(18,39,57)" stroke-width="1" opacity="1" d="M 324.5 144 Q 325.5 151.5 330.5 155 L 337 157.5 L 331.5 160 L 327 164.5 L 324.5 171 L 318.5 161 L 311 157.5 Q 319.1 156.6 322 150.5 L 324.5 144 Z " /><path fill="rgb(18,39,57)" stroke="rgb(18,39,57)" stroke-width="1" opacity="1" d="M 192.5 149 L 195 150 Q 194.2 155.5 197 158.5 L 193.5 167 L 192 166.5 L 195 158.5 L 192.5 149 Z " /><path fill="rgb(18,39,57)" stroke="rgb(18,39,57)" stroke-width="1" opacity="1" d="M 266.5 149 L 269 150.5 L 273 156.5 L 265.5 163 L 271 156.5 L 266.5 149 Z " /><path fill="rgb(18,39,57)" stroke="rgb(18,39,57)" stroke-width="1" opacity="1" d="M 174.5 150 L 176 150.5 L 173 158.5 L 176 167.5 L 174.5 168 L 171 158.5 L 174.5 150 Z " /><path fill="rgb(18,39,57)" stroke="rgb(18,39,57)" stroke-width="1" opacity="1" d="M 224.5 151 L 225 152.5 L 220 158.5 L 225 164.5 L 223.5 165 L 218 159.5 L 218 157.5 L 224.5 151 Z " /><path fill="rgb(18,39,57)" stroke="rgb(18,39,57)" stroke-width="1" opacity="1" d="M 238.5 151 L 245 158.5 L 237 165 L 238.5 162 L 243 158.5 L 238 152.5 L 238.5 151 Z " /><path fill="rgb(18,39,57)" stroke="rgb(18,39,57)" stroke-width="1" opacity="1" d="M 275 163 L 287.5 163 L 288 165 L 275.5 165 L 275 163 Z " /><path fill="rgb(42,77,105)" stroke="rgb(42,77,105)" stroke-width="1" opacity="1" d="M 0 0 L 500 0 L 500 500 L 0 500 L 0 0 Z M 258 44 L 257 45 L 247 45 L 225 49 L 196 59 Q 166 72 145 92 Q 122 113 106 141 Q 97 156 91 176 L 84 209 L 84 251 L 91 285 Q 104 323 127 351 Q 148 375 177 392 L 213 408 L 227 412 L 243 415 L 250 415 L 251 416 L 289 416 L 290 415 L 313 412 L 333 406 Q 372 391 400 364 Q 425 340 440 307 L 448 286 L 452 271 L 454 254 L 455 253 L 455 243 L 456 242 L 456 222 L 455 221 L 454 202 L 445 167 Q 432 132 409 107 Q 382 76 342 58 L 319 50 L 300 46 L 284 45 L 283 44 L 258 44 Z " /><path fill="rgb(42,77,105)" stroke="rgb(42,77,105)" stroke-width="1" opacity="1" d="M 263.5 47 L 289.5 48 L 290.5 49 L 303.5 50 L 323.5 55 L 344.5 63 Q 383.1 80.9 409 111.5 Q 429 134.5 441 165.5 L 449 192.5 L 451 211.5 L 452 212.5 L 453 234.5 L 452 235.5 L 452 249.5 L 451 250.5 L 449 268.5 Q 444 291 435 309.5 Q 418.6 342.6 392.5 366 Q 367.9 388.9 333.5 402 L 314.5 408 L 293.5 412 L 284.5 412 L 283.5 413 L 255.5 413 L 254.5 412 L 245.5 412 L 224.5 408 L 193.5 397 Q 158.5 380.5 134 353.5 Q 107.2 324.8 94 282.5 L 89 261.5 L 88 246.5 L 87 245.5 L 87 211.5 L 93 180.5 Q 98.9 160.4 108 143.5 Q 124.4 113.4 149.5 92 Q 172.6 71.1 204.5 59 L 231.5 51 L 241.5 49 L 248.5 49 L 249.5 48 L 262.5 48 L 263.5 47 Z M 180 127 L 168 132 Q 157 139 154 155 L 155 166 L 161 178 L 172 186 L 183 189 L 195 188 Q 203 185 208 179 L 210 179 Q 214 185 223 188 Q 228 187 230 189 L 241 188 L 255 179 L 266 187 L 275 189 Q 292 189 300 179 Q 306 187 320 189 Q 336 189 344 181 Q 350 175 353 165 L 353 151 L 347 139 Q 341 130 329 127 L 316 127 Q 306 129 301 136 Q 294 130 284 127 L 271 127 Q 260 129 255 136 Q 248 130 239 127 Q 228 126 222 128 Q 213 131 209 137 L 199 129 Q 191 126 180 127 Z M 136 208 L 128 212 L 121 223 Q 119 235 125 241 Q 129 246 137 247 Q 150 248 156 242 L 157 240 L 151 235 L 144 239 L 136 238 L 130 232 Q 129 225 131 222 L 138 216 Q 147 215 151 220 L 156 217 L 157 215 L 147 208 L 136 208 Z M 175 208 L 168 211 Q 162 215 160 223 Q 159 234 163 240 Q 167 245 175 247 Q 186 249 192 244 Q 198 240 200 232 Q 201 221 197 217 Q 192 206 175 208 Z M 287 208 L 280 211 Q 274 215 272 223 Q 271 234 275 240 Q 279 245 287 247 Q 302 248 308 240 L 302 235 L 295 239 Q 288 240 285 237 L 281 232 Q 280 223 283 220 L 289 216 Q 298 215 301 220 L 306 217 Q 308 218 307 215 Q 302 206 287 208 Z M 363 208 L 345 244 L 346 246 L 354 246 L 355 243 L 357 241 L 370 241 L 371 244 L 372 246 L 381 246 L 364 210 Q 365 207 363 208 Z M 205 209 L 205 246 L 224 246 L 230 244 Q 236 240 238 231 L 238 225 L 235 217 L 228 210 L 224 209 L 205 209 Z M 243 209 L 243 246 L 267 246 Q 268 246 267 240 L 266 238 L 252 238 L 253 234 L 265 234 L 265 228 L 264 226 L 252 226 L 252 216 L 267 216 L 267 210 L 267 209 L 243 209 Z M 314 209 L 312 211 L 312 245 L 314 246 L 321 246 L 321 234 L 327 234 L 332 245 L 334 246 L 342 246 L 336 234 L 341 226 Q 343 218 340 215 L 333 209 L 314 209 Z M 385 209 L 385 246 L 393 246 L 394 245 L 394 234 L 406 234 Q 408 233 407 228 L 406 226 L 394 226 L 394 216 L 409 216 L 409 210 L 409 209 L 385 209 Z M 411 209 L 411 216 L 419 216 L 419 245 L 421 246 L 428 246 L 428 246 L 428 218 L 430 216 L 437 216 L 437 210 L 437 209 L 411 209 Z M 143 293 L 140 294 L 136 299 L 137 306 L 143 309 L 148 307 Q 150 308 149 305 L 142 306 L 138 302 L 139 297 L 142 296 L 147 297 Q 150 298 149 295 L 143 293 Z M 156 293 L 151 295 L 149 300 L 151 307 L 156 309 L 161 308 L 165 302 L 164 298 Q 162 293 156 293 Z M 207 293 L 203 295 L 200 299 L 201 306 L 207 309 L 212 307 Q 214 308 213 305 L 210 306 Q 204 307 203 304 Q 202 297 206 296 L 211 297 Q 214 298 213 296 L 207 293 Z M 242 293 L 235 307 L 229 306 L 229 304 L 234 304 L 234 303 Q 233 300 229 301 L 229 296 L 234 296 L 235 294 L 226 294 L 226 308 L 238 308 L 238 306 L 245 306 Q 244 309 248 308 L 242 293 Z M 284 293 L 282 294 L 277 301 L 278 305 L 285 309 L 289 308 L 290 305 L 288 306 L 281 305 L 280 303 L 281 297 L 284 296 L 289 297 Q 291 298 290 296 Q 289 292 284 293 Z M 298 293 L 294 295 L 291 299 L 292 306 L 298 309 L 303 308 L 306 304 L 305 297 Q 303 293 298 293 Z M 309 293 L 308 308 L 310 308 L 311 299 L 316 307 L 319 309 L 319 295 L 317 294 L 317 303 L 309 293 Z M 323 293 L 322 308 L 324 308 L 325 299 L 329 306 L 333 309 L 333 295 L 331 294 L 331 303 L 323 293 Z M 351 293 L 346 295 L 344 300 L 346 307 L 351 309 L 356 308 L 357 305 L 354 306 Q 348 307 347 304 Q 346 297 350 296 L 355 297 Q 358 298 357 296 Q 356 292 351 293 Z M 166 294 L 166 308 L 174 308 L 178 302 L 177 298 Q 175 292 166 294 Z M 179 294 L 179 308 L 187 308 L 187 306 L 182 306 L 182 304 Q 186 305 187 303 Q 186 300 182 301 Q 180 294 187 296 L 187 294 L 179 294 Z M 214 294 L 214 308 L 217 308 Q 215 303 220 304 L 221 307 L 224 308 L 222 304 L 225 300 L 224 295 Q 221 293 214 294 Z M 246 294 L 246 296 L 250 297 L 250 308 L 252 308 L 252 296 L 256 296 L 256 294 L 246 294 Z M 257 294 L 257 308 L 265 308 L 265 306 L 259 306 L 259 304 L 264 304 L 264 303 Q 263 300 259 301 L 259 296 L 265 296 L 265 294 L 257 294 Z M 335 294 L 335 308 L 344 308 Q 343 305 338 306 L 338 304 L 343 304 L 342 301 L 338 301 L 338 296 Q 343 297 344 295 L 335 294 Z M 358 294 L 358 296 L 361 297 L 361 308 L 364 308 L 364 296 L 367 296 L 367 294 L 358 294 Z M 191 305 L 189 307 L 192 308 Q 193 304 191 305 Z M 269 305 L 267 307 Q 266 309 270 308 L 269 305 Z M 370 305 L 368 307 Q 367 309 371 308 L 370 305 Z " /><path fill="rgb(42,77,105)" stroke="rgb(42,77,105)" stroke-width="1" opacity="1" d="M 184.5 128 L 187 128.5 L 184.5 129 L 184.5 128 Z " /><path fill="rgb(42,77,105)" stroke="rgb(42,77,105)" stroke-width="1" opacity="1" d="M 230.5 128 L 233 128.5 L 230.5 129 L 230.5 128 Z " /><path fill="rgb(42,77,105)" stroke="rgb(42,77,105)" stroke-width="1" opacity="1" d="M 166.5 135 L 162.5 140 L 166.5 135 Z " /><path fill="rgb(42,77,105)" stroke="rgb(42,77,105)" stroke-width="1" opacity="1" d="M 250.5 135 L 253.5 139 L 250.5 135 Z " /><path fill="rgb(42,77,105)" stroke="rgb(42,77,105)" stroke-width="1" opacity="1" d="M 231.5 144 L 232 146.5 L 231 146.5 L 231.5 144 Z " /><path fill="rgb(42,77,105)" stroke="rgb(42,77,105)" stroke-width="1" opacity="1" d="M 185.5 149 L 186 151.5 L 185 151.5 L 185.5 149 Z " /><path fill="rgb(42,77,105)" stroke="rgb(42,77,105)" stroke-width="1" opacity="1" d="M 195.5 151 L 196 154.5 L 195 154.5 L 195.5 151 Z " /><path fill="rgb(42,77,105)" stroke="rgb(42,77,105)" stroke-width="1" opacity="1" d="M 232.5 151 L 233 153.5 L 232 153.5 L 232.5 151 Z " /><path fill="rgb(42,77,105)" stroke="rgb(42,77,105)" stroke-width="1" opacity="1" d="M 269.5 151 L 272.5 155 L 269.5 151 Z " /><path fill="rgb(42,77,105)" stroke="rgb(42,77,105)" stroke-width="1" opacity="1" d="M 172.5 152 L 173 155.5 L 172 155.5 L 172.5 152 Z " /><path fill="rgb(42,77,105)" stroke="rgb(42,77,105)" stroke-width="1" opacity="1" d="M 225.5 152 L 220.5 158 L 225.5 152 Z " /><path fill="rgb(42,77,105)" stroke="rgb(42,77,105)" stroke-width="1" opacity="1" d="M 328.5 152 L 330.5 155 L 328.5 152 Z " /><path fill="rgb(42,77,105)" stroke="rgb(42,77,105)" stroke-width="1" opacity="1" d="M 156.5 153 L 157 161.5 L 156 161.5 L 156.5 153 Z " /><path fill="rgb(42,77,105)" stroke="rgb(42,77,105)" stroke-width="1" opacity="1" d="M 193.5 153 L 194 156.5 L 193 156.5 L 193.5 153 Z " /><path fill="rgb(42,77,105)" stroke="rgb(42,77,105)" stroke-width="1" opacity="1" d="M 230.5 153 L 231 155.5 L 230 155.5 L 230.5 153 Z " /><path fill="rgb(42,77,105)" stroke="rgb(42,77,105)" stroke-width="1" opacity="1" d="M 238.5 153 L 239.5 155 L 238.5 153 Z " /><path fill="rgb(42,77,105)" stroke="rgb(42,77,105)" stroke-width="1" opacity="1" d="M 305.5 153 L 306 155.5 L 305 155.5 L 305.5 153 Z " /><path fill="rgb(42,77,105)" stroke="rgb(42,77,105)" stroke-width="1" opacity="1" d="M 307.5 154 L 308 156.5 L 307 156.5 L 307.5 154 Z " /><path fill="rgb(42,77,105)" stroke="rgb(42,77,105)" stroke-width="1" opacity="1" d="M 242.5 155 L 243.5 157 L 242.5 155 Z " /><path fill="rgb(42,77,105)" stroke="rgb(42,77,105)" stroke-width="1" opacity="1" d="M 293.5 155 L 294 159.5 L 293 159.5 L 293.5 155 Z " /><path fill="rgb(42,77,105)" stroke="rgb(42,77,105)" stroke-width="1" opacity="1" d="M 270.5 156 L 265.5 162 L 270.5 156 Z " /><path fill="rgb(42,77,105)" stroke="rgb(42,77,105)" stroke-width="1" opacity="1" d="M 351.5 156 L 352 160.5 L 351 160.5 L 351.5 156 Z " /><path fill="rgb(42,77,105)" stroke="rgb(42,77,105)" stroke-width="1" opacity="1" d="M 337.5 157 L 336.5 159 L 337.5 157 Z " /><path fill="rgb(42,77,105)" stroke="rgb(42,77,105)" stroke-width="1" opacity="1" d="M 197.5 158 L 196.5 160 L 197.5 158 Z " /><path fill="rgb(42,77,105)" stroke="rgb(42,77,105)" stroke-width="1" opacity="1" d="M 242.5 158 L 239.5 162 L 242.5 158 Z " /><path fill="rgb(42,77,105)" stroke="rgb(42,77,105)" stroke-width="1" opacity="1" d="M 182.5 159 L 183 161.5 L 182 161.5 L 182.5 159 Z " /><path fill="rgb(42,77,105)" stroke="rgb(42,77,105)" stroke-width="1" opacity="1" d="M 307.5 159 L 308 161.5 L 307 161.5 L 307.5 159 Z " /><path fill="rgb(42,77,105)" stroke="rgb(42,77,105)" stroke-width="1" opacity="1" d="M 193.5 160 L 194 163.5 L 193 163.5 L 193.5 160 Z " /><path fill="rgb(42,77,105)" stroke="rgb(42,77,105)" stroke-width="1" opacity="1" d="M 231.5 160 L 232 162.5 L 231 162.5 L 231.5 160 Z " /><path fill="rgb(42,77,105)" stroke="rgb(42,77,105)" stroke-width="1" opacity="1" d="M 172.5 161 L 173 164.5 L 172 164.5 L 172.5 161 Z " /><path fill="rgb(42,77,105)" stroke="rgb(42,77,105)" stroke-width="1" opacity="1" d="M 222.5 161 L 223.5 163 L 222.5 161 Z " /><path fill="rgb(42,77,105)" stroke="rgb(42,77,105)" stroke-width="1" opacity="1" d="M 195.5 162 L 196 164.5 L 195 164.5 L 195.5 162 Z " /><path fill="rgb(42,77,105)" stroke="rgb(42,77,105)" stroke-width="1" opacity="1" d="M 229.5 162 L 230 164.5 L 229 164.5 L 229.5 162 Z " /><path fill="rgb(42,77,105)" stroke="rgb(42,77,105)" stroke-width="1" opacity="1" d="M 183.5 166 L 184 168.5 L 183 168.5 L 183.5 166 Z " /><path fill="rgb(42,77,105)" stroke="rgb(42,77,105)" stroke-width="1" opacity="1" d="M 181.5 168 L 183 170.5 L 181 169.5 L 181.5 168 Z " /><path fill="rgb(42,77,105)" stroke="rgb(42,77,105)" stroke-width="1" opacity="1" d="M 161.5 174 L 162.5 176 L 161.5 174 Z " /><path fill="rgb(42,77,105)" stroke="rgb(42,77,105)" stroke-width="1" opacity="1" d="M 207.5 176 L 203.5 181 L 207.5 176 Z " /><path fill="rgb(42,77,105)" stroke="rgb(42,77,105)" stroke-width="1" opacity="1" d="M 344.5 176 L 343.5 178 L 344.5 176 Z " /><path fill="rgb(42,77,105)" stroke="rgb(42,77,105)" stroke-width="1" opacity="1" d="M 210.5 177 L 212.5 180 L 210.5 177 Z " /><path fill="rgb(42,77,105)" stroke="rgb(42,77,105)" stroke-width="1" opacity="1" d="M 301.5 177 L 304.5 181 L 301.5 177 Z " /><path fill="rgb(42,77,105)" stroke="rgb(42,77,105)" stroke-width="1" opacity="1" d="M 251.5 178 L 249.5 181 L 251.5 178 Z " /><path fill="rgb(42,77,105)" stroke="rgb(42,77,105)" stroke-width="1" opacity="1" d="M 341.5 179 L 340.5 181 L 341.5 179 Z " /><path fill="rgb(42,77,105)" stroke="rgb(42,77,105)" stroke-width="1" opacity="1" d="M 167.5 180 L 168.5 182 L 167.5 180 Z " /><path fill="rgb(42,77,105)" stroke="rgb(42,77,105)" stroke-width="1" opacity="1" d="M 186.5 186 L 189 186.5 L 186.5 187 L 186.5 186 Z " /><path fill="rgb(42,77,105)" stroke="rgb(42,77,105)" stroke-width="1" opacity="1" d="M 228.5 186 L 231 186.5 L 228.5 187 L 228.5 186 Z " /><path fill="rgb(42,77,105)" stroke="rgb(42,77,105)" stroke-width="1" opacity="1" d="M 176.5 216 Q 187.1 214.9 190 221.5 L 191 230.5 L 185.5 238 L 176.5 239 L 171 235.5 Q 167.7 231.8 169 223.5 L 172.5 218 L 176.5 216 Z " /><path fill="rgb(42,77,105)" stroke="rgb(42,77,105)" stroke-width="1" opacity="1" d="M 214 216 L 222.5 217 L 228 221.5 L 229 230.5 L 224.5 237 L 214 238 L 214 216 Z " /><path fill="rgb(42,77,105)" stroke="rgb(42,77,105)" stroke-width="1" opacity="1" d="M 322.5 216 L 330.5 217 L 332 218.5 Q 333.3 224.8 329.5 226 L 321 226 L 321 217.5 L 322.5 216 Z " /><path fill="rgb(42,77,105)" stroke="rgb(42,77,105)" stroke-width="1" opacity="1" d="M 362.5 224 L 367 233.5 L 359 234 L 362.5 224 Z " /><path fill="rgb(42,77,105)" stroke="rgb(42,77,105)" stroke-width="1" opacity="1" d="M 154.5 296 L 161 297 L 162 302.5 L 161 305 L 154.5 306 Q 150.8 304.8 152 298.5 L 154.5 296 Z " /><path fill="rgb(42,77,105)" stroke="rgb(42,77,105)" stroke-width="1" opacity="1" d="M 169 296 L 174 297 L 175 302.5 L 174 305 L 169 306 L 169 296 Z " /><path fill="rgb(42,77,105)" stroke="rgb(42,77,105)" stroke-width="1" opacity="1" d="M 217 296 Q 220.8 295 222 297.5 Q 223.5 301.9 220.5 301 L 217 302 L 217 296 Z " /><path fill="rgb(42,77,105)" stroke="rgb(42,77,105)" stroke-width="1" opacity="1" d="M 296.5 296 Q 302 295 303 298.5 L 304 301.5 L 300.5 306 Q 295 307 294 303.5 Q 292.8 297.3 296.5 296 Z " /><path fill="rgb(42,77,105)" stroke="rgb(42,77,105)" stroke-width="1" opacity="1" d="M 241.5 298 L 243 303 Q 239.3 304.5 240 301.5 L 241.5 298 Z " /><path fill="rgb(0,246,254)" stroke="rgb(0,246,254)" stroke-width="1" opacity="1" d="M 317.5 129 Q 326.4 127.6 331.5 130 Q 339.9 133.1 345 139.5 Q 352.4 147.1 351 163.5 Q 348.1 176.1 338.5 182 Q 331.2 188.2 315.5 186 Q 306.6 183.9 302 177.5 L 308 162.5 L 308 152.5 Q 306.5 143.5 301 138.5 Q 306.5 131 317.5 129 Z M 325 144 L 321 152 Q 318 157 310 158 L 317 160 L 322 166 L 325 172 L 328 164 L 338 158 L 332 155 Q 326 152 325 144 Z " /><path fill="rgb(111,136,153)" stroke="rgb(111,136,153)" stroke-width="1" opacity="1" d="M 257.5 44 L 265 44.5 L 257.5 45 L 257.5 44 Z " /><path fill="rgb(111,136,153)" stroke="rgb(111,136,153)" stroke-width="1" opacity="1" d="M 274.5 44 L 283 44.5 L 274.5 45 L 274.5 44 Z " /><path fill="rgb(111,136,153)" stroke="rgb(111,136,153)" stroke-width="1" opacity="1" d="M 246.5 45 L 249 45.5 L 246.5 46 L 246.5 45 Z " /><path fill="rgb(111,136,153)" stroke="rgb(111,136,153)" stroke-width="1" opacity="1" d="M 258.5 47 L 263 47.5 L 258.5 48 L 258.5 47 Z " /><path fill="rgb(111,136,153)" stroke="rgb(111,136,153)" stroke-width="1" opacity="1" d="M 276.5 47 L 282 47.5 L 276.5 48 L 276.5 47 Z " /><path fill="rgb(111,136,153)" stroke="rgb(111,136,153)" stroke-width="1" opacity="1" d="M 290.5 48 L 293 48.5 L 290.5 49 L 290.5 48 Z " /><path fill="rgb(111,136,153)" stroke="rgb(111,136,153)" stroke-width="1" opacity="1" d="M 381.5 81 L 382.5 83 L 381.5 81 Z " /><path fill="rgb(111,136,153)" stroke="rgb(111,136,153)" stroke-width="1" opacity="1" d="M 161.5 82 L 160.5 84 L 161.5 82 Z " /><path fill="rgb(111,136,153)" stroke="rgb(111,136,153)" stroke-width="1" opacity="1" d="M 152.5 85 L 151.5 87 L 152.5 85 Z " /><path fill="rgb(111,136,153)" stroke="rgb(111,136,153)" stroke-width="1" opacity="1" d="M 381.5 85 L 382.5 87 L 381.5 85 Z " /><path fill="rgb(111,136,153)" stroke="rgb(111,136,153)" stroke-width="1" opacity="1" d="M 386.5 89 L 387.5 91 L 386.5 89 Z " /><path fill="rgb(111,136,153)" stroke="rgb(111,136,153)" stroke-width="1" opacity="1" d="M 151.5 90 L 150.5 92 L 151.5 90 Z " /><path fill="rgb(111,136,153)" stroke="rgb(111,136,153)" stroke-width="1" opacity="1" d="M 393.5 91 L 396.5 95 L 393.5 91 Z " /><path fill="rgb(111,136,153)" stroke="rgb(111,136,153)" stroke-width="1" opacity="1" d="M 144.5 92 L 140.5 97 L 144.5 92 Z " /><path fill="rgb(111,136,153)" stroke="rgb(111,136,153)" stroke-width="1" opacity="1" d="M 394.5 96 L 405.5 108 L 394.5 96 Z " /><path fill="rgb(111,136,153)" stroke="rgb(111,136,153)" stroke-width="1" opacity="1" d="M 142.5 98 L 134.5 107 L 142.5 98 Z " /><path fill="rgb(111,136,153)" stroke="rgb(111,136,153)" stroke-width="1" opacity="1" d="M 134.5 102 L 130.5 107 L 134.5 102 Z " /><path fill="rgb(111,136,153)" stroke="rgb(111,136,153)" stroke-width="1" opacity="1" d="M 406.5 104 L 408.5 107 L 406.5 104 Z " /><path fill="rgb(111,136,153)" stroke="rgb(111,136,153)" stroke-width="1" opacity="1" d="M 129.5 112 L 128.5 114 L 129.5 112 Z " /><path fill="rgb(111,136,153)" stroke="rgb(111,136,153)" stroke-width="1" opacity="1" d="M 409.5 112 L 410.5 114 L 409.5 112 Z " /><path fill="rgb(111,136,153)" stroke="rgb(111,136,153)" stroke-width="1" opacity="1" d="M 413.5 112 L 414.5 114 L 413.5 112 Z " /><path fill="rgb(111,136,153)" stroke="rgb(111,136,153)" stroke-width="1" opacity="1" d="M 122.5 116 L 121.5 118 L 122.5 116 Z " /><path fill="rgb(111,136,153)" stroke="rgb(111,136,153)" stroke-width="1" opacity="1" d="M 413.5 117 L 414.5 119 L 413.5 117 Z " /><path fill="rgb(111,136,153)" stroke="rgb(111,136,153)" stroke-width="1" opacity="1" d="M 417.5 117 L 418.5 119 L 417.5 117 Z " /><path fill="rgb(111,136,153)" stroke="rgb(111,136,153)" stroke-width="1" opacity="1" d="M 422.5 124 L 423.5 126 L 422.5 124 Z " /><path fill="rgb(111,136,153)" stroke="rgb(111,136,153)" stroke-width="1" opacity="1" d="M 419.5 125 L 420.5 127 L 419.5 125 Z " /><path fill="rgb(111,136,153)" stroke="rgb(111,136,153)" stroke-width="1" opacity="1" d="M 258.5 135 L 254.5 140 L 258.5 135 Z " /><path fill="rgb(111,136,153)" stroke="rgb(111,136,153)" stroke-width="1" opacity="1" d="M 295.5 135 L 297.5 138 L 295.5 135 Z " /><path fill="rgb(111,136,153)" stroke="rgb(111,136,153)" stroke-width="1" opacity="1" d="M 299.5 140 L 300.5 142 L 299.5 140 Z " /><path fill="rgb(111,136,153)" stroke="rgb(111,136,153)" stroke-width="1" opacity="1" d="M 233.5 145 L 234 147.5 L 233 147.5 L 233.5 145 Z " /><path fill="rgb(111,136,153)" stroke="rgb(111,136,153)" stroke-width="1" opacity="1" d="M 183.5 148 L 184 150.5 L 183 150.5 L 183.5 148 Z " /><path fill="rgb(111,136,153)" stroke="rgb(111,136,153)" stroke-width="1" opacity="1" d="M 176.5 150 L 175.5 152 L 176.5 150 Z " /><path fill="rgb(111,136,153)" stroke="rgb(111,136,153)" stroke-width="1" opacity="1" d="M 230.5 150 L 231 152.5 L 230 152.5 L 230.5 150 Z " /><path fill="rgb(111,136,153)" stroke="rgb(111,136,153)" stroke-width="1" opacity="1" d="M 223.5 151 L 218 157.5 L 217.5 159 L 217 157.5 L 223.5 151 Z " /><path fill="rgb(111,136,153)" stroke="rgb(111,136,153)" stroke-width="1" opacity="1" d="M 239.5 151 L 240.5 153 L 239.5 151 Z " /><path fill="rgb(111,136,153)" stroke="rgb(111,136,153)" stroke-width="1" opacity="1" d="M 185.5 152 L 186 154.5 L 185 154.5 L 185.5 152 Z " /><path fill="rgb(111,136,153)" stroke="rgb(111,136,153)" stroke-width="1" opacity="1" d="M 268.5 153 L 270.5 156 L 268.5 153 Z " /><path fill="rgb(111,136,153)" stroke="rgb(111,136,153)" stroke-width="1" opacity="1" d="M 232.5 154 L 233 156.5 L 232 156.5 L 232.5 154 Z " /><path fill="rgb(111,136,153)" stroke="rgb(111,136,153)" stroke-width="1" opacity="1" d="M 291.5 154 L 292 160.5 L 291 160.5 L 291.5 154 Z " /><path fill="rgb(111,136,153)" stroke="rgb(111,136,153)" stroke-width="1" opacity="1" d="M 273.5 155 L 274 156.5 L 266 163.5 L 273.5 155 Z " /><path fill="rgb(111,136,153)" stroke="rgb(111,136,153)" stroke-width="1" opacity="1" d="M 182.5 156 L 183 158.5 L 182 158.5 L 182.5 156 Z " /><path fill="rgb(111,136,153)" stroke="rgb(111,136,153)" stroke-width="1" opacity="1" d="M 196.5 156 L 197.5 158 L 196.5 156 Z " /><path fill="rgb(111,136,153)" stroke="rgb(111,136,153)" stroke-width="1" opacity="1" d="M 305.5 156 L 306 159.5 L 305 159.5 L 305.5 156 Z " /><path fill="rgb(111,136,153)" stroke="rgb(111,136,153)" stroke-width="1" opacity="1" d="M 170.5 157 L 171 159.5 L 170 159.5 L 170.5 157 Z " /><path fill="rgb(111,136,153)" stroke="rgb(111,136,153)" stroke-width="1" opacity="1" d="M 174.5 157 L 173.5 159 L 174.5 157 Z " /><path fill="rgb(111,136,153)" stroke="rgb(111,136,153)" stroke-width="1" opacity="1" d="M 194.5 158 L 193.5 160 L 194.5 158 Z " /><path fill="rgb(111,136,153)" stroke="rgb(111,136,153)" stroke-width="1" opacity="1" d="M 229.5 159 L 230 161.5 L 229 161.5 L 229.5 159 Z " /><path fill="rgb(111,136,153)" stroke="rgb(111,136,153)" stroke-width="1" opacity="1" d="M 244.5 159 L 239.5 165 L 244.5 159 Z " /><path fill="rgb(111,136,153)" stroke="rgb(111,136,153)" stroke-width="1" opacity="1" d="M 184.5 160 L 185 162.5 L 184 162.5 L 184.5 160 Z " /><path fill="rgb(111,136,153)" stroke="rgb(111,136,153)" stroke-width="1" opacity="1" d="M 219.5 161 L 221.5 164 L 219.5 161 Z " /><path fill="rgb(111,136,153)" stroke="rgb(111,136,153)" stroke-width="1" opacity="1" d="M 231.5 163 L 232 165.5 L 231 165.5 L 231.5 163 Z " /><path fill="rgb(111,136,153)" stroke="rgb(111,136,153)" stroke-width="1" opacity="1" d="M 236.5 164 L 237.5 166 L 236.5 164 Z " /><path fill="rgb(111,136,153)" stroke="rgb(111,136,153)" stroke-width="1" opacity="1" d="M 181.5 165 L 182 167.5 L 181 167.5 L 181.5 165 Z " /><path fill="rgb(111,136,153)" stroke="rgb(111,136,153)" stroke-width="1" opacity="1" d="M 276.5 165 L 288 165.5 L 276.5 166 L 276.5 165 Z " /><path fill="rgb(111,136,153)" stroke="rgb(111,136,153)" stroke-width="1" opacity="1" d="M 228.5 168 L 229 170.5 L 228 170.5 L 228.5 168 Z " /><path fill="rgb(111,136,153)" stroke="rgb(111,136,153)" stroke-width="1" opacity="1" d="M 254.5 175 L 255.5 177 L 254.5 175 Z " /><path fill="rgb(111,136,153)" stroke="rgb(111,136,153)" stroke-width="1" opacity="1" d="M 163.5 176 L 166.5 180 L 163.5 176 Z " /><path fill="rgb(111,136,153)" stroke="rgb(111,136,153)" stroke-width="1" opacity="1" d="M 295.5 179 L 294.5 181 L 295.5 179 Z " /><path fill="rgb(111,136,153)" stroke="rgb(111,136,153)" stroke-width="1" opacity="1" d="M 259.5 180 L 260.5 182 L 259.5 180 Z " /><path fill="rgb(111,136,153)" stroke="rgb(111,136,153)" stroke-width="1" opacity="1" d="M 182.5 186 L 186 186.5 L 182.5 187 L 182.5 186 Z " /><path fill="rgb(111,136,153)" stroke="rgb(111,136,153)" stroke-width="1" opacity="1" d="M 273.5 186 L 280 186.5 L 273.5 187 L 273.5 186 Z " /><path fill="rgb(111,136,153)" stroke="rgb(111,136,153)" stroke-width="1" opacity="1" d="M 319.5 186 L 326 186.5 L 319.5 187 L 319.5 186 Z " /><path fill="rgb(111,136,153)" stroke="rgb(111,136,153)" stroke-width="1" opacity="1" d="M 135.5 208 L 138 208.5 L 135.5 209 L 135.5 208 Z " /><path fill="rgb(111,136,153)" stroke="rgb(111,136,153)" stroke-width="1" opacity="1" d="M 143.5 208 L 147 208.5 L 143.5 209 L 143.5 208 Z " /><path fill="rgb(111,136,153)" stroke="rgb(111,136,153)" stroke-width="1" opacity="1" d="M 174.5 208 L 177 208.5 L 174.5 209 L 174.5 208 Z " /><path fill="rgb(111,136,153)" stroke="rgb(111,136,153)" stroke-width="1" opacity="1" d="M 182.5 208 L 185 208.5 L 182.5 209 L 182.5 208 Z " /><path fill="rgb(111,136,153)" stroke="rgb(111,136,153)" stroke-width="1" opacity="1" d="M 286.5 208 L 289 208.5 L 286.5 209 L 286.5 208 Z " /><path fill="rgb(111,136,153)" stroke="rgb(111,136,153)" stroke-width="1" opacity="1" d="M 294.5 208 L 297 208.5 L 294.5 209 L 294.5 208 Z " /><path fill="rgb(111,136,153)" stroke="rgb(111,136,153)" stroke-width="1" opacity="1" d="M 205.5 209 L 206 245.5 L 205 245.5 L 205.5 209 Z " /><path fill="rgb(111,136,153)" stroke="rgb(111,136,153)" stroke-width="1" opacity="1" d="M 243.5 209 L 244 245.5 L 243 245.5 L 243.5 209 Z " /><path fill="rgb(111,136,153)" stroke="rgb(111,136,153)" stroke-width="1" opacity="1" d="M 408.5 209 L 409 215.5 L 408 215.5 L 408.5 209 Z " /><path fill="rgb(111,136,153)" stroke="rgb(111,136,153)" stroke-width="1" opacity="1" d="M 151.5 210 L 152.5 212 L 151.5 210 Z " /><path fill="rgb(111,136,153)" stroke="rgb(111,136,153)" stroke-width="1" opacity="1" d="M 190.5 210 L 191.5 212 L 190.5 210 Z " /><path fill="rgb(111,136,153)" stroke="rgb(111,136,153)" stroke-width="1" opacity="1" d="M 312.5 210 L 313 244.5 L 312 244.5 L 312.5 210 Z " /><path fill="rgb(111,136,153)" stroke="rgb(111,136,153)" stroke-width="1" opacity="1" d="M 167.5 211 L 163.5 216 L 167.5 211 Z " /><path fill="rgb(111,136,153)" stroke="rgb(111,136,153)" stroke-width="1" opacity="1" d="M 229.5 211 L 230.5 213 L 229.5 211 Z " /><path fill="rgb(111,136,153)" stroke="rgb(111,136,153)" stroke-width="1" opacity="1" d="M 279.5 211 L 275.5 216 L 279.5 211 Z " /><path fill="rgb(111,136,153)" stroke="rgb(111,136,153)" stroke-width="1" opacity="1" d="M 127.5 212 L 125.5 215 L 127.5 212 Z " /><path fill="rgb(111,136,153)" stroke="rgb(111,136,153)" stroke-width="1" opacity="1" d="M 155.5 213 L 157 215.5 L 155 216.5 L 156 214.5 L 155.5 213 Z " /><path fill="rgb(111,136,153)" stroke="rgb(111,136,153)" stroke-width="1" opacity="1" d="M 218.5 216 L 222 216.5 L 218.5 217 L 218.5 216 Z " /><path fill="rgb(111,136,153)" stroke="rgb(111,136,153)" stroke-width="1" opacity="1" d="M 327.5 216 L 330 216.5 L 327.5 217 L 327.5 216 Z " /><path fill="rgb(111,136,153)" stroke="rgb(111,136,153)" stroke-width="1" opacity="1" d="M 393.5 216 L 394 226 L 405.5 226 L 407 227.5 Q 408.3 232.8 405.5 234 L 394 234 L 394 244.5 L 393 244.5 L 393 233 L 406 233 L 406 227 L 393 227 L 393.5 216 Z " /><path fill="rgb(111,136,153)" stroke="rgb(111,136,153)" stroke-width="1" opacity="1" d="M 419.5 216 L 420 244.5 L 419 244.5 L 419.5 216 Z " /><path fill="rgb(111,136,153)" stroke="rgb(111,136,153)" stroke-width="1" opacity="1" d="M 134.5 217 L 131.5 221 L 134.5 217 Z " /><path fill="rgb(111,136,153)" stroke="rgb(111,136,153)" stroke-width="1" opacity="1" d="M 147.5 217 L 148.5 219 L 147.5 217 Z " /><path fill="rgb(111,136,153)" stroke="rgb(111,136,153)" stroke-width="1" opacity="1" d="M 186.5 217 L 188.5 220 L 186.5 217 Z " /><path fill="rgb(111,136,153)" stroke="rgb(111,136,153)" stroke-width="1" opacity="1" d="M 298.5 217 L 302 219.5 L 300.5 220 L 298.5 217 Z " /><path fill="rgb(111,136,153)" stroke="rgb(111,136,153)" stroke-width="1" opacity="1" d="M 304.5 217 L 303.5 219 L 304.5 217 Z " /><path fill="rgb(111,136,153)" stroke="rgb(111,136,153)" stroke-width="1" opacity="1" d="M 225.5 218 L 227.5 221 L 225.5 218 Z " /><path fill="rgb(111,136,153)" stroke="rgb(111,136,153)" stroke-width="1" opacity="1" d="M 332.5 219 L 333 222.5 L 332 222.5 L 332.5 219 Z " /><path fill="rgb(111,136,153)" stroke="rgb(111,136,153)" stroke-width="1" opacity="1" d="M 86.5 220 L 87 231.5 L 86 231.5 L 86.5 220 Z " /><path fill="rgb(111,136,153)" stroke="rgb(111,136,153)" stroke-width="1" opacity="1" d="M 170.5 220 L 170 221.5 L 169.5 223 L 169 221.5 L 170.5 220 Z " /><path fill="rgb(111,136,153)" stroke="rgb(111,136,153)" stroke-width="1" opacity="1" d="M 282.5 220 L 282 221.5 L 281.5 223 L 281 221.5 L 282.5 220 Z " /><path fill="rgb(111,136,153)" stroke="rgb(111,136,153)" stroke-width="1" opacity="1" d="M 455.5 221 L 456 229.5 L 455 229.5 L 455.5 221 Z " /><path fill="rgb(111,136,153)" stroke="rgb(111,136,153)" stroke-width="1" opacity="1" d="M 121.5 222 L 122 225.5 L 121 225.5 L 121.5 222 Z " /><path fill="rgb(111,136,153)" stroke="rgb(111,136,153)" stroke-width="1" opacity="1" d="M 452.5 222 L 453 227.5 L 452 227.5 L 452.5 222 Z " /><path fill="rgb(111,136,153)" stroke="rgb(111,136,153)" stroke-width="1" opacity="1" d="M 199.5 223 L 200 231.5 L 199 231.5 L 199.5 223 Z " /><path fill="rgb(111,136,153)" stroke="rgb(111,136,153)" stroke-width="1" opacity="1" d="M 168.5 224 L 169 230.5 L 168 230.5 L 168.5 224 Z " /><path fill="rgb(111,136,153)" stroke="rgb(111,136,153)" stroke-width="1" opacity="1" d="M 237.5 224 L 238 230.5 L 237 230.5 L 237.5 224 Z " /><path fill="rgb(111,136,153)" stroke="rgb(111,136,153)" stroke-width="1" opacity="1" d="M 280.5 224 L 281 230.5 L 280 230.5 L 280.5 224 Z " /><path fill="rgb(111,136,153)" stroke="rgb(111,136,153)" stroke-width="1" opacity="1" d="M 331.5 224 L 330.5 226 L 331.5 224 Z " /><path fill="rgb(111,136,153)" stroke="rgb(111,136,153)" stroke-width="1" opacity="1" d="M 129.5 226 L 130 228.5 L 129 228.5 L 129.5 226 Z " /><path fill="rgb(111,136,153)" stroke="rgb(111,136,153)" stroke-width="1" opacity="1" d="M 252.5 226 L 264 226.5 L 252.5 227 L 252.5 226 Z " /><path fill="rgb(111,136,153)" stroke="rgb(111,136,153)" stroke-width="1" opacity="1" d="M 321.5 226 L 328 226.5 L 321.5 227 L 321.5 226 Z " /><path fill="rgb(111,136,153)" stroke="rgb(111,136,153)" stroke-width="1" opacity="1" d="M 121.5 229 L 122 232.5 L 121 232.5 L 121.5 229 Z " /><path fill="rgb(111,136,153)" stroke="rgb(111,136,153)" stroke-width="1" opacity="1" d="M 338.5 229 L 335.5 233 L 338.5 229 Z " /><path fill="rgb(111,136,153)" stroke="rgb(111,136,153)" stroke-width="1" opacity="1" d="M 455.5 231 L 456 241.5 L 455 241.5 L 455.5 231 Z " /><path fill="rgb(111,136,153)" stroke="rgb(111,136,153)" stroke-width="1" opacity="1" d="M 252.5 233 L 265 233.5 L 252.5 234 L 252.5 233 Z " /><path fill="rgb(111,136,153)" stroke="rgb(111,136,153)" stroke-width="1" opacity="1" d="M 321.5 233 L 327 233.5 L 321.5 234 L 321.5 233 Z " /><path fill="rgb(111,136,153)" stroke="rgb(111,136,153)" stroke-width="1" opacity="1" d="M 358.5 233 L 367 234.5 L 358 235 L 358.5 233 Z " /><path fill="rgb(111,136,153)" stroke="rgb(111,136,153)" stroke-width="1" opacity="1" d="M 131.5 234 L 134.5 238 L 131.5 234 Z " /><path fill="rgb(111,136,153)" stroke="rgb(111,136,153)" stroke-width="1" opacity="1" d="M 149.5 235 L 151 235.5 L 147.5 238 L 149.5 235 Z " /><path fill="rgb(111,136,153)" stroke="rgb(111,136,153)" stroke-width="1" opacity="1" d="M 188.5 235 L 186.5 238 L 188.5 235 Z " /><path fill="rgb(111,136,153)" stroke="rgb(111,136,153)" stroke-width="1" opacity="1" d="M 226.5 235 L 225.5 237 L 226.5 235 Z " /><path fill="rgb(111,136,153)" stroke="rgb(111,136,153)" stroke-width="1" opacity="1" d="M 300.5 235 L 302 235.5 L 299.5 237 L 300.5 235 Z " /><path fill="rgb(111,136,153)" stroke="rgb(111,136,153)" stroke-width="1" opacity="1" d="M 452.5 235 L 453 241.5 L 452 241.5 L 452.5 235 Z " /><path fill="rgb(111,136,153)" stroke="rgb(111,136,153)" stroke-width="1" opacity="1" d="M 303.5 236 L 304.5 238 L 303.5 236 Z " /><path fill="rgb(111,136,153)" stroke="rgb(111,136,153)" stroke-width="1" opacity="1" d="M 155.5 238 L 157 240.5 L 155 241.5 L 156 239.5 L 155.5 238 Z " /><path fill="rgb(111,136,153)" stroke="rgb(111,136,153)" stroke-width="1" opacity="1" d="M 214.5 238 L 221 238.5 L 214.5 239 L 214.5 238 Z " /><path fill="rgb(111,136,153)" stroke="rgb(111,136,153)" stroke-width="1" opacity="1" d="M 252.5 238 L 266 238.5 L 252.5 239 L 252.5 238 Z " /><path fill="rgb(111,136,153)" stroke="rgb(111,136,153)" stroke-width="1" opacity="1" d="M 306.5 238 L 307.5 240 L 306.5 238 Z " /><path fill="rgb(111,136,153)" stroke="rgb(111,136,153)" stroke-width="1" opacity="1" d="M 163.5 239 L 167.5 244 L 163.5 239 Z " /><path fill="rgb(111,136,153)" stroke="rgb(111,136,153)" stroke-width="1" opacity="1" d="M 275.5 239 L 279.5 244 L 275.5 239 Z " /><path fill="rgb(111,136,153)" stroke="rgb(111,136,153)" stroke-width="1" opacity="1" d="M 125.5 240 L 127.5 243 L 125.5 240 Z " /><path fill="rgb(111,136,153)" stroke="rgb(111,136,153)" stroke-width="1" opacity="1" d="M 230.5 242 L 229.5 244 L 230.5 242 Z " /><path fill="rgb(111,136,153)" stroke="rgb(111,136,153)" stroke-width="1" opacity="1" d="M 152.5 243 L 151.5 245 L 152.5 243 Z " /><path fill="rgb(111,136,153)" stroke="rgb(111,136,153)" stroke-width="1" opacity="1" d="M 354.5 243 L 355 244.5 L 353 245.5 L 354.5 243 Z " /><path fill="rgb(111,136,153)" stroke="rgb(111,136,153)" stroke-width="1" opacity="1" d="M 221.5 245 L 224 245.5 L 221.5 246 L 221.5 245 Z " /><path fill="rgb(111,136,153)" stroke="rgb(111,136,153)" stroke-width="1" opacity="1" d="M 87.5 246 L 88 249.5 L 87 249.5 L 87.5 246 Z " /><path fill="rgb(111,136,153)" stroke="rgb(111,136,153)" stroke-width="1" opacity="1" d="M 136.5 246 L 139 246.5 L 136.5 247 L 136.5 246 Z " /><path fill="rgb(111,136,153)" stroke="rgb(111,136,153)" stroke-width="1" opacity="1" d="M 143.5 246 L 146 246.5 L 143.5 247 L 143.5 246 Z " /><path fill="rgb(111,136,153)" stroke="rgb(111,136,153)" stroke-width="1" opacity="1" d="M 174.5 246 L 177 246.5 L 174.5 247 L 174.5 246 Z " /><path fill="rgb(111,136,153)" stroke="rgb(111,136,153)" stroke-width="1" opacity="1" d="M 182.5 246 L 185 246.5 L 182.5 247 L 182.5 246 Z " /><path fill="rgb(111,136,153)" stroke="rgb(111,136,153)" stroke-width="1" opacity="1" d="M 286.5 246 L 289 246.5 L 286.5 247 L 286.5 246 Z " /><path fill="rgb(111,136,153)" stroke="rgb(111,136,153)" stroke-width="1" opacity="1" d="M 294.5 246 L 297 246.5 L 294.5 247 L 294.5 246 Z " /><path fill="rgb(111,136,153)" stroke="rgb(111,136,153)" stroke-width="1" opacity="1" d="M 84.5 248 L 85 250.5 L 84 250.5 L 84.5 248 Z " /><path fill="rgb(111,136,153)" stroke="rgb(111,136,153)" stroke-width="1" opacity="1" d="M 451.5 250 L 452 252.5 L 451 252.5 L 451.5 250 Z " /><path fill="rgb(111,136,153)" stroke="rgb(111,136,153)" stroke-width="1" opacity="1" d="M 88.5 255 L 89 257.5 L 88 257.5 L 88.5 255 Z " /><path fill="rgb(111,136,153)" stroke="rgb(111,136,153)" stroke-width="1" opacity="1" d="M 85.5 256 L 86 258.5 L 85 258.5 L 85.5 256 Z " /><path fill="rgb(111,136,153)" stroke="rgb(111,136,153)" stroke-width="1" opacity="1" d="M 142.5 293 L 145 293.5 L 142.5 294 L 142.5 293 Z " /><path fill="rgb(111,136,153)" stroke="rgb(111,136,153)" stroke-width="1" opacity="1" d="M 155.5 293 L 159 293.5 L 155.5 294 L 155.5 293 Z " /><path fill="rgb(111,136,153)" stroke="rgb(111,136,153)" stroke-width="1" opacity="1" d="M 206.5 293 L 209 293.5 L 206.5 294 L 206.5 293 Z " /><path fill="rgb(111,136,153)" stroke="rgb(111,136,153)" stroke-width="1" opacity="1" d="M 241.5 293 L 240.5 295 L 241.5 293 Z " /><path fill="rgb(111,136,153)" stroke="rgb(111,136,153)" stroke-width="1" opacity="1" d="M 283.5 293 L 287 293.5 L 283.5 294 L 283.5 293 Z " /><path fill="rgb(111,136,153)" stroke="rgb(111,136,153)" stroke-width="1" opacity="1" d="M 297.5 293 L 300 293.5 L 297.5 294 L 297.5 293 Z " /><path fill="rgb(111,136,153)" stroke="rgb(111,136,153)" stroke-width="1" opacity="1" d="M 322.5 293 L 324.5 296 L 322.5 293 Z " /><path fill="rgb(111,136,153)" stroke="rgb(111,136,153)" stroke-width="1" opacity="1" d="M 350.5 293 L 354 293.5 L 350.5 294 L 350.5 293 Z " /><path fill="rgb(111,136,153)" stroke="rgb(111,136,153)" stroke-width="1" opacity="1" d="M 214.5 294 L 215 307.5 L 214 307.5 L 214.5 294 Z " /><path fill="rgb(111,136,153)" stroke="rgb(111,136,153)" stroke-width="1" opacity="1" d="M 226.5 294 L 227 307.5 L 226 307.5 L 226.5 294 Z " /><path fill="rgb(111,136,153)" stroke="rgb(111,136,153)" stroke-width="1" opacity="1" d="M 335.5 294 L 336 307.5 L 335 307.5 L 335.5 294 Z " /><path fill="rgb(111,136,153)" stroke="rgb(111,136,153)" stroke-width="1" opacity="1" d="M 202.5 295 L 201.5 297 L 202.5 295 Z " /><path fill="rgb(111,136,153)" stroke="rgb(111,136,153)" stroke-width="1" opacity="1" d="M 293.5 295 L 292.5 297 L 293.5 295 Z " /><path fill="rgb(111,136,153)" stroke="rgb(111,136,153)" stroke-width="1" opacity="1" d="M 310.5 295 L 311.5 297 L 310.5 295 Z " /><path fill="rgb(111,136,153)" stroke="rgb(111,136,153)" stroke-width="1" opacity="1" d="M 168.5 296 L 169 305.5 L 168 305.5 L 168.5 296 Z " /><path fill="rgb(111,136,153)" stroke="rgb(111,136,153)" stroke-width="1" opacity="1" d="M 181.5 296 L 182 301 Q 185.8 300 187 302.5 L 185.5 302 L 181 302 L 181.5 296 Z " /><path fill="rgb(111,136,153)" stroke="rgb(111,136,153)" stroke-width="1" opacity="1" d="M 204.5 296 L 203.5 298 L 204.5 296 Z " /><path fill="rgb(111,136,153)" stroke="rgb(111,136,153)" stroke-width="1" opacity="1" d="M 301.5 296 L 302.5 298 L 301.5 296 Z " /><path fill="rgb(111,136,153)" stroke="rgb(111,136,153)" stroke-width="1" opacity="1" d="M 363.5 296 L 364 307.5 L 363 307.5 L 363.5 296 Z " /><path fill="rgb(111,136,153)" stroke="rgb(111,136,153)" stroke-width="1" opacity="1" d="M 202.5 299 L 203 302.5 L 202 302.5 L 202.5 299 Z " /><path fill="rgb(111,136,153)" stroke="rgb(111,136,153)" stroke-width="1" opacity="1" d="M 293.5 299 L 294 302.5 L 293 302.5 L 293.5 299 Z " /><path fill="rgb(111,136,153)" stroke="rgb(111,136,153)" stroke-width="1" opacity="1" d="M 327.5 299 L 328.5 301 L 327.5 299 Z " /><path fill="rgb(111,136,153)" stroke="rgb(111,136,153)" stroke-width="1" opacity="1" d="M 314.5 300 L 315.5 302 L 314.5 300 Z " /><path fill="rgb(111,136,153)" stroke="rgb(111,136,153)" stroke-width="1" opacity="1" d="M 325.5 300 L 326.5 302 L 325.5 300 Z " /><path fill="rgb(111,136,153)" stroke="rgb(111,136,153)" stroke-width="1" opacity="1" d="M 229.5 301 L 233 301.5 L 229.5 302 L 229.5 301 Z " /><path fill="rgb(111,136,153)" stroke="rgb(111,136,153)" stroke-width="1" opacity="1" d="M 259.5 301 L 263 301.5 L 259.5 302 L 259.5 301 Z " /><path fill="rgb(111,136,153)" stroke="rgb(111,136,153)" stroke-width="1" opacity="1" d="M 312.5 301 L 313.5 303 L 312.5 301 Z " /><path fill="rgb(111,136,153)" stroke="rgb(111,136,153)" stroke-width="1" opacity="1" d="M 338.5 301 L 342 301.5 L 338.5 302 L 338.5 301 Z " /><path fill="rgb(111,136,153)" stroke="rgb(111,136,153)" stroke-width="1" opacity="1" d="M 239.5 302 L 242.5 303 L 244 302.5 L 244 304 L 239 304 L 239.5 302 Z " /><path fill="rgb(111,136,153)" stroke="rgb(111,136,153)" stroke-width="1" opacity="1" d="M 139.5 304 L 140.5 306 L 139.5 304 Z " /><path fill="rgb(111,136,153)" stroke="rgb(111,136,153)" stroke-width="1" opacity="1" d="M 302.5 304 L 301.5 306 L 302.5 304 Z " /><path fill="rgb(111,136,153)" stroke="rgb(111,136,153)" stroke-width="1" opacity="1" d="M 190.5 305 L 192 305.5 L 189.5 307 L 190.5 305 Z " /><path fill="rgb(111,136,153)" stroke="rgb(111,136,153)" stroke-width="1" opacity="1" d="M 201.5 305 L 202.5 307 L 201.5 305 Z " /><path fill="rgb(111,136,153)" stroke="rgb(111,136,153)" stroke-width="1" opacity="1" d="M 238.5 305 L 245 305.5 L 238.5 306 L 238.5 305 Z " /><path fill="rgb(111,136,153)" stroke="rgb(111,136,153)" stroke-width="1" opacity="1" d="M 292.5 305 L 293.5 307 L 292.5 305 Z " /><path fill="rgb(111,136,153)" stroke="rgb(111,136,153)" stroke-width="1" opacity="1" d="M 235.5 306 L 234.5 308 L 235.5 306 Z " /><path fill="rgb(111,136,153)" stroke="rgb(111,136,153)" stroke-width="1" opacity="1" d="M 316.5 306 L 318.5 309 L 316.5 306 Z " /><path fill="rgb(111,136,153)" stroke="rgb(111,136,153)" stroke-width="1" opacity="1" d="M 142.5 308 L 145 308.5 L 142.5 309 L 142.5 308 Z " /><path fill="rgb(111,136,153)" stroke="rgb(111,136,153)" stroke-width="1" opacity="1" d="M 155.5 308 L 158 308.5 L 155.5 309 L 155.5 308 Z " /><path fill="rgb(111,136,153)" stroke="rgb(111,136,153)" stroke-width="1" opacity="1" d="M 206.5 308 L 209 308.5 L 206.5 309 L 206.5 308 Z " /><path fill="rgb(111,136,153)" stroke="rgb(111,136,153)" stroke-width="1" opacity="1" d="M 284.5 308 L 287 308.5 L 284.5 309 L 284.5 308 Z " /><path fill="rgb(111,136,153)" stroke="rgb(111,136,153)" stroke-width="1" opacity="1" d="M 297.5 308 L 300 308.5 L 297.5 309 L 297.5 308 Z " /><path fill="rgb(111,136,153)" stroke="rgb(111,136,153)" stroke-width="1" opacity="1" d="M 350.5 308 L 353 308.5 L 350.5 309 L 350.5 308 Z " /><path fill="rgb(111,136,153)" stroke="rgb(111,136,153)" stroke-width="1" opacity="1" d="M 120.5 336 L 121.5 338 L 120.5 336 Z " /><path fill="rgb(111,136,153)" stroke="rgb(111,136,153)" stroke-width="1" opacity="1" d="M 422.5 336 L 421.5 338 L 422.5 336 Z " /><path fill="rgb(111,136,153)" stroke="rgb(111,136,153)" stroke-width="1" opacity="1" d="M 416.5 339 L 415.5 341 L 416.5 339 Z " /><path fill="rgb(111,136,153)" stroke="rgb(111,136,153)" stroke-width="1" opacity="1" d="M 123.5 340 L 124.5 342 L 123.5 340 Z " /><path fill="rgb(111,136,153)" stroke="rgb(111,136,153)" stroke-width="1" opacity="1" d="M 416.5 344 L 415.5 346 L 416.5 344 Z " /><path fill="rgb(111,136,153)" stroke="rgb(111,136,153)" stroke-width="1" opacity="1" d="M 123.5 345 L 124.5 347 L 123.5 345 Z " /><path fill="rgb(111,136,153)" stroke="rgb(111,136,153)" stroke-width="1" opacity="1" d="M 408.5 349 L 406.5 352 L 408.5 349 Z " /><path fill="rgb(111,136,153)" stroke="rgb(111,136,153)" stroke-width="1" opacity="1" d="M 412.5 349 L 410.5 352 L 412.5 349 Z " /><path fill="rgb(111,136,153)" stroke="rgb(111,136,153)" stroke-width="1" opacity="1" d="M 127.5 350 L 129.5 353 L 127.5 350 Z " /><path fill="rgb(111,136,153)" stroke="rgb(111,136,153)" stroke-width="1" opacity="1" d="M 131.5 350 L 133.5 353 L 131.5 350 Z " /><path fill="rgb(111,136,153)" stroke="rgb(111,136,153)" stroke-width="1" opacity="1" d="M 403.5 359 L 399.5 364 L 403.5 359 Z " /><path fill="rgb(111,136,153)" stroke="rgb(111,136,153)" stroke-width="1" opacity="1" d="M 145.5 364 L 148.5 368 L 145.5 364 Z " /><path fill="rgb(111,136,153)" stroke="rgb(111,136,153)" stroke-width="1" opacity="1" d="M 391.5 366 L 390.5 368 L 391.5 366 Z " /><path fill="rgb(111,136,153)" stroke="rgb(111,136,153)" stroke-width="1" opacity="1" d="M 146.5 369 L 148.5 372 L 146.5 369 Z " /><path fill="rgb(111,136,153)" stroke="rgb(111,136,153)" stroke-width="1" opacity="1" d="M 391.5 370 L 389.5 373 L 391.5 370 Z " /><path fill="rgb(111,136,153)" stroke="rgb(111,136,153)" stroke-width="1" opacity="1" d="M 153.5 371 L 154.5 373 L 153.5 371 Z " /><path fill="rgb(111,136,153)" stroke="rgb(111,136,153)" stroke-width="1" opacity="1" d="M 153.5 375 L 154.5 377 L 153.5 375 Z " /><path fill="rgb(111,136,153)" stroke="rgb(111,136,153)" stroke-width="1" opacity="1" d="M 158.5 375 L 159.5 377 L 158.5 375 Z " /><path fill="rgb(111,136,153)" stroke="rgb(111,136,153)" stroke-width="1" opacity="1" d="M 162.5 378 L 163.5 380 L 162.5 378 Z " /><path fill="rgb(111,136,153)" stroke="rgb(111,136,153)" stroke-width="1" opacity="1" d="M 242.5 411 L 245 411.5 L 242.5 412 L 242.5 411 Z " /><path fill="rgb(111,136,153)" stroke="rgb(111,136,153)" stroke-width="1" opacity="1" d="M 294.5 411 L 297 411.5 L 294.5 412 L 294.5 411 Z " /><path fill="rgb(111,136,153)" stroke="rgb(111,136,153)" stroke-width="1" opacity="1" d="M 251.5 412 L 255 412.5 L 251.5 413 L 251.5 412 Z " /><path fill="rgb(111,136,153)" stroke="rgb(111,136,153)" stroke-width="1" opacity="1" d="M 284.5 412 L 288 412.5 L 284.5 413 L 284.5 412 Z " /><path fill="rgb(111,136,153)" stroke="rgb(111,136,153)" stroke-width="1" opacity="1" d="M 242.5 414 L 245 414.5 L 242.5 415 L 242.5 414 Z " /><path fill="rgb(111,136,153)" stroke="rgb(111,136,153)" stroke-width="1" opacity="1" d="M 250.5 415 L 253 415.5 L 250.5 416 L 250.5 415 Z " /><path fill="rgb(111,136,153)" stroke="rgb(111,136,153)" stroke-width="1" opacity="1" d="M 286.5 415 L 289 415.5 L 286.5 416 L 286.5 415 Z " /><path fill="rgb(172,181,189)" stroke="rgb(172,181,189)" stroke-width="1" opacity="1" d="M 265.5 44 L 274 44.5 L 265.5 45 L 265.5 44 Z " /><path fill="rgb(172,181,189)" stroke="rgb(172,181,189)" stroke-width="1" opacity="1" d="M 288.5 45 L 291 45.5 L 288.5 46 L 288.5 45 Z " /><path fill="rgb(172,181,189)" stroke="rgb(172,181,189)" stroke-width="1" opacity="1" d="M 241.5 46 L 244 46.5 L 241.5 47 L 241.5 46 Z " /><path fill="rgb(172,181,189)" stroke="rgb(172,181,189)" stroke-width="1" opacity="1" d="M 254.5 47 L 258 47.5 L 254.5 48 L 254.5 47 Z " /><path fill="rgb(172,181,189)" stroke="rgb(172,181,189)" stroke-width="1" opacity="1" d="M 282.5 47 L 286 47.5 L 282.5 48 L 282.5 47 Z " /><path fill="rgb(172,181,189)" stroke="rgb(172,181,189)" stroke-width="1" opacity="1" d="M 244.5 48 L 247 48.5 L 244.5 49 L 244.5 48 Z " /><path fill="rgb(172,181,189)" stroke="rgb(172,181,189)" stroke-width="1" opacity="1" d="M 293.5 48 L 296 48.5 L 293.5 49 L 293.5 48 Z " /><path fill="rgb(172,181,189)" stroke="rgb(172,181,189)" stroke-width="1" opacity="1" d="M 166.5 78 L 165.5 80 L 166.5 78 Z " /><path fill="rgb(172,181,189)" stroke="rgb(172,181,189)" stroke-width="1" opacity="1" d="M 155.5 83 L 154.5 85 L 155.5 83 Z " /><path fill="rgb(172,181,189)" stroke="rgb(172,181,189)" stroke-width="1" opacity="1" d="M 379.5 83 L 380.5 85 L 379.5 83 Z " /><path fill="rgb(172,181,189)" stroke="rgb(172,181,189)" stroke-width="1" opacity="1" d="M 158.5 84 L 157.5 86 L 158.5 84 Z " /><path fill="rgb(172,181,189)" stroke="rgb(172,181,189)" stroke-width="1" opacity="1" d="M 387.5 86 L 389.5 89 L 387.5 86 Z " /><path fill="rgb(172,181,189)" stroke="rgb(172,181,189)" stroke-width="1" opacity="1" d="M 150.5 87 L 148.5 90 L 150.5 87 Z " /><path fill="rgb(172,181,189)" stroke="rgb(172,181,189)" stroke-width="1" opacity="1" d="M 384.5 87 L 385.5 89 L 384.5 87 Z " /><path fill="rgb(172,181,189)" stroke="rgb(172,181,189)" stroke-width="1" opacity="1" d="M 153.5 88 L 152.5 90 L 153.5 88 Z " /><path fill="rgb(172,181,189)" stroke="rgb(172,181,189)" stroke-width="1" opacity="1" d="M 390.5 92 L 393.5 96 L 390.5 92 Z " /><path fill="rgb(172,181,189)" stroke="rgb(172,181,189)" stroke-width="1" opacity="1" d="M 146.5 94 L 143.5 98 L 146.5 94 Z " /><path fill="rgb(172,181,189)" stroke="rgb(172,181,189)" stroke-width="1" opacity="1" d="M 397.5 95 L 405.5 104 L 397.5 95 Z " /><path fill="rgb(172,181,189)" stroke="rgb(172,181,189)" stroke-width="1" opacity="1" d="M 139.5 97 L 135.5 102 L 139.5 97 Z " /><path fill="rgb(172,181,189)" stroke="rgb(172,181,189)" stroke-width="1" opacity="1" d="M 133.5 107 L 132.5 109 L 133.5 107 Z " /><path fill="rgb(172,181,189)" stroke="rgb(172,181,189)" stroke-width="1" opacity="1" d="M 406.5 108 L 407.5 110 L 406.5 108 Z " /><path fill="rgb(172,181,189)" stroke="rgb(172,181,189)" stroke-width="1" opacity="1" d="M 128.5 109 L 126.5 112 L 128.5 109 Z " /><path fill="rgb(172,181,189)" stroke="rgb(172,181,189)" stroke-width="1" opacity="1" d="M 411.5 110 L 412.5 112 L 411.5 110 Z " /><path fill="rgb(172,181,189)" stroke="rgb(172,181,189)" stroke-width="1" opacity="1" d="M 411.5 114 L 412.5 116 L 411.5 114 Z " /><path fill="rgb(172,181,189)" stroke="rgb(172,181,189)" stroke-width="1" opacity="1" d="M 415.5 115 L 416.5 117 L 415.5 115 Z " /><path fill="rgb(172,181,189)" stroke="rgb(172,181,189)" stroke-width="1" opacity="1" d="M 124.5 118 L 123.5 120 L 124.5 118 Z " /><path fill="rgb(172,181,189)" stroke="rgb(172,181,189)" stroke-width="1" opacity="1" d="M 121.5 122 L 120.5 124 L 121.5 122 Z " /><path fill="rgb(172,181,189)" stroke="rgb(172,181,189)" stroke-width="1" opacity="1" d="M 180.5 129 L 194.5 130 L 210 140 L 212.5 136 Q 219.9 128.4 235.5 129 Q 248 131.5 254.5 140 Q 261.6 128.1 281.5 129 Q 292.5 131 298 138.5 Q 290.6 145.6 291 160.5 L 294 171.5 L 298 177.5 Q 290.3 187.8 270.5 186 Q 261.1 183.9 256 177.5 L 254.5 175 Q 247.2 187.2 226.5 186 Q 215.5 184 210 176.5 Q 210.8 174.3 208.5 175 Q 203.5 182 194.5 185 L 179.5 186 Q 166.9 183.1 161 173.5 L 157 163.5 L 157 151.5 Q 159.7 140.7 167.5 135 L 180.5 129 Z M 184 143 L 183 156 L 182 157 L 182 165 L 181 166 Q 180 172 183 171 L 184 170 L 187 145 L 184 143 Z M 231 143 L 229 168 L 228 169 Q 227 173 231 171 L 232 158 L 233 157 L 233 149 L 234 148 Q 236 141 231 143 Z M 175 149 L 172 152 Q 174 158 170 157 Q 169 161 172 161 L 172 166 L 176 169 L 174 160 L 175 153 L 177 151 L 175 149 Z M 192 149 L 194 158 L 192 168 L 196 166 Q 194 159 198 160 Q 199 157 196 156 L 196 152 L 192 149 Z M 266 149 L 270 156 L 265 162 L 267 164 L 274 156 L 266 149 Z M 224 151 L 217 158 L 219 162 L 225 166 Q 226 161 221 160 L 221 158 L 226 153 Q 227 150 224 151 Z M 237 151 L 241 158 L 242 159 L 236 165 L 238 166 L 245 160 L 245 158 L 241 153 L 237 151 Z M 276 163 L 274 165 L 277 166 L 288 166 L 289 165 L 289 163 L 276 163 Z " /><path fill="rgb(172,181,189)" stroke="rgb(172,181,189)" stroke-width="1" opacity="1" d="M 299.5 141 Q 307.2 147.8 305 164.5 L 299.5 175 L 294 162.5 L 294 152.5 L 299.5 141 Z " /><path fill="rgb(172,181,189)" stroke="rgb(172,181,189)" stroke-width="1" opacity="1" d="M 453.5 203 L 454 205.5 L 453 205.5 L 453.5 203 Z " /><path fill="rgb(172,181,189)" stroke="rgb(172,181,189)" stroke-width="1" opacity="1" d="M 451.5 207 L 452 209.5 L 451 209.5 L 451.5 207 Z " /><path fill="rgb(172,181,189)" stroke="rgb(172,181,189)" stroke-width="1" opacity="1" d="M 138.5 208 L 150.5 210 L 156 214.5 L 153.5 218 L 149.5 219 L 145.5 216 L 140.5 215 Q 133.9 215.9 131 220.5 L 129 228.5 Q 129.9 235.1 134.5 238 Q 138 240.5 145.5 239 L 151.5 236 L 156 239.5 L 153.5 243 Q 148.5 247 139.5 247 L 129.5 244 L 124 238.5 L 121 226.5 L 124 216.5 L 129.5 211 L 138.5 208 Z " /><path fill="rgb(172,181,189)" stroke="rgb(172,181,189)" stroke-width="1" opacity="1" d="M 177.5 208 L 189.5 210 L 196 215.5 Q 200.8 220.7 199 232.5 Q 197.5 239.5 192.5 243 Q 187.2 247.2 177.5 247 L 168.5 244 L 163 238.5 L 160 230.5 L 160 223.5 Q 162.2 215.2 168.5 211 L 177.5 208 Z M 180 215 L 174 217 L 168 225 Q 167 232 170 235 L 176 239 Q 183 241 187 238 L 191 233 Q 193 223 189 220 L 185 216 L 180 215 Z " /><path fill="rgb(172,181,189)" stroke="rgb(172,181,189)" stroke-width="1" opacity="1" d="M 289.5 208 Q 301.8 207.7 307 214.5 L 305.5 217 L 300.5 219 L 296.5 216 L 291.5 215 Q 284.1 216.1 281 221.5 L 280 230.5 L 285.5 238 Q 289 240.5 296.5 239 L 302.5 236 L 307 239.5 L 304.5 243 Q 299.2 247.2 289.5 247 L 280.5 244 L 275 238.5 L 272 230.5 L 272 223.5 Q 274.1 215.2 280.5 211 L 289.5 208 Z " /><path fill="rgb(172,181,189)" stroke="rgb(172,181,189)" stroke-width="1" opacity="1" d="M 362.5 208 Q 373.3 225.4 380 246 L 372.5 246 L 371 244.5 L 369.5 241 L 355.5 241 L 355 242.5 L 352.5 246 L 345.5 246 L 345 244.5 L 362.5 208 Z M 362 224 L 358 234 L 359 235 L 367 235 L 364 227 Q 365 223 362 224 Z " /><path fill="rgb(172,181,189)" stroke="rgb(172,181,189)" stroke-width="1" opacity="1" d="M 206 209 L 221.5 209 L 228.5 211 L 234 215.5 Q 239 221 237 233.5 L 231.5 242 Q 222.3 248 206 246 L 206 209 Z M 214 216 L 214 239 Q 221 240 226 237 L 229 232 Q 231 224 228 221 Q 224 214 214 216 Z " /><path fill="rgb(172,181,189)" stroke="rgb(172,181,189)" stroke-width="1" opacity="1" d="M 244 209 L 266.5 209 L 267 209.5 L 267 216 L 252 216 L 252 227 L 265 227 L 265 233 L 252 233 L 252 239 L 267 239 L 267 246 L 244 246 L 244 209 Z " /><path fill="rgb(172,181,189)" stroke="rgb(172,181,189)" stroke-width="1" opacity="1" d="M 313 209 L 330.5 209 L 336.5 211 L 339 213.5 Q 341.7 216.8 341 223.5 L 340 227.5 L 335 232.5 L 342 245.5 L 333 246 L 327 233 L 321 233 L 321 246 L 313 246 L 313 209 Z M 321 216 L 321 227 L 331 226 L 333 223 L 332 217 Q 329 215 321 216 Z " /><path fill="rgb(172,181,189)" stroke="rgb(172,181,189)" stroke-width="1" opacity="1" d="M 385 209 L 407.5 209 L 408 209.5 L 408 216 L 393 216 L 393 227 L 406 227 L 406 233 L 393 233 L 393 246 L 385 246 L 385 209 Z " /><path fill="rgb(172,181,189)" stroke="rgb(172,181,189)" stroke-width="1" opacity="1" d="M 411 209 L 435.5 209 L 437 210.5 Q 438 215 435.5 216 L 428.5 216 L 428 216.5 L 428 246 L 420 246 L 420 216.5 L 419.5 216 L 411 216 L 411 209 Z " /><path fill="rgb(172,181,189)" stroke="rgb(172,181,189)" stroke-width="1" opacity="1" d="M 84.5 210 L 85 213.5 L 84 213.5 L 84.5 210 Z " /><path fill="rgb(172,181,189)" stroke="rgb(172,181,189)" stroke-width="1" opacity="1" d="M 454.5 211 L 455 214.5 L 454 214.5 L 454.5 211 Z " /><path fill="rgb(172,181,189)" stroke="rgb(172,181,189)" stroke-width="1" opacity="1" d="M 86.5 216 L 87 219.5 L 86 219.5 L 86.5 216 Z " /><path fill="rgb(172,181,189)" stroke="rgb(172,181,189)" stroke-width="1" opacity="1" d="M 452.5 217 L 453 221.5 L 452 221.5 L 452.5 217 Z " /><path fill="rgb(172,181,189)" stroke="rgb(172,181,189)" stroke-width="1" opacity="1" d="M 86.5 232 L 87 240.5 L 86 240.5 L 86.5 232 Z " /><path fill="rgb(172,181,189)" stroke="rgb(172,181,189)" stroke-width="1" opacity="1" d="M 452.5 242 L 453 245.5 L 452 245.5 L 452.5 242 Z " /><path fill="rgb(172,181,189)" stroke="rgb(172,181,189)" stroke-width="1" opacity="1" d="M 84.5 243 L 85 247.5 L 84 247.5 L 84.5 243 Z " /><path fill="rgb(172,181,189)" stroke="rgb(172,181,189)" stroke-width="1" opacity="1" d="M 454.5 248 L 455 250.5 L 454 250.5 L 454.5 248 Z " /><path fill="rgb(172,181,189)" stroke="rgb(172,181,189)" stroke-width="1" opacity="1" d="M 453.5 256 L 454 258.5 L 453 258.5 L 453.5 256 Z " /><path fill="rgb(172,181,189)" stroke="rgb(172,181,189)" stroke-width="1" opacity="1" d="M 166.5 294 L 167 307.5 L 166 307.5 L 166.5 294 Z " /><path fill="rgb(172,181,189)" stroke="rgb(172,181,189)" stroke-width="1" opacity="1" d="M 179.5 294 L 180 307.5 L 179 307.5 L 179.5 294 Z " /><path fill="rgb(172,181,189)" stroke="rgb(172,181,189)" stroke-width="1" opacity="1" d="M 246.5 294 L 250 295.5 L 247.5 296 L 246.5 294 Z " /><path fill="rgb(172,181,189)" stroke="rgb(172,181,189)" stroke-width="1" opacity="1" d="M 264.5 294 L 263.5 296 L 259 295.5 L 264.5 294 Z " /><path fill="rgb(172,181,189)" stroke="rgb(172,181,189)" stroke-width="1" opacity="1" d="M 332.5 294 L 333 308 L 330 306.5 L 332 306.5 L 332.5 294 Z " /><path fill="rgb(172,181,189)" stroke="rgb(172,181,189)" stroke-width="1" opacity="1" d="M 141.5 295 L 145 295.5 L 141.5 296 L 141.5 295 Z " /><path fill="rgb(172,181,189)" stroke="rgb(172,181,189)" stroke-width="1" opacity="1" d="M 155.5 295 L 159 295.5 L 155.5 296 L 155.5 295 Z " /><path fill="rgb(172,181,189)" stroke="rgb(172,181,189)" stroke-width="1" opacity="1" d="M 161.5 295 L 162.5 297 L 161.5 295 Z " /><path fill="rgb(172,181,189)" stroke="rgb(172,181,189)" stroke-width="1" opacity="1" d="M 168.5 295 L 171 295.5 L 168.5 296 L 168.5 295 Z " /><path fill="rgb(172,181,189)" stroke="rgb(172,181,189)" stroke-width="1" opacity="1" d="M 174.5 295 L 175.5 297 L 174.5 295 Z " /><path fill="rgb(172,181,189)" stroke="rgb(172,181,189)" stroke-width="1" opacity="1" d="M 181.5 295 L 187 295.5 L 181.5 296 L 181.5 295 Z " /><path fill="rgb(172,181,189)" stroke="rgb(172,181,189)" stroke-width="1" opacity="1" d="M 206.5 295 L 209 295.5 L 206.5 296 L 206.5 295 Z " /><path fill="rgb(172,181,189)" stroke="rgb(172,181,189)" stroke-width="1" opacity="1" d="M 217.5 295 L 220 295.5 L 217 296 L 216.5 302 L 216 296.5 L 217.5 295 Z " /><path fill="rgb(172,181,189)" stroke="rgb(172,181,189)" stroke-width="1" opacity="1" d="M 229.5 295 L 234 295.5 L 229 296 L 228.5 302 L 228 296.5 L 229.5 295 Z " /><path fill="rgb(172,181,189)" stroke="rgb(172,181,189)" stroke-width="1" opacity="1" d="M 252.5 295 L 255 295.5 L 252.5 296 L 252.5 295 Z " /><path fill="rgb(172,181,189)" stroke="rgb(172,181,189)" stroke-width="1" opacity="1" d="M 280.5 295 L 281.5 297 L 279 296.5 L 280.5 295 Z " /><path fill="rgb(172,181,189)" stroke="rgb(172,181,189)" stroke-width="1" opacity="1" d="M 283.5 295 L 287 295.5 L 283.5 296 L 283.5 295 Z " /><path fill="rgb(172,181,189)" stroke="rgb(172,181,189)" stroke-width="1" opacity="1" d="M 297.5 295 L 300 295.5 L 297.5 296 L 297.5 295 Z " /><path fill="rgb(172,181,189)" stroke="rgb(172,181,189)" stroke-width="1" opacity="1" d="M 338.5 295 L 343 295.5 L 338 296 L 337.5 302 L 337 296.5 L 338.5 295 Z " /><path fill="rgb(172,181,189)" stroke="rgb(172,181,189)" stroke-width="1" opacity="1" d="M 350.5 295 L 354 295.5 L 350.5 296 L 350.5 295 Z " /><path fill="rgb(172,181,189)" stroke="rgb(172,181,189)" stroke-width="1" opacity="1" d="M 358.5 295 L 362 296.5 L 361.5 307 L 361 296 Q 357.7 296.8 358.5 295 Z " /><path fill="rgb(172,181,189)" stroke="rgb(172,181,189)" stroke-width="1" opacity="1" d="M 363.5 295 L 367 295.5 L 363.5 296 L 363.5 295 Z " /><path fill="rgb(172,181,189)" stroke="rgb(172,181,189)" stroke-width="1" opacity="1" d="M 153.5 296 L 152.5 298 L 153.5 296 Z " /><path fill="rgb(172,181,189)" stroke="rgb(172,181,189)" stroke-width="1" opacity="1" d="M 348.5 296 L 347.5 298 L 348.5 296 Z " /><path fill="rgb(172,181,189)" stroke="rgb(172,181,189)" stroke-width="1" opacity="1" d="M 325.5 297 L 326.5 299 Q 325.3 296.8 324 299.5 L 323.5 308 L 323 298 L 325.5 297 Z " /><path fill="rgb(172,181,189)" stroke="rgb(172,181,189)" stroke-width="1" opacity="1" d="M 310.5 298 L 314 299.5 L 311.5 300 L 310.5 298 Z " /><path fill="rgb(172,181,189)" stroke="rgb(172,181,189)" stroke-width="1" opacity="1" d="M 151.5 299 L 152 302.5 L 151 302.5 L 151.5 299 Z " /><path fill="rgb(172,181,189)" stroke="rgb(172,181,189)" stroke-width="1" opacity="1" d="M 200.5 299 L 201 302.5 L 200 302.5 L 200.5 299 Z " /><path fill="rgb(172,181,189)" stroke="rgb(172,181,189)" stroke-width="1" opacity="1" d="M 291.5 299 L 292 302.5 L 291 302.5 L 291.5 299 Z " /><path fill="rgb(172,181,189)" stroke="rgb(172,181,189)" stroke-width="1" opacity="1" d="M 346.5 299 L 347 302.5 L 346 302.5 L 346.5 299 Z " /><path fill="rgb(172,181,189)" stroke="rgb(172,181,189)" stroke-width="1" opacity="1" d="M 238.5 300 L 239.5 302 L 238.5 300 Z " /><path fill="rgb(172,181,189)" stroke="rgb(172,181,189)" stroke-width="1" opacity="1" d="M 223.5 301 L 222.5 303 L 223.5 301 Z " /><path fill="rgb(172,181,189)" stroke="rgb(172,181,189)" stroke-width="1" opacity="1" d="M 233.5 302 L 232.5 304 Q 227.7 302.7 229 306 L 234 306.5 L 229.5 307 L 228 303 L 233.5 302 Z " /><path fill="rgb(172,181,189)" stroke="rgb(172,181,189)" stroke-width="1" opacity="1" d="M 329.5 302 L 330.5 304 L 329.5 302 Z " /><path fill="rgb(172,181,189)" stroke="rgb(172,181,189)" stroke-width="1" opacity="1" d="M 342.5 302 L 341.5 304 Q 336.7 302.7 338 306 L 343 306.5 L 338.5 307 L 337 303 L 342.5 302 Z " /><path fill="rgb(172,181,189)" stroke="rgb(172,181,189)" stroke-width="1" opacity="1" d="M 181.5 303 L 186 303.5 L 181.5 304 L 181.5 303 Z " /><path fill="rgb(172,181,189)" stroke="rgb(172,181,189)" stroke-width="1" opacity="1" d="M 217.5 303 L 221 304.5 L 219.5 304 Q 215.8 302.8 217 306.5 L 216 306.5 L 217.5 303 Z " /><path fill="rgb(172,181,189)" stroke="rgb(172,181,189)" stroke-width="1" opacity="1" d="M 259.5 303 L 264 303.5 L 259.5 304 L 259.5 303 Z " /><path fill="rgb(172,181,189)" stroke="rgb(172,181,189)" stroke-width="1" opacity="1" d="M 314.5 303 L 317 303.5 Q 314.9 306.8 314.5 303 Z " /><path fill="rgb(172,181,189)" stroke="rgb(172,181,189)" stroke-width="1" opacity="1" d="M 152.5 304 L 153.5 306 L 152.5 304 Z " /><path fill="rgb(172,181,189)" stroke="rgb(172,181,189)" stroke-width="1" opacity="1" d="M 347.5 304 L 348.5 306 L 347.5 304 Z " /><path fill="rgb(172,181,189)" stroke="rgb(172,181,189)" stroke-width="1" opacity="1" d="M 162.5 305 L 161.5 307 L 162.5 305 Z " /><path fill="rgb(172,181,189)" stroke="rgb(172,181,189)" stroke-width="1" opacity="1" d="M 175.5 305 L 174.5 307 L 175.5 305 Z " /><path fill="rgb(172,181,189)" stroke="rgb(172,181,189)" stroke-width="1" opacity="1" d="M 279.5 305 L 280.5 307 L 279.5 305 Z " /><path fill="rgb(172,181,189)" stroke="rgb(172,181,189)" stroke-width="1" opacity="1" d="M 288.5 305 L 289.5 307 L 288.5 305 Z " /><path fill="rgb(172,181,189)" stroke="rgb(172,181,189)" stroke-width="1" opacity="1" d="M 142.5 306 L 145 306.5 L 142.5 307 L 142.5 306 Z " /><path fill="rgb(172,181,189)" stroke="rgb(172,181,189)" stroke-width="1" opacity="1" d="M 155.5 306 L 159 306.5 L 155.5 307 L 155.5 306 Z " /><path fill="rgb(172,181,189)" stroke="rgb(172,181,189)" stroke-width="1" opacity="1" d="M 181.5 306 L 187 306.5 L 181.5 307 L 181.5 306 Z " /><path fill="rgb(172,181,189)" stroke="rgb(172,181,189)" stroke-width="1" opacity="1" d="M 206.5 306 L 209 306.5 L 206.5 307 L 206.5 306 Z " /><path fill="rgb(172,181,189)" stroke="rgb(172,181,189)" stroke-width="1" opacity="1" d="M 259.5 306 Q 264 305 265 307.5 L 263.5 307 Q 258.5 308 259.5 306 Z " /><path fill="rgb(172,181,189)" stroke="rgb(172,181,189)" stroke-width="1" opacity="1" d="M 283.5 306 L 287 306.5 L 283.5 307 L 283.5 306 Z " /><path fill="rgb(172,181,189)" stroke="rgb(172,181,189)" stroke-width="1" opacity="1" d="M 297.5 306 L 300 306.5 L 297.5 307 L 297.5 306 Z " /><path fill="rgb(172,181,189)" stroke="rgb(172,181,189)" stroke-width="1" opacity="1" d="M 350.5 306 L 353 306.5 L 350.5 307 L 350.5 306 Z " /><path fill="rgb(172,181,189)" stroke="rgb(172,181,189)" stroke-width="1" opacity="1" d="M 420.5 334 L 419.5 336 L 420.5 334 Z " /><path fill="rgb(172,181,189)" stroke="rgb(172,181,189)" stroke-width="1" opacity="1" d="M 118.5 338 L 119.5 340 L 118.5 338 Z " /><path fill="rgb(172,181,189)" stroke="rgb(172,181,189)" stroke-width="1" opacity="1" d="M 418.5 341 L 417.5 343 L 418.5 341 Z " /><path fill="rgb(172,181,189)" stroke="rgb(172,181,189)" stroke-width="1" opacity="1" d="M 414.5 342 L 413.5 344 L 414.5 342 Z " /><path fill="rgb(172,181,189)" stroke="rgb(172,181,189)" stroke-width="1" opacity="1" d="M 125.5 343 L 126.5 345 L 125.5 343 Z " /><path fill="rgb(172,181,189)" stroke="rgb(172,181,189)" stroke-width="1" opacity="1" d="M 410.5 347 L 409.5 349 L 410.5 347 Z " /><path fill="rgb(172,181,189)" stroke="rgb(172,181,189)" stroke-width="1" opacity="1" d="M 129.5 348 L 130.5 350 L 129.5 348 Z " /><path fill="rgb(172,181,189)" stroke="rgb(172,181,189)" stroke-width="1" opacity="1" d="M 409.5 352 L 408.5 354 L 409.5 352 Z " /><path fill="rgb(172,181,189)" stroke="rgb(172,181,189)" stroke-width="1" opacity="1" d="M 130.5 353 L 133.5 357 L 130.5 353 Z " /><path fill="rgb(172,181,189)" stroke="rgb(172,181,189)" stroke-width="1" opacity="1" d="M 404.5 354 L 397.5 362 L 404.5 354 Z " /><path fill="rgb(172,181,189)" stroke="rgb(172,181,189)" stroke-width="1" opacity="1" d="M 142.5 365 L 145.5 369 L 142.5 365 Z " /><path fill="rgb(172,181,189)" stroke="rgb(172,181,189)" stroke-width="1" opacity="1" d="M 394.5 367 L 392.5 370 L 394.5 367 Z " /><path fill="rgb(172,181,189)" stroke="rgb(172,181,189)" stroke-width="1" opacity="1" d="M 149.5 368 L 150.5 370 L 149.5 368 Z " /><path fill="rgb(172,181,189)" stroke="rgb(172,181,189)" stroke-width="1" opacity="1" d="M 389.5 368 L 387.5 371 L 389.5 368 Z " /><path fill="rgb(172,181,189)" stroke="rgb(172,181,189)" stroke-width="1" opacity="1" d="M 155.5 373 L 156.5 375 L 155.5 373 Z " /><path fill="rgb(172,181,189)" stroke="rgb(172,181,189)" stroke-width="1" opacity="1" d="M 383.5 373 L 382.5 375 L 383.5 373 Z " /><path fill="rgb(172,181,189)" stroke="rgb(172,181,189)" stroke-width="1" opacity="1" d="M 386.5 374 L 385.5 376 L 386.5 374 Z " /><path fill="rgb(172,181,189)" stroke="rgb(172,181,189)" stroke-width="1" opacity="1" d="M 156.5 377 L 157.5 379 L 156.5 377 Z " /><path fill="rgb(172,181,189)" stroke="rgb(172,181,189)" stroke-width="1" opacity="1" d="M 248.5 412 L 251 412.5 L 248.5 413 L 248.5 412 Z " /><path fill="rgb(172,181,189)" stroke="rgb(172,181,189)" stroke-width="1" opacity="1" d="M 288.5 412 L 291 412.5 L 288.5 413 L 288.5 412 Z " /><path fill="rgb(172,181,189)" stroke="rgb(172,181,189)" stroke-width="1" opacity="1" d="M 260.5 413 L 279 413.5 L 260.5 414 L 260.5 413 Z " /><path fill="rgb(172,181,189)" stroke="rgb(172,181,189)" stroke-width="1" opacity="1" d="M 253.5 415 L 257 415.5 L 253.5 416 L 253.5 415 Z " /><path fill="rgb(172,181,189)" stroke="rgb(172,181,189)" stroke-width="1" opacity="1" d="M 282.5 415 L 286 415.5 L 282.5 416 L 282.5 415 Z " /><path fill="rgb(238,246,251)" stroke="rgb(238,246,251)" stroke-width="1" opacity="1" d="M 251.5 45 L 287.5 45 Q 289.3 47.8 295.5 46 L 316.5 50 L 337.5 57 Q 382.3 75.2 411 109.5 Q 435.4 137.6 448 177.5 L 452 193.5 L 454 214.5 L 455 215.5 L 455 247.5 L 450 276.5 L 438 309.5 Q 421.8 343.3 395.5 367 Q 369.7 391.2 333.5 405 L 314.5 411 L 298.5 414 L 282.5 415 L 281.5 416 L 257.5 416 L 256.5 415 L 247.5 415 L 224.5 411 L 193.5 400 Q 158.4 384.1 134 357.5 Q 109 331.5 95 294.5 L 88 270.5 L 85 253.5 L 84 214.5 L 85 213.5 L 85 205.5 L 86 204.5 L 87 193.5 L 91 177.5 Q 97 158 106 141.5 Q 122.6 111.6 147.5 90 Q 167.8 71.8 194.5 60 L 219.5 51 L 251.5 45 Z M 255 47 L 221 53 L 196 62 Q 167 74 147 94 Q 119 119 102 155 L 91 186 L 87 208 L 87 216 L 86 217 L 86 241 L 87 242 L 88 259 L 93 282 L 97 294 L 113 327 L 139 360 L 165 381 L 197 399 L 231 410 L 241 412 L 248 412 L 249 413 L 260 413 L 261 414 L 279 414 L 280 413 L 299 412 L 333 403 Q 371 388 398 362 Q 422 339 437 307 L 448 276 L 452 255 L 452 247 L 453 246 L 453 218 L 452 217 L 452 208 L 446 179 Q 433 138 408 110 Q 381 79 342 61 L 316 52 L 296 48 L 287 48 L 286 47 L 255 47 Z " /><path fill="rgb(238,246,251)" stroke="rgb(238,246,251)" stroke-width="1" opacity="1" d="M 140.5 294 Q 145.9 293.4 148 295 L 147.5 297 Q 146.1 294.4 141.5 295 Q 136.8 296.3 138 303.5 Q 139.8 306.8 144.5 307 L 147.5 305 L 148 307 L 141.5 308 L 137 304.5 L 136 299.5 L 140.5 294 Z " /><path fill="rgb(238,246,251)" stroke="rgb(238,246,251)" stroke-width="1" opacity="1" d="M 154.5 294 L 159.5 294 L 164 298.5 L 164 303.5 L 159.5 308 Q 153 309 151 305.5 L 150 298.5 L 152.5 295 L 154.5 294 Z M 156 295 L 154 296 L 151 300 L 152 305 Q 153 308 159 307 L 163 302 L 162 299 Q 161 294 156 295 Z " /><path fill="rgb(238,246,251)" stroke="rgb(238,246,251)" stroke-width="1" opacity="1" d="M 167 294 Q 174.6 292.9 177 298.5 Q 178.3 305.8 173.5 307 L 167 308 L 167 294 Z M 168 295 L 168 307 L 173 306 L 176 302 L 175 299 Q 173 295 168 295 Z " /><path fill="rgb(238,246,251)" stroke="rgb(238,246,251)" stroke-width="1" opacity="1" d="M 180 294 L 187 294.5 L 181 295 L 181 302 L 185.5 302 L 185.5 303 Q 178.8 301 181 307 L 187 307.5 L 180 308 L 180 294 Z " /><path fill="rgb(238,246,251)" stroke="rgb(238,246,251)" stroke-width="1" opacity="1" d="M 205.5 294 L 212 295 L 211.5 297 L 206.5 295 L 202 298.5 Q 200.8 304.8 204.5 306 L 208.5 307 L 211.5 305 L 212 307 L 205.5 308 L 201 304.5 Q 199.3 296.7 203.5 295 L 205.5 294 Z " /><path fill="rgb(238,246,251)" stroke="rgb(238,246,251)" stroke-width="1" opacity="1" d="M 215 294 Q 221.5 292.8 224 296.5 L 224 300.5 L 222 304.5 L 224 307.5 L 222 308 L 219.5 303 L 216 304.5 L 215.5 308 L 215 294 Z M 218 295 Q 215 297 216 302 Q 222 303 223 300 L 222 296 L 218 295 Z " /><path fill="rgb(238,246,251)" stroke="rgb(238,246,251)" stroke-width="1" opacity="1" d="M 227 294 L 234 294.5 Q 229.4 293.9 228 296.5 Q 225.3 304.3 232.5 302 L 232.5 303 Q 226.7 300.9 228 305.5 Q 229.4 308.1 234 307.5 L 227 308 L 227 294 Z " /><path fill="rgb(238,246,251)" stroke="rgb(238,246,251)" stroke-width="1" opacity="1" d="M 241.5 294 L 247 307.5 L 245 306.5 Q 245.5 303.5 238.5 305 L 236.5 308 L 236 305.5 L 241.5 294 Z M 242 298 L 239 302 L 239 304 L 244 304 L 242 298 Z " /><path fill="rgb(238,246,251)" stroke="rgb(238,246,251)" stroke-width="1" opacity="1" d="M 247.5 294 L 255 294.5 L 252 295 L 252 307.5 L 250 308 L 250 295.5 L 247.5 295 L 247.5 294 Z " /><path fill="rgb(238,246,251)" stroke="rgb(238,246,251)" stroke-width="1" opacity="1" d="M 257 294 L 264 294.5 L 259 295 L 259 302 L 263.5 302 L 263.5 303 Q 256.8 301 259 307 L 264 307.5 L 257 308 L 257 294 Z " /><path fill="rgb(238,246,251)" stroke="rgb(238,246,251)" stroke-width="1" opacity="1" d="M 282.5 294 Q 287.9 293.1 290 295.5 L 287.5 296 L 283.5 295 L 281 296 L 279 301.5 L 283.5 307 Q 288.1 307.6 289.5 305 L 287.5 308 L 282.5 308 L 278 303.5 L 278 298.5 L 282.5 294 Z " /><path fill="rgb(238,246,251)" stroke="rgb(238,246,251)" stroke-width="1" opacity="1" d="M 296.5 294 Q 303.8 292.8 305 297.5 L 306 302.5 L 302.5 307 L 296.5 308 L 292 304.5 Q 290.3 296.7 294.5 295 L 296.5 294 Z M 298 295 L 296 296 Q 292 297 293 304 L 298 307 L 302 306 Q 305 305 304 299 Q 302 295 298 295 Z " /><path fill="rgb(238,246,251)" stroke="rgb(238,246,251)" stroke-width="1" opacity="1" d="M 308.5 294 L 316.5 304 L 317 294 L 319 294.5 L 319 307.5 L 316 305.5 L 310.5 298 L 310 308 L 308 307.5 L 308.5 294 Z " /><path fill="rgb(238,246,251)" stroke="rgb(238,246,251)" stroke-width="1" opacity="1" d="M 322.5 294 L 330.5 304 L 331.5 294 L 332 306.5 L 328 303.5 L 325 298 L 323 298.5 L 323 307.5 L 322 307.5 L 322.5 294 Z " /><path fill="rgb(238,246,251)" stroke="rgb(238,246,251)" stroke-width="1" opacity="1" d="M 336 294 L 343 294.5 Q 338.4 293.9 337 296.5 Q 334.3 304.3 341.5 302 L 341.5 303 Q 335.6 300.9 337 305.5 Q 338.4 308.1 343 307.5 L 336 308 L 336 294 Z " /><path fill="rgb(238,246,251)" stroke="rgb(238,246,251)" stroke-width="1" opacity="1" d="M 349.5 294 Q 354.8 292.8 356 295.5 L 355.5 297 Q 354.8 294.3 350.5 295 L 347 297.5 L 346 302.5 L 348.5 306 L 352.5 307 L 355.5 305 L 356 306.5 Q 354.8 309.3 349.5 308 L 346 305.5 L 345 298.5 L 347.5 295 L 349.5 294 Z " /><path fill="rgb(238,246,251)" stroke="rgb(238,246,251)" stroke-width="1" opacity="1" d="M 358.5 294 L 367 294.5 L 363 295 L 362.5 308 L 362 296.5 L 360.5 295 Q 357.5 295.5 358.5 294 Z " /><path fill="rgb(238,246,251)" stroke="rgb(238,246,251)" stroke-width="1" opacity="1" d="M 190 306 Q 193 305 192 308 Q 189 309 190 306 Z " /><path fill="rgb(238,246,251)" stroke="rgb(238,246,251)" stroke-width="1" opacity="1" d="M 268 306 L 270 306.5 L 268 307.5 L 268 306 Z " /></svg>