<svg width="500" height="500" version="1.1" xmlns="http://www.w3.org/2000/svg" desc="Created with imagetracer.js version 1.2.6" ><path fill="rgb(20,41,58)" stroke="rgb(20,41,58)" stroke-width="1" opacity="1" d="M 179.5 127 Q 191.6 125.4 198.5 129 L 208.5 137 Q 213.4 130.9 221.5 128 Q 228.2 125.7 238.5 127 Q 248.4 129.6 254.5 136 Q 262.5 125 283.5 127 Q 293.7 129.8 300.5 136 Q 305.7 129.2 315.5 127 L 328.5 127 Q 340.8 129.7 347 138.5 L 353 150.5 L 353 164.5 Q 350.5 175 343.5 181 Q 335.5 189 319.5 189 Q 306.5 187 299.5 179 Q 292.2 189.2 274.5 189 L 265.5 187 L 254.5 179 L 240.5 188 L 228.5 189 Q 227.3 186.8 222.5 188 Q 214.2 185.3 209.5 179 L 207.5 179 Q 202.8 185.3 194.5 188 L 182.5 189 L 171.5 186 L 161 177.5 L 155 165.5 L 154 154.5 Q 156.7 139.2 167.5 132 L 179.5 127 Z M 185 128 Q 183 131 178 129 L 167 135 Q 158 141 156 154 L 156 162 L 161 175 L 172 184 L 181 187 Q 196 188 204 181 L 209 175 L 210 178 L 217 183 L 229 187 Q 247 187 255 176 Q 260 185 273 187 L 286 186 Q 294 184 298 178 L 292 164 L 292 152 L 298 138 L 288 130 L 278 128 L 267 130 Q 259 133 255 139 L 245 131 L 233 128 Q 216 129 209 140 Q 202 129 185 128 Z M 323 128 L 313 130 L 301 137 L 305 145 L 308 158 L 306 169 L 301 178 Q 307 185 319 187 Q 333 188 341 181 Q 350 174 352 161 L 351 151 L 347 142 L 339 133 L 330 129 Q 324 131 323 128 Z M 300 140 L 295 148 L 293 156 L 294 166 L 297 173 L 301 175 L 306 162 Q 307 147 300 140 Z " /><path fill="rgb(20,41,58)" stroke="rgb(20,41,58)" stroke-width="1" opacity="1" d="M 185.5 143 L 186 148.5 L 185 149.5 L 185 157.5 L 182.5 170 L 182 162.5 L 183 161.5 L 184 145.5 L 185.5 143 Z " /><path fill="rgb(20,41,58)" stroke="rgb(20,41,58)" stroke-width="1" opacity="1" d="M 232.5 143 L 233 150.5 L 232 151.5 L 231 168.5 L 229.5 171 L 229 165.5 L 230 164.5 L 231 147.5 L 232.5 143 Z " /><path fill="rgb(20,41,58)" stroke="rgb(20,41,58)" stroke-width="1" opacity="1" d="M 324.5 144 Q 325.5 151.5 330.5 155 L 337 157.5 L 331.5 160 L 327 164.5 L 324.5 171 L 318.5 161 L 311 157.5 Q 319.1 156.6 322 150.5 L 324.5 144 Z " /><path fill="rgb(20,41,58)" stroke="rgb(20,41,58)" stroke-width="1" opacity="1" d="M 192.5 149 L 195 150 L 197 158.5 L 193.5 167 L 192 166.5 L 195 158.5 L 192.5 149 Z " /><path fill="rgb(20,41,58)" stroke="rgb(20,41,58)" stroke-width="1" opacity="1" d="M 266.5 149 L 269 150.5 L 273 156.5 L 265.5 163 L 271 156.5 L 266.5 149 Z " /><path fill="rgb(20,41,58)" stroke="rgb(20,41,58)" stroke-width="1" opacity="1" d="M 174.5 150 L 176 150.5 L 173 158.5 L 176 167.5 L 174.5 168 L 171 158.5 L 174.5 150 Z " /><path fill="rgb(20,41,58)" stroke="rgb(20,41,58)" stroke-width="1" opacity="1" d="M 224.5 151 L 225 152.5 L 220 158.5 L 225 164.5 L 223.5 165 L 218 159.5 L 218 157.5 L 224.5 151 Z " /><path fill="rgb(20,41,58)" stroke="rgb(20,41,58)" stroke-width="1" opacity="1" d="M 238.5 151 L 245 158.5 L 237 165 L 238.5 162 L 243 158.5 L 238 152.5 L 238.5 151 Z " /><path fill="rgb(20,41,58)" stroke="rgb(20,41,58)" stroke-width="1" opacity="1" d="M 275 163 L 287.5 163 L 288 165 L 275.5 165 L 275 163 Z " /><path fill="rgb(42,77,105)" stroke="rgb(42,77,105)" stroke-width="1" opacity="1" d="M 0 0 L 500 0 L 500 500 L 0 500 L 0 0 Z M 180 127 L 168 132 Q 157 139 154 155 L 155 166 L 161 178 L 172 186 L 183 189 L 195 188 Q 203 185 208 179 L 210 179 Q 214 185 223 188 Q 227 187 229 189 L 241 188 L 255 179 L 266 187 L 275 189 Q 292 189 300 179 Q 306 187 320 189 Q 336 189 344 181 Q 350 175 353 165 L 353 151 L 347 139 Q 341 130 329 127 L 316 127 Q 306 129 301 136 Q 294 130 284 127 Q 262 125 255 136 Q 248 130 239 127 Q 228 126 222 128 Q 213 131 209 137 L 199 129 Q 192 125 180 127 Z M 137 208 L 130 211 Q 123 215 121 224 Q 120 234 124 239 Q 128 245 137 247 Q 152 248 157 240 L 151 235 L 145 239 Q 137 240 134 237 L 130 232 Q 129 223 132 220 L 138 216 Q 147 215 151 220 L 157 216 Q 152 207 137 208 Z M 176 208 L 167 212 L 160 223 Q 158 235 164 241 Q 168 246 176 247 L 184 247 L 192 244 L 197 239 L 200 229 L 199 221 L 197 217 Q 192 207 176 208 Z M 288 208 L 279 212 L 272 223 Q 270 235 276 241 Q 280 246 288 247 L 296 247 L 304 244 L 307 240 L 302 235 L 296 239 L 286 238 Q 281 235 280 229 L 282 221 L 288 216 Q 298 214 302 220 L 305 218 L 307 215 Q 302 206 288 208 Z M 363 208 L 345 245 L 346 246 L 354 246 L 355 243 L 357 241 L 370 241 L 371 245 L 373 246 L 380 246 L 379 241 L 364 210 Q 365 207 363 208 Z M 207 209 L 205 211 L 205 245 L 207 246 Q 222 248 231 243 L 237 235 Q 236 229 238 228 Q 236 226 237 221 L 235 217 L 227 210 Q 219 207 207 209 Z M 245 209 L 243 211 L 243 245 L 245 246 L 267 246 L 267 239 L 252 239 L 252 234 L 264 234 L 265 233 L 265 227 L 252 227 L 252 216 L 267 216 L 267 210 L 267 209 L 245 209 Z M 313 209 L 313 246 L 321 246 L 321 234 L 327 234 L 332 245 L 334 246 L 342 246 L 335 233 L 338 231 L 341 226 L 340 215 Q 337 210 332 209 L 313 209 Z M 385 209 L 385 246 L 393 246 L 393 234 L 405 234 L 406 233 L 406 227 L 395 227 L 393 226 L 393 218 L 395 216 L 408 216 Q 410 215 409 211 L 408 209 L 385 209 Z M 411 209 L 411 216 L 419 216 L 420 218 L 420 246 L 428 246 L 428 246 L 428 216 L 437 216 L 437 210 L 437 209 L 411 209 Z M 143 293 L 139 295 L 136 299 L 137 306 L 144 309 L 147 308 L 148 305 L 146 306 L 139 305 L 138 303 L 139 297 L 142 296 L 147 297 L 149 296 L 143 293 Z M 157 293 L 154 294 L 149 300 L 150 305 L 157 309 L 161 308 Q 166 306 164 298 Q 162 293 157 293 Z M 207 293 L 202 295 L 200 299 L 200 304 L 202 307 L 208 309 L 212 307 Q 214 308 213 305 L 206 306 L 202 302 L 206 296 L 211 297 Q 214 298 213 295 L 207 293 Z M 285 293 L 282 294 Q 276 296 278 305 L 285 309 L 289 308 L 290 305 L 288 306 Q 281 307 280 304 Q 279 297 283 296 Q 287 295 289 297 Q 291 298 290 296 L 285 293 Z M 298 293 L 293 295 L 291 299 L 291 304 L 293 307 L 299 309 L 304 307 L 306 304 L 305 297 L 298 293 Z M 352 293 L 349 294 L 344 300 L 345 305 L 352 309 L 356 307 Q 358 308 357 305 L 355 306 Q 348 307 347 304 Q 346 297 350 296 Q 354 295 356 297 Q 358 298 357 296 L 352 293 Z M 166 294 L 166 308 L 175 307 Q 179 305 177 298 Q 174 292 166 294 Z M 179 294 L 179 308 L 187 308 L 187 306 L 181 306 L 181 304 L 186 304 L 186 302 Q 182 303 181 301 L 181 296 L 187 296 L 187 294 L 179 294 Z M 214 294 L 214 308 L 217 308 Q 215 303 220 304 L 221 307 L 224 308 L 222 304 Q 225 302 224 297 L 222 294 L 214 294 Z M 226 294 L 226 308 L 234 308 L 234 306 L 229 306 L 229 304 Q 233 305 234 303 L 229 302 L 229 296 L 234 296 L 234 294 L 226 294 Z M 242 294 Q 237 299 236 307 L 236 308 Q 239 309 238 307 Q 239 304 244 305 L 245 308 L 248 308 L 242 294 Z M 246 294 L 246 296 L 250 297 L 250 308 L 252 308 L 252 296 L 256 295 L 246 294 Z M 257 294 L 257 308 L 265 308 L 265 306 L 259 306 L 259 304 L 264 304 L 264 302 L 259 302 L 259 296 L 265 296 L 265 294 L 257 294 Z M 308 294 L 308 308 L 310 308 L 311 299 L 317 307 Q 316 309 319 308 L 319 295 L 317 294 L 317 303 L 311 296 L 308 294 Z M 322 294 L 322 308 L 324 308 L 325 299 L 330 307 L 333 308 L 333 295 L 331 294 L 331 303 L 324 296 Q 325 293 322 294 Z M 335 294 L 335 308 L 343 308 L 343 306 L 338 306 L 338 304 Q 342 305 343 303 L 338 302 L 338 296 L 343 296 L 343 294 L 335 294 Z M 358 294 L 358 296 L 361 297 L 361 308 L 364 308 L 364 296 L 367 296 L 367 294 L 358 294 Z M 269 305 L 267 307 Q 266 309 270 308 L 269 305 Z M 370 305 L 368 307 Q 367 309 371 308 L 370 305 Z M 190 306 Q 189 309 192 308 Q 193 305 190 306 Z " /><path fill="rgb(42,77,105)" stroke="rgb(42,77,105)" stroke-width="1" opacity="1" d="M 184.5 128 L 187 128.5 L 184.5 129 L 184.5 128 Z " /><path fill="rgb(42,77,105)" stroke="rgb(42,77,105)" stroke-width="1" opacity="1" d="M 230.5 128 L 233 128.5 L 230.5 129 L 230.5 128 Z " /><path fill="rgb(42,77,105)" stroke="rgb(42,77,105)" stroke-width="1" opacity="1" d="M 294.5 134 L 297.5 138 L 294.5 134 Z " /><path fill="rgb(42,77,105)" stroke="rgb(42,77,105)" stroke-width="1" opacity="1" d="M 166.5 135 L 162.5 140 L 166.5 135 Z " /><path fill="rgb(42,77,105)" stroke="rgb(42,77,105)" stroke-width="1" opacity="1" d="M 250.5 135 Q 253.3 140.4 256 138.5 L 254.5 140 L 250.5 135 Z " /><path fill="rgb(42,77,105)" stroke="rgb(42,77,105)" stroke-width="1" opacity="1" d="M 299.5 140 L 298.5 142 L 299.5 140 Z " /><path fill="rgb(42,77,105)" stroke="rgb(42,77,105)" stroke-width="1" opacity="1" d="M 302.5 140 L 303.5 142 L 302.5 140 Z " /><path fill="rgb(42,77,105)" stroke="rgb(42,77,105)" stroke-width="1" opacity="1" d="M 345.5 140 L 346.5 142 L 345.5 140 Z " /><path fill="rgb(42,77,105)" stroke="rgb(42,77,105)" stroke-width="1" opacity="1" d="M 231.5 144 L 232 146.5 L 231 146.5 L 231.5 144 Z " /><path fill="rgb(42,77,105)" stroke="rgb(42,77,105)" stroke-width="1" opacity="1" d="M 233.5 144 L 234 146.5 L 233 146.5 L 233.5 144 Z " /><path fill="rgb(42,77,105)" stroke="rgb(42,77,105)" stroke-width="1" opacity="1" d="M 183.5 149 L 184 152.5 L 183 152.5 L 183.5 149 Z " /><path fill="rgb(42,77,105)" stroke="rgb(42,77,105)" stroke-width="1" opacity="1" d="M 185.5 149 L 186 152.5 L 185 152.5 L 185.5 149 Z " /><path fill="rgb(42,77,105)" stroke="rgb(42,77,105)" stroke-width="1" opacity="1" d="M 173.5 150 L 173 151.5 L 172.5 156 L 172 151.5 L 173.5 150 Z " /><path fill="rgb(42,77,105)" stroke="rgb(42,77,105)" stroke-width="1" opacity="1" d="M 195.5 151 L 196 153.5 L 195 153.5 L 195.5 151 Z " /><path fill="rgb(42,77,105)" stroke="rgb(42,77,105)" stroke-width="1" opacity="1" d="M 225.5 151 L 226 152.5 L 220 157.5 L 225.5 151 Z " /><path fill="rgb(42,77,105)" stroke="rgb(42,77,105)" stroke-width="1" opacity="1" d="M 232.5 151 L 233 154.5 L 232 154.5 L 232.5 151 Z " /><path fill="rgb(42,77,105)" stroke="rgb(42,77,105)" stroke-width="1" opacity="1" d="M 269.5 151 L 272.5 155 L 269.5 151 Z " /><path fill="rgb(42,77,105)" stroke="rgb(42,77,105)" stroke-width="1" opacity="1" d="M 230.5 152 L 231 155.5 L 230 155.5 L 230.5 152 Z " /><path fill="rgb(42,77,105)" stroke="rgb(42,77,105)" stroke-width="1" opacity="1" d="M 237.5 152 L 239.5 155 L 237.5 152 Z " /><path fill="rgb(42,77,105)" stroke="rgb(42,77,105)" stroke-width="1" opacity="1" d="M 307.5 152 L 308 156.5 L 307 156.5 L 307.5 152 Z " /><path fill="rgb(42,77,105)" stroke="rgb(42,77,105)" stroke-width="1" opacity="1" d="M 328.5 152 L 330.5 155 L 328.5 152 Z " /><path fill="rgb(42,77,105)" stroke="rgb(42,77,105)" stroke-width="1" opacity="1" d="M 156.5 153 L 157 161.5 L 156 161.5 L 156.5 153 Z " /><path fill="rgb(42,77,105)" stroke="rgb(42,77,105)" stroke-width="1" opacity="1" d="M 193.5 153 L 194 156.5 L 193 156.5 L 193.5 153 Z " /><path fill="rgb(42,77,105)" stroke="rgb(42,77,105)" stroke-width="1" opacity="1" d="M 305.5 153 L 306 161.5 L 305 161.5 L 305.5 153 Z " /><path fill="rgb(42,77,105)" stroke="rgb(42,77,105)" stroke-width="1" opacity="1" d="M 242.5 155 L 244.5 158 L 242.5 155 Z " /><path fill="rgb(42,77,105)" stroke="rgb(42,77,105)" stroke-width="1" opacity="1" d="M 270.5 155 L 271 156.5 L 265 161.5 L 270.5 155 Z " /><path fill="rgb(42,77,105)" stroke="rgb(42,77,105)" stroke-width="1" opacity="1" d="M 293.5 155 L 294 159.5 L 293 159.5 L 293.5 155 Z " /><path fill="rgb(42,77,105)" stroke="rgb(42,77,105)" stroke-width="1" opacity="1" d="M 291.5 156 L 292 158.5 L 291 158.5 L 291.5 156 Z " /><path fill="rgb(42,77,105)" stroke="rgb(42,77,105)" stroke-width="1" opacity="1" d="M 351.5 156 L 352 160.5 L 351 160.5 L 351.5 156 Z " /><path fill="rgb(42,77,105)" stroke="rgb(42,77,105)" stroke-width="1" opacity="1" d="M 171.5 157 L 171 158.5 L 170.5 160 L 170 158.5 L 171.5 157 Z " /><path fill="rgb(42,77,105)" stroke="rgb(42,77,105)" stroke-width="1" opacity="1" d="M 197.5 157 L 198 158.5 L 196 159.5 L 197.5 157 Z " /><path fill="rgb(42,77,105)" stroke="rgb(42,77,105)" stroke-width="1" opacity="1" d="M 272.5 157 L 271.5 159 L 272.5 157 Z " /><path fill="rgb(42,77,105)" stroke="rgb(42,77,105)" stroke-width="1" opacity="1" d="M 337.5 157 L 336.5 159 L 337.5 157 Z " /><path fill="rgb(42,77,105)" stroke="rgb(42,77,105)" stroke-width="1" opacity="1" d="M 182.5 158 L 183 161.5 L 182 161.5 L 182.5 158 Z " /><path fill="rgb(42,77,105)" stroke="rgb(42,77,105)" stroke-width="1" opacity="1" d="M 184.5 158 L 185 161.5 L 184 161.5 L 184.5 158 Z " /><path fill="rgb(42,77,105)" stroke="rgb(42,77,105)" stroke-width="1" opacity="1" d="M 242.5 158 L 239.5 162 L 242.5 158 Z " /><path fill="rgb(42,77,105)" stroke="rgb(42,77,105)" stroke-width="1" opacity="1" d="M 307.5 159 L 308 162.5 L 307 162.5 L 307.5 159 Z " /><path fill="rgb(42,77,105)" stroke="rgb(42,77,105)" stroke-width="1" opacity="1" d="M 193.5 160 L 194 163.5 L 193 163.5 L 193.5 160 Z " /><path fill="rgb(42,77,105)" stroke="rgb(42,77,105)" stroke-width="1" opacity="1" d="M 231.5 160 L 232 163.5 L 231 163.5 L 231.5 160 Z " /><path fill="rgb(42,77,105)" stroke="rgb(42,77,105)" stroke-width="1" opacity="1" d="M 172.5 161 L 173 165.5 L 172 165.5 L 172.5 161 Z " /><path fill="rgb(42,77,105)" stroke="rgb(42,77,105)" stroke-width="1" opacity="1" d="M 222.5 161 L 224.5 164 L 222.5 161 Z " /><path fill="rgb(42,77,105)" stroke="rgb(42,77,105)" stroke-width="1" opacity="1" d="M 229.5 161 L 230 164.5 L 229 164.5 L 229.5 161 Z " /><path fill="rgb(42,77,105)" stroke="rgb(42,77,105)" stroke-width="1" opacity="1" d="M 318.5 161 L 320.5 164 L 318.5 161 Z " /><path fill="rgb(42,77,105)" stroke="rgb(42,77,105)" stroke-width="1" opacity="1" d="M 221.5 163 L 223.5 166 L 221.5 163 Z " /><path fill="rgb(42,77,105)" stroke="rgb(42,77,105)" stroke-width="1" opacity="1" d="M 236.5 164 L 237.5 166 L 236.5 164 Z " /><path fill="rgb(42,77,105)" stroke="rgb(42,77,105)" stroke-width="1" opacity="1" d="M 183.5 166 L 184 169.5 Q 182.5 172.5 181 169.5 L 181.5 167 L 182.5 170 L 183.5 166 Z " /><path fill="rgb(42,77,105)" stroke="rgb(42,77,105)" stroke-width="1" opacity="1" d="M 194.5 166 L 193.5 168 L 192 167.5 L 194.5 166 Z " /><path fill="rgb(42,77,105)" stroke="rgb(42,77,105)" stroke-width="1" opacity="1" d="M 161.5 174 L 163.5 177 L 161.5 174 Z " /><path fill="rgb(42,77,105)" stroke="rgb(42,77,105)" stroke-width="1" opacity="1" d="M 207.5 176 L 203.5 181 L 207.5 176 Z " /><path fill="rgb(42,77,105)" stroke="rgb(42,77,105)" stroke-width="1" opacity="1" d="M 253.5 176 L 249.5 181 L 253.5 176 Z " /><path fill="rgb(42,77,105)" stroke="rgb(42,77,105)" stroke-width="1" opacity="1" d="M 301.5 176 L 305 180.5 L 301 177.5 L 301.5 176 Z " /><path fill="rgb(42,77,105)" stroke="rgb(42,77,105)" stroke-width="1" opacity="1" d="M 344.5 176 L 340.5 181 L 344.5 176 Z " /><path fill="rgb(42,77,105)" stroke="rgb(42,77,105)" stroke-width="1" opacity="1" d="M 210.5 177 L 212.5 180 L 210.5 177 Z " /><path fill="rgb(42,77,105)" stroke="rgb(42,77,105)" stroke-width="1" opacity="1" d="M 166.5 179 L 168.5 182 L 166.5 179 Z " /><path fill="rgb(42,77,105)" stroke="rgb(42,77,105)" stroke-width="1" opacity="1" d="M 294.5 180 L 293.5 182 L 294.5 180 Z " /><path fill="rgb(42,77,105)" stroke="rgb(42,77,105)" stroke-width="1" opacity="1" d="M 170.5 182 L 171.5 184 L 170.5 182 Z " /><path fill="rgb(42,77,105)" stroke="rgb(42,77,105)" stroke-width="1" opacity="1" d="M 180.5 186 L 189 186.5 L 180.5 187 L 180.5 186 Z " /><path fill="rgb(42,77,105)" stroke="rgb(42,77,105)" stroke-width="1" opacity="1" d="M 228.5 186 L 235 186.5 L 228.5 187 L 228.5 186 Z " /><path fill="rgb(42,77,105)" stroke="rgb(42,77,105)" stroke-width="1" opacity="1" d="M 272.5 186 L 282 186.5 L 272.5 187 L 272.5 186 Z " /><path fill="rgb(42,77,105)" stroke="rgb(42,77,105)" stroke-width="1" opacity="1" d="M 318.5 186 L 327 186.5 L 318.5 187 L 318.5 186 Z " /><path fill="rgb(42,77,105)" stroke="rgb(42,77,105)" stroke-width="1" opacity="1" d="M 175.5 216 Q 187.3 214.2 190 221.5 Q 192.3 224.7 191 231.5 L 185.5 238 L 176.5 239 L 170 234.5 L 168 226.5 Q 168.9 219.9 173.5 217 L 175.5 216 Z " /><path fill="rgb(42,77,105)" stroke="rgb(42,77,105)" stroke-width="1" opacity="1" d="M 214 216 L 223.5 217 L 228 221.5 Q 230.3 224.7 229 231.5 L 224.5 237 Q 220.6 239.9 214 239 L 214 216 Z " /><path fill="rgb(42,77,105)" stroke="rgb(42,77,105)" stroke-width="1" opacity="1" d="M 321 216 Q 329 214.3 332 218.5 L 333 221.5 L 332 225 Q 328.6 227.1 321 226 L 321 216 Z " /><path fill="rgb(42,77,105)" stroke="rgb(42,77,105)" stroke-width="1" opacity="1" d="M 362.5 224 L 367 235 L 359 235 L 359 232.5 L 362.5 224 Z " /><path fill="rgb(42,77,105)" stroke="rgb(42,77,105)" stroke-width="1" opacity="1" d="M 154.5 296 Q 160.8 294.8 162 298.5 Q 162.8 304.3 159.5 306 Q 153.3 307.3 152 303.5 Q 150.8 297.3 154.5 296 Z " /><path fill="rgb(42,77,105)" stroke="rgb(42,77,105)" stroke-width="1" opacity="1" d="M 168 296 Q 173.5 294.8 175 298.5 Q 176.3 304.8 172.5 306 L 168 306 L 168 296 Z " /><path fill="rgb(42,77,105)" stroke="rgb(42,77,105)" stroke-width="1" opacity="1" d="M 217 296 Q 220.8 295 222 297.5 Q 223.5 301.9 220.5 301 L 217 302 L 217 296 Z " /><path fill="rgb(42,77,105)" stroke="rgb(42,77,105)" stroke-width="1" opacity="1" d="M 296.5 296 L 303 297 L 304 302.5 L 303 305 L 296.5 306 L 293 300.5 L 296.5 296 Z " /><path fill="rgb(42,77,105)" stroke="rgb(42,77,105)" stroke-width="1" opacity="1" d="M 241.5 298 L 243 303 Q 238.9 304.7 240 300.5 L 241.5 298 Z " /><path fill="rgb(151,190,198)" stroke="rgb(151,190,198)" stroke-width="1" opacity="1" d="M 179.5 129 L 194.5 130 Q 203.2 133.3 208.5 140 Q 213.8 133.3 222.5 130 L 236.5 129 Q 248.7 131.3 254.5 140 L 258.5 135 Q 266.1 127.6 282.5 129 Q 292.9 131.1 298 138.5 L 293 146.5 L 291 158.5 L 293 168.5 L 298 177.5 Q 292.9 183.9 283.5 186 L 269.5 186 Q 259.7 182.8 253.5 176 Q 246.5 188 225.5 186 Q 214 183.5 208.5 175 Q 201.3 188.3 178.5 186 Q 169.1 183.9 164 177.5 L 157 164.5 L 157 150.5 Q 160.1 139.6 168.5 134 L 179.5 129 Z M 184 143 L 182 167 L 181 168 L 183 171 L 184 170 L 185 154 L 186 153 L 186 144 L 184 143 Z M 233 143 L 231 145 L 230 161 L 228 170 L 231 171 L 233 148 L 234 147 L 233 143 Z M 176 149 L 174 150 Q 171 151 172 157 L 170 159 L 170 160 L 172 161 L 172 166 L 176 168 Q 174 166 175 161 L 173 159 L 175 157 L 176 152 L 176 149 Z M 192 149 L 194 158 L 192 167 Q 191 169 194 168 Q 197 166 196 161 L 198 159 L 198 157 L 196 157 L 196 152 L 192 149 Z M 266 149 L 270 155 L 270 157 L 265 163 L 272 159 Q 274 158 273 155 L 266 149 Z M 225 151 L 217 159 L 224 166 L 225 164 L 220 159 L 226 153 Q 227 150 225 151 Z M 239 151 L 237 153 L 242 158 L 236 165 L 238 166 L 245 159 L 239 151 Z M 275 163 L 276 165 L 289 165 L 289 163 L 275 163 Z " /><path fill="rgb(151,190,198)" stroke="rgb(151,190,198)" stroke-width="1" opacity="1" d="M 317.5 129 Q 326.4 127.6 331.5 130 Q 340.2 132.8 345 139.5 Q 352.4 147.1 351 163.5 Q 348.1 176.1 338.5 182 Q 331.2 188.2 315.5 186 Q 306.6 183.9 302 177.5 L 308 162.5 L 308 152.5 Q 306.5 143.5 301 138.5 Q 306.5 131 317.5 129 Z M 325 144 L 321 152 Q 318 157 310 158 L 317 160 L 322 166 L 325 172 L 328 164 L 338 158 L 332 155 Q 326 152 325 144 Z " /><path fill="rgb(151,190,198)" stroke="rgb(151,190,198)" stroke-width="1" opacity="1" d="M 299.5 141 Q 301.8 140.3 301 142.5 Q 307.3 149.2 305 164.5 L 299.5 175 L 294 163.5 L 294 152.5 L 299.5 141 Z " /><path fill="rgb(151,190,198)" stroke="rgb(151,190,198)" stroke-width="1" opacity="1" d="M 136.5 208 Q 151.7 206.8 157 215.5 L 150.5 220 Q 147.4 214.6 137.5 216 L 132 219.5 Q 128.7 223.2 130 231.5 L 133.5 237 Q 136.8 240.2 144.5 239 L 150.5 235 L 157 239.5 Q 151.7 248.2 136.5 247 Q 128.2 244.9 124 238.5 Q 119.8 233.7 121 223.5 Q 123.2 215.2 129.5 211 L 136.5 208 Z " /><path fill="rgb(151,190,198)" stroke="rgb(151,190,198)" stroke-width="1" opacity="1" d="M 175.5 208 Q 191.7 206.8 197 216.5 L 199 220.5 L 200 228.5 L 197 238.5 L 191.5 244 L 183.5 247 L 175.5 247 Q 167.9 245.5 164 240.5 Q 158.3 235.2 160 222.5 L 166.5 212 L 175.5 208 Z M 176 216 L 174 217 Q 169 220 168 227 L 170 235 L 177 239 L 186 238 L 191 232 Q 192 225 190 222 Q 187 214 176 216 Z " /><path fill="rgb(151,190,198)" stroke="rgb(151,190,198)" stroke-width="1" opacity="1" d="M 287.5 208 Q 302.2 206.3 307 214.5 L 304.5 218 L 301.5 220 Q 298.1 214.4 287.5 216 L 282 220.5 L 280 228.5 Q 280.9 235.1 285.5 238 L 295.5 239 L 301.5 235 L 307 239.5 L 303.5 244 L 295.5 247 L 287.5 247 Q 279.9 245.5 276 240.5 Q 270.3 235.2 272 222.5 L 278.5 212 L 287.5 208 Z " /><path fill="rgb(151,190,198)" stroke="rgb(151,190,198)" stroke-width="1" opacity="1" d="M 362.5 208 Q 364.8 207.3 364 209.5 L 379 240.5 L 380 246 L 372.5 246 L 371 244.5 L 370 241 L 356.5 241 L 355 242.5 L 354 246 L 345.5 246 L 345 244.5 L 362.5 208 Z M 363 224 L 359 233 L 359 235 L 367 235 L 363 224 Z " /><path fill="rgb(151,190,198)" stroke="rgb(151,190,198)" stroke-width="1" opacity="1" d="M 206.5 209 Q 218.6 207.4 226.5 210 L 235 216.5 L 237 220.5 Q 235.5 226 238 227.5 Q 235.5 229 237 234.5 L 230.5 243 Q 222.2 248.2 206.5 246 L 205 244.5 L 205 210.5 L 206.5 209 Z M 214 216 L 214 239 Q 221 240 225 237 L 229 232 Q 230 225 228 222 L 224 217 L 214 216 Z " /><path fill="rgb(151,190,198)" stroke="rgb(151,190,198)" stroke-width="1" opacity="1" d="M 244.5 209 L 266.5 209 L 267 209.5 L 267 216 L 252 216 L 252 227 L 265 227 L 265 232.5 L 263.5 234 L 252 234 L 252 239 L 267 239 L 267 246 L 244.5 246 L 243 244.5 L 243 210.5 L 244.5 209 Z " /><path fill="rgb(151,190,198)" stroke="rgb(151,190,198)" stroke-width="1" opacity="1" d="M 313 209 L 331.5 209 Q 337.3 210.3 340 214.5 L 341 225.5 L 337.5 231 L 335 232.5 L 342 246 L 333.5 246 L 332 244.5 L 326.5 234 L 321 234 L 321 246 L 313 246 L 313 209 Z M 321 216 L 321 226 Q 329 227 332 225 L 333 222 L 332 219 Q 329 214 321 216 Z " /><path fill="rgb(151,190,198)" stroke="rgb(151,190,198)" stroke-width="1" opacity="1" d="M 385 209 L 407.5 209 L 409 210.5 Q 410 215 407.5 216 L 394.5 216 L 393 217.5 L 393 225.5 L 394.5 227 L 406 227 L 406 232.5 L 404.5 234 L 393 234 L 393 246 L 385 246 L 385 209 Z " /><path fill="rgb(151,190,198)" stroke="rgb(151,190,198)" stroke-width="1" opacity="1" d="M 411 209 L 436.5 209 L 437 209.5 L 437 216 L 428 216 L 428 245.5 L 427.5 246 L 420 246 L 420 217.5 L 418.5 216 L 411 216 L 411 209 Z " /><path fill="rgb(151,190,198)" stroke="rgb(151,190,198)" stroke-width="1" opacity="1" d="M 142.5 293 L 149 295.5 L 146.5 297 L 141.5 296 L 139 297 L 138 302.5 L 139 305 L 145.5 306 L 148 305 L 146.5 308 L 143.5 309 L 137 305.5 L 136 298.5 L 138.5 295 L 142.5 293 Z " /><path fill="rgb(151,190,198)" stroke="rgb(151,190,198)" stroke-width="1" opacity="1" d="M 156.5 293 Q 162.1 293.5 164 297.5 Q 165.8 306.3 160.5 308 L 156.5 309 L 150 304.5 L 149 299.5 L 153.5 294 L 156.5 293 Z M 155 296 Q 151 297 152 304 Q 153 307 160 306 Q 163 304 162 299 Q 161 295 155 296 Z " /><path fill="rgb(151,190,198)" stroke="rgb(151,190,198)" stroke-width="1" opacity="1" d="M 206.5 293 L 213 295 Q 214.3 298 210.5 297 L 205.5 296 L 202 301.5 L 205.5 306 L 213 305 Q 214.1 307.7 211.5 307 L 207.5 309 L 202 307 L 200 303.5 L 200 298.5 L 202 295 L 206.5 293 Z " /><path fill="rgb(151,190,198)" stroke="rgb(151,190,198)" stroke-width="1" opacity="1" d="M 284.5 293 L 290 295.5 Q 290.8 297.8 288.5 297 Q 287.3 294.8 282.5 296 Q 278.8 297.3 280 303.5 Q 281.3 307.3 287.5 306 L 290 305 L 288.5 308 L 284.5 309 L 278 304.5 Q 276.3 295.8 281.5 294 L 284.5 293 Z " /><path fill="rgb(151,190,198)" stroke="rgb(151,190,198)" stroke-width="1" opacity="1" d="M 297.5 293 L 305 296.5 L 306 303.5 L 303.5 307 L 298.5 309 L 293 307 L 291 303.5 L 291 298.5 L 293 295 L 297.5 293 Z M 297 296 L 293 301 L 297 306 L 303 305 L 304 303 L 303 297 L 297 296 Z " /><path fill="rgb(151,190,198)" stroke="rgb(151,190,198)" stroke-width="1" opacity="1" d="M 351.5 293 L 357 295.5 Q 357.8 297.8 355.5 297 Q 354.3 294.8 349.5 296 Q 345.8 297.3 347 303.5 Q 348.3 307.3 354.5 306 L 357 305 Q 358.1 307.7 355.5 307 L 351.5 309 L 345 304.5 L 344 299.5 L 348.5 294 L 351.5 293 Z " /><path fill="rgb(151,190,198)" stroke="rgb(151,190,198)" stroke-width="1" opacity="1" d="M 166 294 Q 174.2 292.5 177 297.5 Q 178.7 305.3 174.5 307 L 166 308 L 166 294 Z M 168 296 L 168 306 L 173 306 Q 176 305 175 299 Q 174 295 168 296 Z " /><path fill="rgb(151,190,198)" stroke="rgb(151,190,198)" stroke-width="1" opacity="1" d="M 179 294 L 186.5 294 L 187 296 L 181 296 L 181 300.5 Q 182.2 303 186 302 L 186 304 L 181 304 L 181 306 L 187 306 L 187 308 L 179 308 L 179 294 Z " /><path fill="rgb(151,190,198)" stroke="rgb(151,190,198)" stroke-width="1" opacity="1" d="M 214 294 L 221.5 294 L 224 296.5 Q 225.3 302.3 222 303.5 L 224 308 L 221 306.5 L 219.5 304 Q 214.9 302.8 217 308 L 214 308 L 214 294 Z M 217 296 L 217 302 L 221 301 Q 223 302 222 298 Q 221 295 217 296 Z " /><path fill="rgb(151,190,198)" stroke="rgb(151,190,198)" stroke-width="1" opacity="1" d="M 226 294 L 233.5 294 L 234 296 L 229 296 L 229 302 L 234 302.5 Q 232.8 305 229 304 L 229 306 L 234 306 L 234 308 L 226 308 L 226 294 Z " /><path fill="rgb(151,190,198)" stroke="rgb(151,190,198)" stroke-width="1" opacity="1" d="M 241.5 294 L 248 307.5 L 245 308 L 243.5 305 Q 239 304 238 306.5 Q 238.8 309.1 235.5 308 L 236 306.5 Q 237.3 298.8 241.5 294 Z M 242 298 L 240 301 Q 239 305 243 303 L 242 298 Z " /><path fill="rgb(151,190,198)" stroke="rgb(151,190,198)" stroke-width="1" opacity="1" d="M 246 294 L 256 294.5 L 252 296 L 252 307.5 L 250 308 L 250 296.5 L 246 296 L 246 294 Z " /><path fill="rgb(151,190,198)" stroke="rgb(151,190,198)" stroke-width="1" opacity="1" d="M 257 294 L 264.5 294 L 265 296 L 259 296 L 259 302 L 264 302 L 264 304 L 259 304 L 259 306 L 265 306 L 265 308 L 257 308 L 257 294 Z " /><path fill="rgb(151,190,198)" stroke="rgb(151,190,198)" stroke-width="1" opacity="1" d="M 308 294 L 311 295.5 L 316.5 303 L 317 294 L 319 294.5 L 319 308 Q 316.3 309.1 317 306.5 L 310.5 299 L 310 308 L 308 307.5 L 308 294 Z " /><path fill="rgb(151,190,198)" stroke="rgb(151,190,198)" stroke-width="1" opacity="1" d="M 322 294 Q 324.7 292.9 324 295.5 L 330.5 303 L 331 294 L 333 294.5 L 333 308 L 330 306.5 L 324.5 299 L 324 308 L 322 307.5 L 322 294 Z " /><path fill="rgb(151,190,198)" stroke="rgb(151,190,198)" stroke-width="1" opacity="1" d="M 335 294 L 342.5 294 L 343 296 L 338 296 L 338 302 L 343 302.5 Q 341.8 305 338 304 L 338 306 L 343 306 L 343 308 L 335 308 L 335 294 Z " /><path fill="rgb(151,190,198)" stroke="rgb(151,190,198)" stroke-width="1" opacity="1" d="M 358 294 L 366.5 294 L 367 296 L 364 296 L 364 307.5 L 361 308 L 361 296.5 L 358 296 L 358 294 Z " /><path fill="rgb(151,190,198)" stroke="rgb(151,190,198)" stroke-width="1" opacity="1" d="M 268.5 305 L 270 308 Q 266.3 309.5 267 306.5 L 268.5 305 Z " /><path fill="rgb(151,190,198)" stroke="rgb(151,190,198)" stroke-width="1" opacity="1" d="M 369.5 305 L 371 308 Q 367.3 309.5 368 306.5 L 369.5 305 Z " /><path fill="rgb(151,190,198)" stroke="rgb(151,190,198)" stroke-width="1" opacity="1" d="M 190 306 Q 193 305 192 308 Q 189 309 190 306 Z " /></svg>