<?xml version="1.0" encoding="UTF-8"?>
<svg version="1.1" xmlns="http://www.w3.org/2000/svg" width="500" height="500">
<path d="M0 0 C165 0 330 0 500 0 C500 165 500 330 500 500 C335 500 170 500 0 500 C0 335 0 170 0 0 Z " fill="#004D40" transform="translate(0,0)"/>
<path d="M0 0 C1.34114365 0.00598206 1.34114365 0.00598206 2.7093811 0.01208496 C20.95245774 0.10741182 38.23680579 1.44591083 55.625 7.375 C56.33833496 7.61734375 57.05166992 7.8596875 57.78662109 8.109375 C92.51975189 20.04546038 124.11967702 39.85280826 146.625 69.375 C147.76582031 70.74011719 147.76582031 70.74011719 148.9296875 72.1328125 C167.57419368 94.94701654 179.33562503 123.54500019 184.625 152.375 C184.79636475 153.24761475 184.96772949 154.12022949 185.14428711 155.01928711 C186.92115551 164.99147534 186.98340417 174.84303249 186.9375 184.9375 C186.93327026 186.27400604 186.93327026 186.27400604 186.92895508 187.63751221 C186.73780177 227.76798442 174.32545368 267.94898461 148.625 299.375 C148.21169434 299.88836914 147.79838867 300.40173828 147.37255859 300.93066406 C136.49639006 314.40418762 124.52517276 326.05326195 110.625 336.375 C109.40103516 337.30892578 109.40103516 337.30892578 108.15234375 338.26171875 C77.00021744 361.18498151 38.39229584 371.59171502 0.1875 371.625 C-0.61424652 371.62600708 -1.41599304 371.62701416 -2.24203491 371.62805176 C-14.21376275 371.61787948 -25.67300285 371.10350587 -37.375 368.375 C-38.62667969 368.0965625 -39.87835938 367.818125 -41.16796875 367.53125 C-70.47111845 360.36757168 -98.01269969 346.65992815 -120.375 326.375 C-121.27734375 325.5809375 -122.1796875 324.786875 -123.109375 323.96875 C-125.56020059 321.80014069 -127.975495 319.60014651 -130.375 317.375 C-131.03757813 316.7665625 -131.70015625 316.158125 -132.3828125 315.53125 C-165.11527815 284.2565055 -183.54605861 236.92650891 -184.69140625 192.23828125 C-185.00732745 176.4058293 -185.23671162 160.73561662 -180.93066406 145.36572266 C-180.37982485 143.39228553 -179.8972078 141.41262275 -179.4296875 139.41796875 C-172.34776992 110.52493526 -157.58102691 83.44199454 -137.4296875 61.6171875 C-135.65810243 59.68393687 -133.97717659 57.71210666 -132.3125 55.6875 C-129.01594786 51.82505471 -125.25663275 48.6337356 -121.375 45.375 C-120.0446875 44.21291016 -120.0446875 44.21291016 -118.6875 43.02734375 C-111.33933957 36.70518976 -103.6817875 31.36038444 -95.375 26.375 C-94.4471167 25.81232422 -94.4471167 25.81232422 -93.50048828 25.23828125 C-79.72386709 16.95180445 -65.30267029 10.6051318 -49.875 6.0625 C-49.10647705 5.83216064 -48.3379541 5.60182129 -47.54614258 5.36450195 C-31.89724234 1.00825993 -16.16845648 -0.14707339 0 0 Z " fill="#004D40" transform="translate(268.375,44.625)"/>
<path d="M0 0 C3.51716944 2.21924649 6.82422248 4.65793476 10.04296875 7.2890625 C10.66171875 6.70898438 10.66171875 6.70898438 11.29296875 6.1171875 C19.10676221 -0.92917982 24.90635897 -3.43034839 35.6328125 -3.09765625 C43.24630953 -2.23426999 48.51423731 1.18561809 54.04296875 6.2890625 C58.10062227 4.34025907 61.87250591 1.984881 65.703125 -0.37109375 C71.6946273 -3.801954 78.34546887 -3.44745599 85.04296875 -2.7109375 C90.04904173 -1.00520564 95.23746727 0.9151624 98.51953125 5.23046875 C99.04296875 7.2890625 99.04296875 7.2890625 98.14453125 9.26953125 C97.65726563 9.99785156 97.17 10.72617188 96.66796875 11.4765625 C92.86803537 18.52314225 92.74594581 26.48168337 94.04296875 34.2890625 C95.16453397 37.2495577 96.38865599 39.6840712 98.14453125 42.30859375 C99.04296875 44.2890625 99.04296875 44.2890625 98.36328125 46.41796875 C95.16936744 50.94425489 90.20589292 52.85866853 85.04296875 54.2890625 C75.88242384 55.1908778 67.53227897 55.33877991 60.04296875 49.2890625 C57.48046875 46.9765625 57.48046875 46.9765625 56.04296875 45.2890625 C53.60747532 46.37150402 51.82715914 47.47489855 49.79296875 49.2265625 C42.00646877 55.06643748 33.50512693 55.37771941 24.04296875 54.2890625 C18.19458544 52.27609204 13.59704554 48.37605449 9.04296875 44.2890625 C8.55828125 44.75957031 8.07359375 45.23007813 7.57421875 45.71484375 C-0.74469096 53.44183104 -6.98606172 54.88251713 -18.38671875 54.64453125 C-23.04433427 54.18080804 -26.18423551 52.98661145 -29.95703125 50.2890625 C-30.82328125 49.7528125 -31.68953125 49.2165625 -32.58203125 48.6640625 C-40.07702528 41.16906847 -42.30906245 33.3952962 -42.33764648 23.07397461 C-42.15854175 15.62987791 -39.87606676 11.38269453 -34.8671875 6.07421875 C-25.16371997 -3.09846082 -12.39815985 -6.46658244 0 0 Z " fill="#AAB2BA" transform="translate(198.95703125,131.7109375)"/>
<path d="M0 0 C1.34114365 0.00598206 1.34114365 0.00598206 2.7093811 0.01208496 C20.95245774 0.10741182 38.23680579 1.44591083 55.625 7.375 C56.33833496 7.61734375 57.05166992 7.8596875 57.78662109 8.109375 C92.51975189 20.04546038 124.11967702 39.85280826 146.625 69.375 C147.76582031 70.74011719 147.76582031 70.74011719 148.9296875 72.1328125 C167.57419368 94.94701654 179.33562503 123.54500019 184.625 152.375 C184.79636475 153.24761475 184.96772949 154.12022949 185.14428711 155.01928711 C186.92115551 164.99147534 186.98340417 174.84303249 186.9375 184.9375 C186.93327026 186.27400604 186.93327026 186.27400604 186.92895508 187.63751221 C186.73780177 227.76798442 174.32545368 267.94898461 148.625 299.375 C148.21169434 299.88836914 147.79838867 300.40173828 147.37255859 300.93066406 C136.49639006 314.40418762 124.52517276 326.05326195 110.625 336.375 C109.40103516 337.30892578 109.40103516 337.30892578 108.15234375 338.26171875 C77.00021744 361.18498151 38.39229584 371.59171502 0.1875 371.625 C-0.61424652 371.62600708 -1.41599304 371.62701416 -2.24203491 371.62805176 C-14.21376275 371.61787948 -25.67300285 371.10350587 -37.375 368.375 C-38.62667969 368.0965625 -39.87835938 367.818125 -41.16796875 367.53125 C-70.47111845 360.36757168 -98.01269969 346.65992815 -120.375 326.375 C-121.27734375 325.5809375 -122.1796875 324.786875 -123.109375 323.96875 C-125.56020059 321.80014069 -127.975495 319.60014651 -130.375 317.375 C-131.03757813 316.7665625 -131.70015625 316.158125 -132.3828125 315.53125 C-165.11527815 284.2565055 -183.54605861 236.92650891 -184.69140625 192.23828125 C-185.00732745 176.4058293 -185.23671162 160.73561662 -180.93066406 145.36572266 C-180.37982485 143.39228553 -179.8972078 141.41262275 -179.4296875 139.41796875 C-172.34776992 110.52493526 -157.58102691 83.44199454 -137.4296875 61.6171875 C-135.65810243 59.68393687 -133.97717659 57.71210666 -132.3125 55.6875 C-129.01594786 51.82505471 -125.25663275 48.6337356 -121.375 45.375 C-120.0446875 44.21291016 -120.0446875 44.21291016 -118.6875 43.02734375 C-111.33933957 36.70518976 -103.6817875 31.36038444 -95.375 26.375 C-94.4471167 25.81232422 -94.4471167 25.81232422 -93.50048828 25.23828125 C-79.72386709 16.95180445 -65.30267029 10.6051318 -49.875 6.0625 C-49.10647705 5.83216064 -48.3379541 5.60182129 -47.54614258 5.36450195 C-31.89724234 1.00825993 -16.16845648 -0.14707339 0 0 Z M-122.1171875 50.30859375 C-124.13344722 52.15392488 -126.20385946 53.88771923 -128.3125 55.625 C-157.16284741 80.87631011 -173.99512276 120.44524826 -180.375 157.375 C-180.551521 158.26050537 -180.72804199 159.14601074 -180.90991211 160.05834961 C-181.50619221 164.31056229 -181.55683814 168.48060664 -181.578125 172.76953125 C-181.58382507 173.67515305 -181.58952515 174.58077484 -181.59539795 175.51383972 C-181.6048214 177.43100834 -181.61137135 179.34819297 -181.61523438 181.26538086 C-181.62484165 184.14011682 -181.65584887 187.0141064 -181.6875 189.88867188 C-181.75350337 201.42704531 -180.81924956 212.08898807 -178.375 223.375 C-178.08031791 224.8308717 -177.78736681 226.28709478 -177.49609375 227.74365234 C-168.16132658 273.75509424 -137.21268942 313.65688288 -98.9375 339.5625 C-68.04448478 359.88716484 -34.58141532 368.51705306 2.0625 368.5625 C2.7986554 368.56367828 3.53481079 368.56485657 4.29327393 368.56607056 C16.29395442 368.56389622 27.85892936 368.10870571 39.5625 365.25 C40.45783447 365.03335693 41.35316895 364.81671387 42.27563477 364.59350586 C51.95551957 362.16569069 61.31530637 358.95266687 70.625 355.375 C71.28612793 355.12105469 71.94725586 354.86710937 72.62841797 354.60546875 C116.04831812 337.62346336 150.23566629 301.13284347 169.625 259.375 C188.46267825 215.20569342 190.28043803 164.30656686 172.625 119.375 C170.51230559 114.2640057 168.12311136 109.30693309 165.625 104.375 C165.31304687 103.74996582 165.00109375 103.12493164 164.6796875 102.48095703 C157.8784929 88.93040621 149.50146268 76.906158 139.625 65.375 C138.56345703 64.12783203 138.56345703 64.12783203 137.48046875 62.85546875 C117.59184341 40.10001453 92.19615454 23.45046952 63.85449219 13.18603516 C61.85182054 12.45751181 59.86738213 11.69404842 57.8828125 10.91796875 C47.27529625 7.00807134 36.31127283 5.38643804 25.16186523 3.75097656 C23.16741732 3.45538906 21.17815331 3.1248058 19.19140625 2.78125 C-32.11364152 -3.06291754 -84.52160816 15.55383793 -122.1171875 50.30859375 Z " fill="#DCEAED" transform="translate(268.375,44.625)"/>
<path d="M0 0 C6.36967617 4.35819948 10.82756694 9.50610248 13 17 C14.22723085 26.33500191 13.57753005 34.25343049 8 42 C5.87771117 44.66831459 3.66500168 46.87588661 1 49 C0.46246094 49.43441406 -0.07507813 49.86882812 -0.62890625 50.31640625 C-7.21832112 54.54719387 -16.4680282 54.11124365 -24 53 C-27.46689826 51.8157401 -30.19084919 50.34095901 -33 48 C-33.59039062 47.53207031 -34.18078125 47.06414062 -34.7890625 46.58203125 C-36 45 -36 45 -35.81640625 43.1328125 C-34.8856061 40.70115279 -33.91843076 38.28689427 -32.9375 35.875 C-29.70098898 26.99231281 -30.35076279 19.62995287 -34 11 C-34.95723017 8.97918076 -35.93988057 6.96879323 -37 5 C-26.75618355 -4.89168526 -12.6561633 -8.09322018 0 0 Z " fill="#00F3FB" transform="translate(338,133)"/>
<path d="M0 0 C4.33460571 2.49217577 7.37862946 5.88225892 9.625 10.375 C9.77477039 12.62155587 9.84650174 14.87363768 9.875 17.125 C9.90078125 18.33671875 9.9265625 19.5484375 9.953125 20.796875 C9.4525837 26.25515873 7.67907492 29.36675442 3.75 33.125 C-2.45236054 37.59069959 -7.89400164 38.08013092 -15.375 37.375 C-21.15474759 35.34138511 -24.74167457 31.7405058 -28.1875 26.75 C-30.36403708 20.56405251 -30.47914471 14.06891556 -27.8125 8 C-22.24143241 -1.68967827 -9.96620701 -4.5749636 0 0 Z " fill="#A6B1B8" transform="translate(189.375,209.625)"/>
<path d="M0 0 C1.50139694 0.87978352 2.9833676 1.79411781 4.4375 2.75 C5.07816406 3.15347656 5.71882813 3.55695313 6.37890625 3.97265625 C7.75504457 4.86347432 9.10117252 5.80050416 10.4375 6.75 C10.93378906 6.35167969 11.43007812 5.95335937 11.94140625 5.54296875 C20.2346091 -0.92478527 25.93150521 -2.92538632 36.5625 -2.74609375 C42.63793513 -1.96829107 47.26487396 0.61556727 52.4375 3.75 C53.76410034 4.429966 55.09486713 5.10226611 56.4375 5.75 C57.02917969 5.34007812 57.62085938 4.93015625 58.23046875 4.5078125 C59.41576172 3.69957031 59.41576172 3.69957031 60.625 2.875 C61.40230469 2.34132812 62.17960937 1.80765625 62.98046875 1.2578125 C70.42605995 -3.31134204 78.62095664 -3.34006962 87.10546875 -1.75 C92.28571012 -0.18077026 96.20364854 2.416968 100.4375 5.75 C104.14832357 3.93262627 107.72511944 1.91201054 111.31640625 -0.12890625 C117.85685568 -3.58582888 126.22470363 -3.20405757 133.30078125 -1.6015625 C141.68568583 1.44986467 147.46911046 6.49310026 151.9375 14.1875 C155.64606646 22.28538349 156.17844453 31.25824003 153.4765625 39.78125 C152.29725876 42.27506429 151.00304224 44.48191526 149.4375 46.75 C149.06496094 47.33136719 148.69242188 47.91273438 148.30859375 48.51171875 C145.08474413 52.97119018 140.42498544 55.63919156 135.4375 57.75 C134.4475 57.75 133.4575 57.75 132.4375 57.75 C132.4375 57.09 132.4375 56.43 132.4375 55.75 C133.00597656 55.481875 133.57445312 55.21375 134.16015625 54.9375 C141.40050881 51.26293042 148.10993021 45.89863478 150.99609375 37.984375 C152.701977 29.34928456 152.59146485 20.58952923 148.05078125 12.90234375 C143.55046972 6.89829617 137.94609064 2.14606962 130.4375 0.75 C121.13664219 -0.07855822 113.37729655 0.36137846 105.9375 6.4375 C105.1125 7.200625 104.2875 7.96375 103.4375 8.75 C103.78683594 9.41386719 104.13617188 10.07773438 104.49609375 10.76171875 C104.95113281 11.64472656 105.40617188 12.52773437 105.875 13.4375 C106.32746094 14.30761719 106.77992188 15.17773438 107.24609375 16.07421875 C110.66044685 23.74251998 110.36528498 31.85966244 107.5 39.625 C107.14035156 40.50929687 106.78070313 41.39359375 106.41015625 42.3046875 C105.55669894 44.45032716 104.93465253 46.49973067 104.4375 48.75 C111.25814182 54.91057971 118.41930751 57.17741635 127.4375 57.75 C127.4375 58.08 127.4375 58.41 127.4375 58.75 C117.17297273 59.54364902 110.891827 57.386218 102.4375 51.75 C102.4375 51.09 102.4375 50.43 102.4375 49.75 C101.79683594 50.23210937 101.15617188 50.71421875 100.49609375 51.2109375 C95.5460213 54.8257445 91.48129942 57.5675175 85.4375 58.75 C85.4375 57.76 85.4375 56.77 85.4375 55.75 C86.04078125 55.49605469 86.6440625 55.24210937 87.265625 54.98046875 C93.19425636 52.45431624 93.19425636 52.45431624 98.4375 48.75 C97.34192129 45.96891558 96.20597113 43.27521928 94.89453125 40.5859375 C93.15826798 36.52151513 92.90230526 32.82048472 92.9375 28.4375 C92.93741943 27.69419434 92.93733887 26.95088867 92.93725586 26.18505859 C93.08514115 20.54578118 94.35726041 16.43037269 97.44140625 11.6328125 C97.77011719 11.01148438 98.09882813 10.39015625 98.4375 9.75 C97.14144698 5.86184095 95.81595192 5.47030783 92.25 3.5625 C85.24217317 0.24562823 79.08393106 -0.56302351 71.4375 0.75 C65.80837869 2.79637366 60.49158184 5.23491888 56.4375 9.75 C53.0562967 8.26227055 50.31215481 6.22129568 47.4140625 3.96875 C40.66792436 -0.19092411 33.08983018 0.04795136 25.4375 0.75 C19.32848327 2.49543335 14.33557373 6.84196245 9.4375 10.75 C9.03660156 10.36328125 8.63570312 9.9765625 8.22265625 9.578125 C0.31113338 2.33038069 -6.45615842 0.11832769 -17.23046875 0.41015625 C-21.50708908 0.84634144 -24.70157803 1.89675746 -28.5625 3.75 C-28.8925 3.09 -29.2225 2.43 -29.5625 1.75 C-20.65681004 -3.65616409 -9.46363706 -4.61745434 0 0 Z " fill="#0D2936" transform="translate(198.5625,129.25)"/>
<path d="M0 0 C18 0 18 0 26 3 C30.90154994 8.11012653 32.16182359 10.78406339 32.25 17.75 C32.27578125 18.96171875 32.3015625 20.1734375 32.328125 21.421875 C31.86590783 26.46224315 30.30437444 29.73087892 26.6875 33.25 C17.92908469 38.95315415 11.18008205 37 0 37 C0 24.79 0 12.58 0 0 Z " fill="#A7B1B8" transform="translate(205,209)"/>
<path d="M0 0 C3.01125 -0.061875 6.0225 -0.12375 9.125 -0.1875 C10.06230957 -0.21481201 10.99961914 -0.24212402 11.96533203 -0.27026367 C17.05755689 -0.32069785 20.64821535 0.05692376 25 3 C27.13802064 5.16959478 27.9001154 6.39775462 28.3984375 9.40234375 C28.33978614 15.74646564 27.61087726 19.38912274 23 24 C23.433125 24.77085937 23.86625 25.54171875 24.3125 26.3359375 C24.869375 27.33882812 25.42625 28.34171875 26 29.375 C26.556875 30.37273437 27.11375 31.37046875 27.6875 32.3984375 C29 35 29 35 29 37 C26.03 37 23.06 37 20 37 C19.63648438 36.21753906 19.27296875 35.43507812 18.8984375 34.62890625 C18.39570313 33.61699219 17.89296875 32.60507813 17.375 31.5625 C16.88773437 30.55316406 16.40046875 29.54382813 15.8984375 28.50390625 C14.17195658 25.69262157 14.17195658 25.69262157 10.7890625 25.15234375 C9.86867188 25.10207031 8.94828125 25.05179688 8 25 C8 28.96 8 32.92 8 37 C5.36 37 2.72 37 0 37 C0 24.79 0 12.58 0 0 Z " fill="#A9B3BA" transform="translate(313,209)"/>
<path d="M0 0 C0.66 0 1.32 0 2 0 C4.28852896 4.7642182 6.56687524 9.53312019 8.8359375 14.30664062 C9.6091996 15.92971258 10.38522352 17.55147175 11.1640625 19.171875 C12.28334279 21.5018054 13.39259249 23.83628271 14.5 26.171875 C14.84998047 26.89493835 15.19996094 27.61800171 15.56054688 28.36297607 C17.21914503 31.88593284 18 34.03692015 18 38 C15.36 38 12.72 38 10 38 C9.34 36.35 8.68 34.7 8 33 C5.70759993 33.05985379 3.41593794 33.14859027 1.125 33.25 C-0.15117187 33.29640625 -1.42734375 33.3428125 -2.7421875 33.390625 C-4.35480469 33.69226563 -4.35480469 33.69226563 -6 34 C-6.66 35.32 -7.32 36.64 -8 38 C-10.97 38 -13.94 38 -17 38 C-14.73296193 30.49757187 -11.6043017 23.49320926 -8.27441406 16.41308594 C-7.36487464 14.47846299 -6.46316461 12.54033081 -5.5625 10.6015625 C-1.15115458 1.15115458 -1.15115458 1.15115458 0 0 Z " fill="#A8B2B9" transform="translate(362,208)"/>
<path d="M0 0 C3.02008556 1.58224857 4.11535118 3.1189411 5.4375 6.25 C3.7875 7.57 2.1375 8.89 0.4375 10.25 C-0.160625 9.940625 -0.75875 9.63125 -1.375 9.3125 C-5.70235956 7.21063964 -9.80432455 6.48165649 -14.5625 7.25 C-17.78882043 8.89198841 -17.78882043 8.89198841 -19.5625 12.25 C-20.54426491 17.61751797 -20.49273007 21.76744583 -17.5625 26.4375 C-13.73644024 28.74907777 -10.92996619 29.12171423 -6.5625 28.25 C-5.675625 27.71375 -4.78875 27.1775 -3.875 26.625 C-1.5625 25.25 -1.5625 25.25 1.125 25.8125 C3.6735666 27.3967441 4.41885588 28.47187968 5.4375 31.25 C-0.55994212 36.39066468 -5.12046057 37.66729548 -12.91015625 37.5 C-18.9884319 36.92708448 -22.68973766 33.75077786 -26.5625 29.25 C-30.24693055 23.91392817 -30.34577596 18.51620768 -29.5625 12.25 C-27.96406659 6.61742513 -25.08476686 3.33923992 -20.24609375 0.16015625 C-14.15684617 -3.13171077 -6.18772613 -2.88987209 0 0 Z " fill="#A5B0B7" transform="translate(301.5625,209.75)"/>
<path d="M0 0 C2.48753113 1.39923626 4.22067133 2.48950576 6 4.6875 C5.03432113 7.10169718 4.24128309 8.49613755 2.1875 10.125 C1.1046875 10.4034375 1.1046875 10.4034375 0 10.6875 C-0.721875 10.23375 -1.44375 9.78 -2.1875 9.3125 C-6.14101528 7.02824673 -9.53589094 6.86410195 -14 7.6875 C-17.26977606 9.37383188 -17.26977606 9.37383188 -19 12.6875 C-19.76041399 17.69490701 -19.78746961 22.3232799 -17 26.6875 C-12.97497679 29.37084881 -9.73280265 29.27199707 -5 28.6875 C-3.9275 28.130625 -2.855 27.57375 -1.75 27 C-0.8425 26.566875 0.065 26.13375 1 25.6875 C3.875 27 3.875 27 6 28.6875 C5.66902062 31.77664085 4.99715301 32.6901931 2.6875 34.875 C-2.40268653 38.3079165 -8.01196868 38.32682364 -14 37.6875 C-20.85290219 35.60906346 -24.75295894 31.53957039 -28.3125 25.4375 C-29.69064504 19.92491982 -30.11374134 14.10620644 -27.4375 8.9375 C-21.16207047 -0.52046879 -10.83765421 -4.42305973 0 0 Z " fill="#A6B0B8" transform="translate(150,209.3125)"/>
<path d="M0 0 C7.92 0 15.84 0 24 0 C24 2.31 24 4.62 24 7 C19.05 7 14.1 7 9 7 C9 10.63 9 14.26 9 18 C13.29 18 17.58 18 22 18 C22 20.31 22 22.62 22 25 C17.71 25 13.42 25 9 25 C9 26.65 9 28.3 9 30 C13.95 30 18.9 30 24 30 C24 32.31 24 34.62 24 37 C16.08 37 8.16 37 0 37 C0 24.79 0 12.58 0 0 Z " fill="#A6B1B8" transform="translate(243,209)"/>
<path d="M0 0 C0.33 0 0.66 0 1 0 C1.01981934 0.69859131 1.03963867 1.39718262 1.06005859 2.11694336 C1.96186731 32.45209446 5.20033624 61.09233617 18 89 C18.32226562 89.70801758 18.64453125 90.41603516 18.9765625 91.14550781 C34.63446486 125.05505042 59.35656499 151.52341766 91 171 C90.34 171.99 89.68 172.98 89 174 C75.43630146 165.62416864 63.60265896 155.89946751 52 145 C51.04673828 144.12794922 51.04673828 144.12794922 50.07421875 143.23828125 C19.48408897 114.2543158 0.32171799 67.89414427 -1.13183594 26.22021484 C-1.52664605 8.9308108 -1.52664605 8.9308108 -1 1 C-0.67 0.67 -0.34 0.34 0 0 Z " fill="#DDEBEE" transform="translate(85,216)"/>
<path d="M0 0 C7.59 0 15.18 0 23 0 C23 2.31 23 4.62 23 7 C18.05 7 13.1 7 8 7 C8 10.63 8 14.26 8 18 C12.29 18 16.58 18 21 18 C21 19.98 21 21.96 21 24 C16.71 24 12.42 24 8 24 C8 28.29 8 32.58 8 37 C5.36 37 2.72 37 0 37 C0 24.79 0 12.58 0 0 Z " fill="#ACB4BC" transform="translate(385,209)"/>
<path d="M0 0 C3.07469523 1.70251719 5.40613254 3.81226508 7 7 C7.34717992 12.29449372 7.52421718 15.74663444 4 20 C0.46538461 22.92868132 -2.59985333 23.52370565 -7.06640625 23.36328125 C-10.14072683 22.78568163 -11.86602169 21.19864432 -14 19 C-15.96752105 15.0649579 -15.46422595 10.2894478 -15 6 C-11.27314414 -0.21142643 -6.88675672 -1.06305641 0 0 Z " fill="#024E41" transform="translate(184,216)"/>
<path d="M0 0 C8.58 0 17.16 0 26 0 C26 2.31 26 4.62 26 7 C23.03 7 20.06 7 17 7 C17 16.9 17 26.8 17 37 C14.36 37 11.72 37 9 37 C9 27.1 9 17.2 9 7 C6.03 7 3.06 7 0 7 C0 4.69 0 2.38 0 0 Z " fill="#ACB4BC" transform="translate(411,209)"/>
<path d="M0 0 C0 0.66 0 1.32 0 2 C-1.21060834 3.08719681 -2.46990544 4.12054624 -3.75 5.125 C-9.09518092 9.76886286 -11.60849063 13.35406904 -12.375 20.4921875 C-12.67876029 29.92774156 -11.21093598 36.83956718 -6.25 44.8125 C0.45453059 51.33079363 6.84477163 53.29688472 16.09375 53.31689453 C25.81119591 53.12804781 32.11807101 49.58271468 39 43 C39.50789063 43.47050781 40.01578125 43.94101563 40.5390625 44.42578125 C41.22742188 45.04839844 41.91578125 45.67101562 42.625 46.3125 C43.29789063 46.92738281 43.97078125 47.54226562 44.6640625 48.17578125 C52.0011274 53.9055627 59.00174751 53.83834651 68 53 C74.32509398 51.48001618 78.84193512 48.98967785 83 44 C85.44237095 45.0854982 87.29062276 46.23708699 89.375 47.9375 C96.04197153 53.17583477 102.77460179 53.96267233 111 55 C111 55.33 111 55.66 111 56 C99.84373287 56.78688405 92.80351669 54.8072544 84 48 C83.34 48.5775 82.68 49.155 82 49.75 C75.3795211 54.71535917 69.85246 56.71136666 61.5625 56.5625 C60.7271875 56.55516846 59.891875 56.54783691 59.03125 56.5402832 C51.79572463 56.31028068 46.49159618 54.64488576 41.3984375 49.328125 C40.93695313 48.88984375 40.47546875 48.4515625 40 48 C36.14271796 48.12857607 33.88469423 50.66477134 31 53 C23.52777826 57.60956062 14.4878943 57.13196346 6 56 C-1.24969508 53.7029056 -6.87970582 49.37254501 -11 43 C-11.41121094 42.39027344 -11.82242188 41.78054687 -12.24609375 41.15234375 C-16.27360421 33.91954814 -16.10401576 25.02503875 -15 17 C-13.12450874 10.46897513 -7.63129534 0 0 0 Z " fill="#132936" transform="translate(170,132)"/>
<path d="M0 0 C2.4375 1 2.4375 1 4 2 C4.66 1.34 5.32 0.68 6 0 C9.89201406 -0.43244601 12.13230302 -0.57846465 15.4375 1.625 C17.47161336 4.71685231 17.60605429 6.36367425 17 10 C15.4375 12.375 15.4375 12.375 13 14 C9.04507824 14.35311801 5.80561498 13.98664092 2 13 C1.01 13.495 1.01 13.495 0 14 C-3.87424565 14.35872645 -6.14933906 14.56710729 -9.4375 12.375 C-11.47161336 9.28314769 -11.60605429 7.63632575 -11 4 C-8.03258804 -0.51046618 -5.15532524 -0.55235628 0 0 Z " fill="#0A5448" transform="translate(147,294)"/>
<path d="M0 0 C2.4375 1 2.4375 1 4 2 C4.66 1.34 5.32 0.68 6 0 C9.89201406 -0.43244601 12.13230302 -0.57846465 15.4375 1.625 C17.47161336 4.71685231 17.60605429 6.36367425 17 10 C15.4375 12.375 15.4375 12.375 13 14 C9.80676039 14.28511068 7.15435684 14.33513586 4.0625 13.4375 C1.63967564 12.92356756 -0.07556728 13.23499458 -2.5 13.6875 C-6.65858551 14.20817957 -6.65858551 14.20817957 -9.5625 12.4375 C-11.41358311 9.2987069 -11.59821542 7.58929251 -11 4 C-8.03258804 -0.51046618 -5.15532524 -0.55235628 0 0 Z " fill="#055043" transform="translate(289,294)"/>
<path d="M0 0 C7.04343883 0 8.971431 0.18029783 13.8125 4.6875 C15.55707906 8.08483818 15.53760187 11.30306662 15 15 C13.2414131 19.16507424 11.14798495 21.20882468 7 23 C4.69 23 2.38 23 0 23 C0 15.41 0 7.82 0 0 Z " fill="#044F42" transform="translate(214,216)"/>
<path d="M0 0 C1.65771778 0 3.31599051 -0.01126303 4.97265625 -0.0703125 C6.98121994 -0.12287305 8.99176042 -0.06375364 11 0 C13 2 13 2 13.1875 5 C13 8 13 8 12 10 C12.39938767 12.09821215 12.39938767 12.09821215 13 14 C12.01 13.67 11.02 13.34 10 13 C9.67 12.34 9.34 11.68 9 11 C8.01 10.67 7.02 10.34 6 10 C6 11.32 6 12.64 6 14 C5.38125 13.814375 4.7625 13.62875 4.125 13.4375 C1.95839822 12.76313824 1.95839822 12.76313824 0 14 C-3.375 14.375 -3.375 14.375 -7 14 C-9.69500656 11.58140437 -10.80636871 9.99236035 -11.5 6.4375 C-10.16038248 -0.09313543 -5.91754077 -0.4303666 0 0 Z " fill="#155C50" transform="translate(211,294)"/>
<path d="M0 0 C3.30836685 2.67820174 5.02442799 5.9263277 6 10 C6.82850213 18.77817733 6.64887265 26.34181247 2 34 C1.01 34 0.02 34 -1 34 C-5.56416805 26.11458467 -6.38809005 18.17125384 -4.38671875 9.2734375 C-3.26940882 5.75534366 -2.06040951 3.09061427 0 0 Z " fill="#A9B1B9" transform="translate(299,140)"/>
<path d="M0 0 C2 2 2 2 3.25 4.875 C5.32063296 8.57255885 7.37723937 9.88672296 11 12 C11.99 12.66 12.98 13.32 14 14 C13.39671875 14.25652344 12.7934375 14.51304687 12.171875 14.77734375 C6.27840062 17.60050809 3.81599242 20.05687397 1.55859375 26.20703125 C1.37425781 26.79871094 1.18992187 27.39039063 1 28 C-4 20.5 -4 20.5 -4 18 C-4.721875 17.71125 -5.44375 17.4225 -6.1875 17.125 C-8.79166667 16.08333333 -11.39583333 15.04166667 -14 14 C-11 12 -11 12 -8.125 10.9375 C-3.74150089 8.21973055 -2.16541231 4.57036138 0 0 Z " fill="#0A2534" transform="translate(324,144)"/>
<path d="M0 0 C1.11015927 3.27693755 0.9379409 4.89512355 -0.4765625 8.02734375 C-0.8154248 8.80916016 -1.15428711 9.59097656 -1.50341797 10.39648438 C-1.87354004 11.23501953 -2.24366211 12.07355469 -2.625 12.9375 C-7.02077791 23.37675239 -9.82786115 33.90077157 -12 45 C-12.18256348 45.88075195 -12.36512695 46.76150391 -12.55322266 47.66894531 C-14.26249648 56.67081196 -14.44038121 65.61906245 -14.625 74.75 C-14.66328598 76.3333523 -14.70234338 77.91668614 -14.7421875 79.5 C-14.83700021 83.33317911 -14.92143851 87.16645481 -15 91 C-15.33 91 -15.66 91 -16 91 C-16.33 82.75 -16.66 74.5 -17 66 C-17.33 66 -17.66 66 -18 66 C-18.18198595 59.51350088 -17.60530696 53.70972217 -16.25 47.375 C-16.06808105 46.50327148 -15.88616211 45.63154297 -15.69873047 44.73339844 C-13.43583034 34.08468635 -10.74609435 23.67038878 -7 13.4375 C-6.64446045 12.45475098 -6.64446045 12.45475098 -6.28173828 11.45214844 C-4.65494289 7.16924787 -2.64384913 3.69797001 0 0 Z " fill="#DFECF0" transform="translate(102,151)"/>
<path d="M0 0 C7 0 7 0 9.4375 1.625 C11.47161336 4.71685231 11.60605429 6.36367425 11 10 C9.4375 12.375 9.4375 12.375 7 14 C4.69 14 2.38 14 0 14 C0 9.38 0 4.76 0 0 Z " fill="#D3E1E2" transform="translate(166,294)"/>
<path d="M0 0 C1.50139694 0.87978352 2.9833676 1.79411781 4.4375 2.75 C5.07816406 3.15347656 5.71882813 3.55695313 6.37890625 3.97265625 C7.75504457 4.86347432 9.10117252 5.80050416 10.4375 6.75 C10.93378906 6.35167969 11.43007812 5.95335937 11.94140625 5.54296875 C19.67564495 -0.48885688 25.62263331 -2.78320201 35.4375 -2.25 C35.4375 -1.92 35.4375 -1.59 35.4375 -1.25 C34.20386719 -1.04697266 34.20386719 -1.04697266 32.9453125 -0.83984375 C24.58705356 0.77196831 19.04226321 3.45853913 12.4375 8.75 C11.4475 9.41 10.4575 10.07 9.4375 10.75 C9.03660156 10.36328125 8.63570312 9.9765625 8.22265625 9.578125 C0.31113338 2.33038069 -6.45615842 0.11832769 -17.23046875 0.41015625 C-21.50708908 0.84634144 -24.70157803 1.89675746 -28.5625 3.75 C-28.8925 3.09 -29.2225 2.43 -29.5625 1.75 C-20.65681004 -3.65616409 -9.46363706 -4.61745434 0 0 Z " fill="#0F2633" transform="translate(198.5625,129.25)"/>
<path d="M0 0 C1.13574463 0.10175537 1.13574463 0.10175537 2.29443359 0.20556641 C8.44128088 0.72144426 14.55883903 1.07931398 20.7265625 1.2109375 C22.02464844 1.23929687 23.32273437 1.26765625 24.66015625 1.296875 C26.6634881 1.33634952 28.6668559 1.37553956 30.67041016 1.40136719 C32.64768846 1.42886231 34.62466573 1.47584921 36.6015625 1.5234375 C38.33913818 1.5531665 38.33913818 1.5531665 40.11181641 1.58349609 C43.21963945 2.03167412 44.15170264 2.52986092 46 5 C41.09278798 5.05001078 36.1857293 5.08600384 31.27832031 5.10986328 C29.61423147 5.11982596 27.95015969 5.13340102 26.28613281 5.15087891 C16.64978311 5.24944566 7.46885548 5.08615867 -2 3 C-1.34 2.67 -0.68 2.34 0 2 C0 1.34 0 0.68 0 0 Z " fill="#CCDFE1" transform="translate(240,411)"/>
<path d="M0 0 C0.66 0.66 1.32 1.32 2 2 C1.26475098 2.13575439 0.52950195 2.27150879 -0.22802734 2.41137695 C-3.61143096 3.03941959 -6.99319579 3.67590363 -10.375 4.3125 C-12.10943359 4.63250977 -12.10943359 4.63250977 -13.87890625 4.95898438 C-20.73581013 6.25675997 -27.36939556 7.82119343 -34 10 C-35.19625 10.391875 -36.3925 10.78375 -37.625 11.1875 C-38.40875 11.455625 -39.1925 11.72375 -40 12 C-40 10.68 -40 9.36 -40 8 C-36.25354282 6.86297478 -32.50226484 5.74269591 -28.75 4.625 C-27.18378906 4.14933594 -27.18378906 4.14933594 -25.5859375 3.6640625 C-5.83313026 -2.18862113 -5.83313026 -2.18862113 0 0 Z " fill="#CCDEE1" transform="translate(245,47)"/>
<path d="M0 0 C0.88681961 -0.00095673 1.77363922 -0.00191345 2.68733215 -0.00289917 C4.56605093 -0.00357988 6.44477206 -0.00173316 8.32348633 0.00244141 C11.17860308 0.00775955 14.03356023 0.00250918 16.88867188 -0.00390625 C18.71744826 -0.00324483 20.54622455 -0.00196235 22.375 0 C23.2211235 -0.00202423 24.06724701 -0.00404846 24.93901062 -0.00613403 C30.05253419 0.0137517 34.95751605 0.40015719 40.01953125 1.1328125 C38.01953125 3.1328125 38.01953125 3.1328125 35.80490112 3.37332153 C34.42590134 3.3666597 34.42590134 3.3666597 33.01904297 3.35986328 C31.97811493 3.35971222 30.93718689 3.35956116 29.86471558 3.35940552 C28.17404465 3.34392166 28.17404465 3.34392166 26.44921875 3.328125 C25.29785431 3.3252951 24.14648987 3.32246521 22.9602356 3.31954956 C19.27156313 3.30832658 15.58313072 3.28321806 11.89453125 3.2578125 C9.398441 3.24778544 6.90234695 3.23865912 4.40625 3.23046875 C-1.72273859 3.20838034 -7.85158652 3.17488197 -13.98046875 3.1328125 C-10.03694003 -0.81071622 -5.22222434 -0.01234576 0 0 Z " fill="#E8F3F7" transform="translate(256.98046875,44.8671875)"/>
<path d="M0 0 C0.33 0 0.66 0 1 0 C1.01981934 0.69859131 1.03963867 1.39718262 1.06005859 2.11694336 C1.4328306 14.65629333 1.85786576 27.07920127 3.59765625 39.51171875 C4.00768117 43.06659496 4.2071147 46.42616973 4 50 C3.34 50.66 2.68 51.32 2 52 C-0.919902 35.12366163 -2.13748773 18.12953108 -1 1 C-0.67 0.67 -0.34 0.34 0 0 Z " fill="#EEF7FB" transform="translate(85,216)"/>
<path d="M0 0 C7.38461538 -0.36923077 7.38461538 -0.36923077 10.5 1.5 C10.995 1.995 11.49 2.49 12 3 C11.625 5.9375 11.625 5.9375 11 9 C7.57067929 10.71466036 3.78283935 10.05404056 0 10 C0 6.7 0 3.4 0 0 Z " fill="#095247" transform="translate(321,216)"/>
<path d="M0 0 C2.31 0 4.62 0 7 0 C9 2 9 2 9.1875 5 C9 8 9 8 8 10 C8.39938767 12.09821215 8.39938767 12.09821215 9 14 C8.01 13.67 7.02 13.34 6 13 C5.67 12.34 5.34 11.68 5 11 C4.01 10.67 3.02 10.34 2 10 C2 11.32 2 12.64 2 14 C1.34 14 0.68 14 0 14 C0 9.38 0 4.76 0 0 Z " fill="#BAD0CF" transform="translate(215,294)"/>
<path d="M0 0 C3.5625 0.1875 3.5625 0.1875 5.5625 2.1875 C4.98557692 8.76442308 4.98557692 8.76442308 3.5625 10.1875 C-1.65598739 10.64128151 -1.65598739 10.64128151 -4.375 9.0625 C-5.97693488 6.23555609 -5.23334319 4.23823223 -4.4375 1.1875 C-3.4375 0.1875 -3.4375 0.1875 0 0 Z " fill="#0C5549" transform="translate(298.4375,295.8125)"/>
<path d="M0 0 C3 0.25 3 0.25 5 2.25 C5.25 5.25 5.25 5.25 5 8.25 C3 10.25 3 10.25 0 10.5 C-3 10.25 -3 10.25 -5 8.25 C-5.25 5.25 -5.25 5.25 -5 2.25 C-3 0.25 -3 0.25 0 0 Z " fill="#044F43" transform="translate(157,295.75)"/>
<path d="M0 0 C2.4375 1.625 2.4375 1.625 4 4 C4.60605429 7.63632575 4.47161336 9.28314769 2.4375 12.375 C-0.8994213 14.5996142 -3.06905293 14.50030235 -7 14 C-8.9375 13 -8.9375 13 -10 11 C-10.52960415 7.41957756 -10.65886567 4.24021772 -8.9375 1 C-5.82090489 -0.60856522 -3.43737531 -0.42213381 0 0 Z M-8 4 C-8.33333333 7 -8.33333333 7 -8 10 C-6.11499729 12.31563087 -6.11499729 12.31563087 -3 12.25 C0.11499729 12.31563087 0.11499729 12.31563087 2 10 C2.33333333 7 2.33333333 7 2 4 C0.11499729 1.68436913 0.11499729 1.68436913 -3 1.75 C-6.11499729 1.68436913 -6.11499729 1.68436913 -8 4 Z " fill="#C3D7D6" transform="translate(160,294)"/>
<path d="M0 0 C3 1 3 1 3.94921875 2.71484375 C7.4286106 13.18983825 6.2937056 20.91745917 2 31 C1.01 31 0.02 31 -1 31 C-0.505 29.824375 -0.01 28.64875 0.5 27.4375 C3.48898518 18.49887606 2.85821637 8.85933201 0 0 Z " fill="#0E3442" transform="translate(302,143)"/>
<path d="M0 0 C2.4375 1.625 2.4375 1.625 4 4 C4.60605429 7.63632575 4.47161336 9.28314769 2.4375 12.375 C-0.95870843 14.63913895 -3.00099302 14.64269755 -7 14 C-9.69500656 11.58140437 -10.80636871 9.99236035 -11.5 6.4375 C-10.19781462 0.08934627 -5.87567428 -0.83938204 0 0 Z M-7 2 C-9.33775029 4.83573263 -9.33775029 4.83573263 -8.75 8.125 C-8.5025 9.07375 -8.255 10.0225 -8 11 C-5.21136993 12.39431504 -3.07921132 12.25660094 0 12 C2.14915785 8.77626323 2.38286803 7.73296326 2 4 C0.05541686 1.6278031 0.05541686 1.6278031 -3.5 1.6875 C-4.655 1.790625 -5.81 1.89375 -7 2 Z " fill="#CDDDDE" transform="translate(302,294)"/>
<path d="M0 0 C2.9777759 2.49996659 3.94548483 5.04711071 5.1875 8.6875 C5.53167969 9.68136719 5.87585938 10.67523438 6.23046875 11.69921875 C6.48441406 12.45847656 6.73835937 13.21773438 7 14 C6.01 13.67 5.02 13.34 4 13 C4 12.34 4 11.68 4 11 C1.69 11 -0.62 11 -3 11 C-3.33 11.99 -3.66 12.98 -4 14 C-4.66 13.67 -5.32 13.34 -6 13 C-5.1905146 11.01959844 -4.37732831 9.04070923 -3.5625 7.0625 C-3.11003906 5.96035156 -2.65757812 4.85820312 -2.19140625 3.72265625 C-1 1 -1 1 0 0 Z " fill="#DDE9EA" transform="translate(241,294)"/>
<path d="M0 0 C5.625 4.5 5.625 4.5 8 8 C8.33 5.36 8.66 2.72 9 0 C9.66 0 10.32 0 11 0 C11 4.62 11 9.24 11 14 C10.34 14 9.68 14 9 14 C7.4921875 12.25 7.4921875 12.25 5.875 10 C5.33617187 9.2575 4.79734375 8.515 4.2421875 7.75 C3.83226562 7.1725 3.42234375 6.595 3 6 C2.67 8.64 2.34 11.28 2 14 C1.34 14 0.68 14 0 14 C0 9.38 0 4.76 0 0 Z " fill="#D8E5E6" transform="translate(322,294)"/>
<path d="M0 0 C0.66 0 1.32 0 2 0 C3.5078125 1.75 3.5078125 1.75 5.125 4 C5.66382813 4.7425 6.20265625 5.485 6.7578125 6.25 C7.16773438 6.8275 7.57765625 7.405 8 8 C8.33 5.36 8.66 2.72 9 0 C9.66 0 10.32 0 11 0 C11 4.62 11 9.24 11 14 C5.375 9.5 5.375 9.5 3 6 C2.67 8.64 2.34 11.28 2 14 C1.34 14 0.68 14 0 14 C0 9.38 0 4.76 0 0 Z " fill="#D6E4E5" transform="translate(308,294)"/>
<path d="M0 0 C0.81791016 0.19078125 1.63582031 0.3815625 2.47851562 0.578125 C4.46693044 1.04325127 6.45253756 1.52035427 8.4375 2 C7.21166992 3.53417969 7.21166992 3.53417969 5.4375 5 C3.38793945 4.98925781 3.38793945 4.98925781 1.05078125 4.453125 C0.19419922 4.2675 -0.66238281 4.081875 -1.54492188 3.890625 C-2.43759766 3.67921875 -3.33027344 3.4678125 -4.25 3.25 C-6.00329506 2.85664081 -7.75719792 2.46598024 -9.51171875 2.078125 C-10.35782715 1.88927734 -11.20393555 1.70042969 -12.07568359 1.50585938 C-15.55840376 0.79741679 -19.02972153 0.3783651 -22.5625 0 C-15.4710235 -4.01077756 -7.5234527 -1.83287407 0 0 Z " fill="#D5E5E8" transform="translate(313.5625,49)"/>
<path d="M0 0 C0.99 0.33 1.98 0.66 3 1 C2.2884375 2.0828125 2.2884375 2.0828125 1.5625 3.1875 C-2.15476653 9.87857975 -2.1991274 19.31503713 -0.328125 26.625 C0.36316256 28.45104261 1.16862541 30.233329 2 32 C1.01 32 0.02 32 -1 32 C-3.64035155 26.67027181 -4.51706803 22.48700275 -4.4375 16.5625 C-4.43427734 15.81621338 -4.43105469 15.06992676 -4.42773438 14.30102539 C-4.28377134 8.63123969 -3.23534377 4.75191117 0 0 Z " fill="#162636" transform="translate(296,141)"/>
<path d="M0 0 C2.64 0 5.28 0 8 0 C8 0.66 8 1.32 8 2 C6.35 2 4.7 2 3 2 C3 3.98 3 5.96 3 8 C4.65 8 6.3 8 8 8 C8 8.66 8 9.32 8 10 C6.35 10 4.7 10 3 10 C3 10.66 3 11.32 3 12 C4.65 12 6.3 12 8 12 C8 12.66 8 13.32 8 14 C5.36 14 2.72 14 0 14 C0 9.38 0 4.76 0 0 Z " fill="#A6C2C0" transform="translate(335,294)"/>
<path d="M0 0 C2.64 0 5.28 0 8 0 C8 0.66 8 1.32 8 2 C6.35 2 4.7 2 3 2 C3 3.98 3 5.96 3 8 C4.65 8 6.3 8 8 8 C8 8.66 8 9.32 8 10 C6.35 10 4.7 10 3 10 C3 10.66 3 11.32 3 12 C4.65 12 6.3 12 8 12 C8 12.66 8 13.32 8 14 C5.36 14 2.72 14 0 14 C0 9.38 0 4.76 0 0 Z " fill="#A6C2C0" transform="translate(226,294)"/>
<path d="M0 0 C0.33 0 0.66 0 1 0 C1.144375 0.7425 1.28875 1.485 1.4375 2.25 C1.92927357 4.87227286 1.92927357 4.87227286 2.57006836 6.87402344 C3.07633143 9.37745264 2.84501058 11.24713396 2.44140625 13.765625 C2.30283203 14.65507812 2.16425781 15.54453125 2.02148438 16.4609375 C1.79428711 17.84152344 1.79428711 17.84152344 1.5625 19.25 C1.34110352 20.65378906 1.34110352 20.65378906 1.11523438 22.0859375 C0.75052478 24.39184331 0.37855026 26.69633288 0 29 C-0.99 28.34 -1.98 27.68 -3 27 C-2.85795259 25.41632253 -2.71119847 23.83306682 -2.5625 22.25 C-2.48128906 21.36828125 -2.40007812 20.4865625 -2.31640625 19.578125 C-2 17 -2 17 -1.5 15.09375 C-0.7998675 12.16194516 -0.64780325 9.25433218 -0.4375 6.25 C-0.31181641 4.49429688 -0.31181641 4.49429688 -0.18359375 2.703125 C-0.12300781 1.81109375 -0.06242187 0.9190625 0 0 Z " fill="#D1E2E5" transform="translate(452,241)"/>
<path d="M0 0 C1.65 0 3.3 0 5 0 C7 2 7 2 7.25 5 C7 8 7 8 5 10 C3.35 10 1.7 10 0 10 C0 6.7 0 3.4 0 0 Z " fill="#0D564A" transform="translate(168,296)"/>
<path d="M0 0 C0.33 1.32 0.66 2.64 1 4 C1.66 4 2.32 4 3 4 C2.67 16.21 2.34 28.42 2 41 C1.67 41 1.34 41 1 41 C0.67 32.75 0.34 24.5 0 16 C-0.33 16 -0.66 16 -1 16 C-1.11138159 10.54230189 -0.91657981 5.38490641 0 0 Z " fill="#ADC9C9" transform="translate(85,201)"/>
<path d="M0 0 C0.66 0 1.32 0 2 0 C2.34915606 9.15564771 1.27041977 17.95960217 0 27 C-0.99 27 -1.98 27 -3 27 C-2.01 18.09 -1.02 9.18 0 0 Z " fill="#253443" transform="translate(184,143)"/>
<path d="M0 0 C2.64 0 5.28 0 8 0 C8 0.66 8 1.32 8 2 C6.02 2 4.04 2 2 2 C2 3.98 2 5.96 2 8 C3.65 8 5.3 8 7 8 C7 8.66 7 9.32 7 10 C5.35 10 3.7 10 2 10 C2 10.66 2 11.32 2 12 C3.98 12 5.96 12 8 12 C8 12.66 8 13.32 8 14 C5.36 14 2.72 14 0 14 C0 9.38 0 4.76 0 0 Z " fill="#CBDCDC" transform="translate(179,294)"/>
<path d="M0 0 C0.66 0.33 1.32 0.66 2 1 C2 1.66 2 2.32 2 3 C0.700625 2.979375 -0.59875 2.95875 -1.9375 2.9375 C-3.29165633 2.91600546 -4.64756083 2.92851801 -6 3 C-7.34404775 4.11836224 -7.34404775 4.11836224 -7.125 7 C-7.34404775 9.88163776 -7.34404775 9.88163776 -6 11 C-3.32941149 11.14115161 -0.67567762 11.04247107 2 11 C2 11.66 2 12.32 2 13 C-1.04983996 14.52491998 -3.6423369 14.23562548 -7 14 C-8.9375 13 -8.9375 13 -10 11 C-10.52960415 7.41957756 -10.65886567 4.24021772 -8.9375 1 C-5.94120155 -0.54647662 -3.30610227 -0.2404438 0 0 Z " fill="#CCDCDD" transform="translate(355,294)"/>
<path d="M0 0 C2.64 0 5.28 0 8 0 C8 0.66 8 1.32 8 2 C6.02 2 4.04 2 2 2 C2 3.98 2 5.96 2 8 C3.65 8 5.3 8 7 8 C7 8.66 7 9.32 7 10 C5.35 10 3.7 10 2 10 C2 10.66 2 11.32 2 12 C3.98 12 5.96 12 8 12 C8 12.66 8 13.32 8 14 C5.36 14 2.72 14 0 14 C0 9.38 0 4.76 0 0 Z " fill="#D1E0E1" transform="translate(257,294)"/>
<path d="M0 0 C0.66 0.66 1.32 1.32 2 2 C-2.34856 6.7562375 -7.23708098 10.11854049 -13 13 C-15.55807762 12.91089842 -18.0762601 12.76705754 -20.625 12.5625 C-21.33140625 12.51029297 -22.0378125 12.45808594 -22.765625 12.40429688 C-24.51079987 12.27458793 -26.25545725 12.13795046 -28 12 C-28 11.67 -28 11.34 -28 11 C-26.40671875 10.87044922 -26.40671875 10.87044922 -24.78125 10.73828125 C-14.38118304 9.75728203 -7.20916746 8.11031339 0 0 Z " fill="#1C323E" transform="translate(208,175)"/>
<path d="M0 0 C2.72880503 1.20067421 4.9576853 2.70206715 7.3125 4.5 C13.25878069 8.79243192 19.88229183 9.38668274 27 10 C27 10.33 27 10.66 27 11 C15.84373287 11.78688405 8.80351669 9.8072544 0 3 C-0.99 3.99 -1.98 4.98 -3 6 C-3.66 5.67 -4.32 5.34 -5 5 C-3.35 3.35 -1.7 1.7 0 0 Z " fill="#0C2330" transform="translate(254,177)"/>
<path d="M0 0 C0.33 0.99 0.66 1.98 1 3 C-0.299375 2.979375 -1.59875 2.95875 -2.9375 2.9375 C-4.29165633 2.91600546 -5.64756083 2.92851801 -7 3 C-7.33 3.33 -7.66 3.66 -8 4 C-7.71269945 6.33944736 -7.38063221 8.6739143 -7 11 C-4.36 11 -1.72 11 1 11 C0.67 11.99 0.34 12.98 0 14 C-6.27586207 14.48275862 -6.27586207 14.48275862 -9.4375 12.375 C-11.47161336 9.28314769 -11.60605429 7.63632575 -11 4 C-8.02080717 -0.52837311 -5.15974216 -0.39690324 0 0 Z " fill="#D5E3E4" transform="translate(147,294)"/>
<path d="M0 0 C0.33 0.99 0.66 1.98 1 3 C-0.299375 2.979375 -1.59875 2.95875 -2.9375 2.9375 C-4.29165633 2.91600546 -5.64756083 2.92851801 -7 3 C-8.34404775 4.11836224 -8.34404775 4.11836224 -8.125 7 C-8.34404775 9.88163776 -8.34404775 9.88163776 -7 11 C-4.32941149 11.14115161 -1.67567762 11.04247107 1 11 C1 11.66 1 12.32 1 13 C-1.84083641 14.42041821 -3.85477278 14.31452272 -7 14 C-9.375 12.375 -9.375 12.375 -11 10 C-11.60605429 6.36367425 -11.47161336 4.71685231 -9.4375 1.625 C-6.18317497 -0.54455002 -3.82869586 -0.29451507 0 0 Z " fill="#D8E6E7" transform="translate(289,294)"/>
<path d="M0 0 C2.72957339 2.35735884 3.88893396 4.58133526 5 8 C5 8.99 5 9.98 5 11 C2.03 11 -0.94 11 -4 11 C-3.52269162 9.5410574 -3.04308958 8.08286504 -2.5625 6.625 C-2.29566406 5.81289062 -2.02882813 5.00078125 -1.75390625 4.1640625 C-1 2 -1 2 0 0 Z " fill="#195C52" transform="translate(362,224)"/>
<path d="M0 0 C3.08242994 0.34249222 4.03848342 1.0395524 6.25 3.3125 C12.77125262 9.68554233 20.16606149 10.88103446 29 12 C29 12.33 29 12.66 29 13 C19.45961222 13.8190476 12.77905832 12.79180308 5 7 C2.96948864 5.07565917 1.57592279 3.3367131 0 1 C0 0.67 0 0.34 0 0 Z " fill="#0C212F" transform="translate(160,175)"/>
<path d="M0 0 C0 0.99 0 1.98 0 3 C-2.31 3 -4.62 3 -7 3 C-7.73334429 6.97754128 -7.73334429 6.97754128 -8 11 C-5.03 11 -2.06 11 1 11 C0.67 11.99 0.34 12.98 0 14 C-3.25 14.3125 -3.25 14.3125 -7 14 C-9.69500656 11.58140437 -10.80636871 9.99236035 -11.5 6.4375 C-10.16492888 -0.07097173 -5.92327841 -0.4556368 0 0 Z " fill="#D3E2E2" transform="translate(211,294)"/>
<path d="M0 0 C0 0.66 0 1.32 0 2 C-7.33741969 4.3479743 -14.34393782 4.19355213 -22 4 C-21.67 3.34 -21.34 2.68 -21 2 C-18.5825075 1.51709768 -16.25441215 1.15738226 -13.8125 0.875 C-13.15185547 0.78863281 -12.49121094 0.70226562 -11.81054688 0.61328125 C-7.85174682 0.12087374 -3.98689191 -0.08680636 0 0 Z " fill="#DBE9ED" transform="translate(304,411)"/>
<path d="M0 0 C1.98 0.99 1.98 0.99 4 2 C4 3.98 4 5.96 4 8 C4.66 8 5.32 8 6 8 C5.57781184 9.6498275 5.13675575 11.29483665 4.6875 12.9375 C4.44386719 13.85402344 4.20023438 14.77054688 3.94921875 15.71484375 C3.63597656 16.46894531 3.32273438 17.22304687 3 18 C2.01 18.33 1.02 18.66 0 19 C0.26041667 17.01432292 0.52083333 15.02864583 0.78125 13.04296875 C1.11948763 9.88407089 0.91086692 6.94536026 0.5 3.8125 C0.335 2.554375 0.17 1.29625 0 0 Z " fill="#223140" transform="translate(192,149)"/>
<path d="M0 0 C1 3 1 3 -0.0625 6.25 C-1.15471652 10.61886607 -0.4759551 12.81812722 1 17 C1 17.66 1 18.32 1 19 C-0.9453125 18.26171875 -0.9453125 18.26171875 -3 17 C-4.90856268 11.61434324 -4.04998757 6.17891598 -2 1 C-1.34 0.67 -0.68 0.34 0 0 Z " fill="#1E2E3D" transform="translate(175,149)"/>
<path d="M0 0 C0.33 0 0.66 0 1 0 C1.3037456 9.06174365 0.90203293 18.11210537 -1 27 C-1.66 27.33 -2.32 27.66 -3 28 C-1.55828221 1.55828221 -1.55828221 1.55828221 0 0 Z " fill="#1B2B3A" transform="translate(232,143)"/>
<path d="M0 0 C1.65 0 3.3 0 5 0 C3.68 0.33 2.36 0.66 1 1 C1 3.31 1 5.62 1 8 C2.98 8 4.96 8 7 8 C7.66 9.98 8.32 11.96 9 14 C8.01 13.67 7.02 13.34 6 13 C5.67 12.34 5.34 11.68 5 11 C4.01 10.67 3.02 10.34 2 10 C2 11.32 2 12.64 2 14 C1.34 14 0.68 14 0 14 C0 9.38 0 4.76 0 0 Z " fill="#F7FBFE" transform="translate(215,294)"/>
<path d="M0 0 C0.33 0 0.66 0 1 0 C1.50377768 2.26999825 2.00290019 4.54103003 2.5 6.8125 C2.7784375 8.07707031 3.056875 9.34164063 3.34375 10.64453125 C4 14 4 14 4 17 C3.01 17.33 2.02 17.66 1 18 C-0.98284456 11.92753853 -2.00706464 6.27207701 0 0 Z " fill="#D4E5E7" transform="translate(89,262)"/>
<path d="M0 0 C2.97 0 5.94 0 9 0 C9 0.66 9 1.32 9 2 C8.01 2 7.02 2 6 2 C6 5.96 6 9.92 6 14 C5.34 14 4.68 14 4 14 C4 10.04 4 6.08 4 2 C2.68 2 1.36 2 0 2 C0 1.34 0 0.68 0 0 Z " fill="#D7E5E6" transform="translate(246,294)"/>
<path d="M0 0 C2.97 0 5.94 0 9 0 C9 0.66 9 1.32 9 2 C7.68 2 6.36 2 5 2 C5 5.96 5 9.92 5 14 C4.34 14 3.68 14 3 14 C3 10.04 3 6.08 3 2 C2.01 2 1.02 2 0 2 C0 1.34 0 0.68 0 0 Z " fill="#C5D8D8" transform="translate(358,294)"/>
<path d="M0 0 C0.33 0 0.66 0 1 0 C1.16435547 1.50240234 1.16435547 1.50240234 1.33203125 3.03515625 C2.43964037 12.85224617 2.43964037 12.85224617 6 22 C5.01 22 4.02 22 3 22 C-1.47469197 14.5677863 -1.19886825 8.43117125 0 0 Z " fill="#1F3742" transform="translate(156,153)"/>
<path d="M0 0 C-1.37154504 2.95409701 -2.98863724 5.44008376 -5 8 C-4.34 8.61875 -3.68 9.2375 -3 9.875 C-1 12 -1 12 -1 14 C-1.99 14 -2.98 14 -4 14 C-7.96774194 10.03225806 -7.96774194 10.03225806 -8.0625 7 C-6.36681281 3.80811822 -3.85322321 0 0 0 Z " fill="#1F2E3D" transform="translate(226,151)"/>
<path d="M0 0 C2.84383123 1.2748209 5.13754018 2.45137078 7 5 C7 8.22234325 5.72090596 9.31487532 3.5625 11.75 C1 14 1 14 -1 14 C0.15173355 11.53199953 1.04783565 9.95216435 3 8 C2.60495559 5.0371669 1.40182371 2.61673759 0 0 Z " fill="#21303F" transform="translate(266,149)"/>
<path d="M0 0 C3.375 0.3125 3.375 0.3125 7 1 C9.32749345 4.49124017 9.50299316 5.89222251 9 10 C7.3125 12.375 7.3125 12.375 5 14 C2.25 14.25 2.25 14.25 0 14 C0.61875 13.71125 1.2375 13.4225 1.875 13.125 C4.13325765 12.06279958 4.13325765 12.06279958 6 10 C6.33333333 7 6.33333333 7 6 4 C4.04783565 2.04783565 2.46800047 1.15173355 0 0 Z " fill="#DEE9EB" transform="translate(155,294)"/>
<path d="M0 0 C2.31 1.98 4.62 3.96 7 6 C5.21398196 9.57203608 3.93313183 11.43350965 1 14 C0.34 14 -0.32 14 -1 14 C0.33333333 11.33333333 1.66666667 8.66666667 3 6 C2.505 5.566875 2.01 5.13375 1.5 4.6875 C0 3 0 3 0 0 Z " fill="#1C2C3B" transform="translate(238,151)"/>
<path d="M0 0 C0.98248524 4.0527516 1.08159574 7.83861737 1 12 C0.34 12 -0.32 12 -1 12 C-1.33 13.32 -1.66 14.64 -2 16 C-2.33 11.05 -2.66 6.1 -3 1 C-1 0 -1 0 0 0 Z " fill="#D1E3E5" transform="translate(454,205)"/>
<path d="M0 0 C3.88868841 0.41664519 6.06163089 2.57584548 9 5 C10.31138904 5.70885894 11.63777017 6.39456452 13 7 C12.67 7.99 12.34 8.98 12 10 C7.43805907 7.23793154 3.08733141 4.44868587 -1 1 C-0.67 0.67 -0.34 0.34 0 0 Z " fill="#112835" transform="translate(208,177)"/>
<path d="M0 0 C0.33 0 0.66 0 1 0 C1.22126178 2.45779976 1.42750395 4.91527648 1.625 7.375 C1.68945312 8.07367188 1.75390625 8.77234375 1.8203125 9.4921875 C1.96119739 11.32369111 1.98761659 13.16312748 2 15 C1.34 15.66 0.68 16.32 0 17 C-0.66 12.05 -1.32 7.1 -2 2 C-1.34 2 -0.68 2 0 2 C0 1.34 0 0.68 0 0 Z " fill="#E3EFF3" transform="translate(87,251)"/>
<path d="M0 0 C0.33 0 0.66 0 1 0 C2.11388158 7.30062141 2.17441612 12.27023784 -1 19 C-1.99 19 -2.98 19 -4 19 C-3.69255859 18.19949219 -3.69255859 18.19949219 -3.37890625 17.3828125 C-1.282843 11.58604428 -0.37189499 6.14267934 0 0 Z " fill="#223C49" transform="translate(305,155)"/>
<path d="M0 0 C2.31 0 4.62 0 7 0 C7 0.66 7 1.32 7 2 C5.35 2 3.7 2 2 2 C2 2.66 2 3.32 2 4 C3.65 4 5.3 4 7 4 C7 4.66 7 5.32 7 6 C4.69 6 2.38 6 0 6 C0 4.02 0 2.04 0 0 Z " fill="#CADBDB" transform="translate(336,302)"/>
<path d="M0 0 C2.31 0 4.62 0 7 0 C7 0.66 7 1.32 7 2 C5.35 2 3.7 2 2 2 C2 2.66 2 3.32 2 4 C3.65 4 5.3 4 7 4 C7 4.66 7 5.32 7 6 C4.69 6 2.38 6 0 6 C0 4.02 0 2.04 0 0 Z " fill="#CADBDB" transform="translate(227,302)"/>
<path d="M0 0 C0.33 0 0.66 0 1 0 C0.88512252 1.58409994 0.75765492 3.16728963 0.625 4.75 C0.55539062 5.63171875 0.48578125 6.5134375 0.4140625 7.421875 C0.00149945 9.99066382 -0.71160957 11.75841015 -2 14 C-2.66 14 -3.32 14 -4 14 C-3.52525225 11.85318469 -3.04508251 9.70756772 -2.5625 7.5625 C-2.29566406 6.36753906 -2.02882813 5.17257812 -1.75390625 3.94140625 C-1 1 -1 1 0 0 Z " fill="#E8F3F7" transform="translate(450,267)"/>
<path d="M0 0 C-1.69179328 2.04219706 -2.63727666 2.91793306 -5.26171875 3.51171875 C-6.06222656 3.56972656 -6.86273438 3.62773438 -7.6875 3.6875 C-8.49574219 3.75324219 -9.30398437 3.81898437 -10.13671875 3.88671875 C-11.05904297 3.94279297 -11.05904297 3.94279297 -12 4 C-11.67 3.01 -11.34 2.02 -11 1 C-9.2578125 0.234375 -9.2578125 0.234375 -7.125 -0.25 C-6.07699219 -0.50523438 -6.07699219 -0.50523438 -5.0078125 -0.765625 C-3 -1 -3 -1 0 0 Z " fill="#D9E8EC" transform="translate(229,50)"/>
<path d="M0 0 C0.99 0.66 1.98 1.32 3 2 C3.54896129 5.60745994 3.45245486 7.33871982 1.375 10.375 C-1.6037896 12.4131192 -3.46322336 12.32152515 -7 12 C-6.401875 11.731875 -5.80375 11.46375 -5.1875 11.1875 C-2.85873253 9.92331195 -1.50756717 9.1859724 0 7 C0.2503577 3.37464024 0.2503577 3.37464024 0 0 Z " fill="#DDE9EA" transform="translate(303,296)"/>
<path d="M0 0 C0.66 0 1.32 0 2 0 C3.00496852 3.01490557 3.10335303 5.04181692 3.0625 8.1875 C3.05347656 9.08855469 3.04445313 9.98960937 3.03515625 10.91796875 C3.02355469 11.60503906 3.01195312 12.29210937 3 13 C1 12 1 12 0.375 10.4375 C-0.16368951 6.93601819 -0.05903219 3.54193167 0 0 Z " fill="#E4F0F4" transform="translate(450,194)"/>
<path d="M0 0 C3.63 0 7.26 0 11 0 C11 0.99 11 1.98 11 3 C5.04296875 3.29296875 5.04296875 3.29296875 3 3 C2.01 2.01 1.02 1.02 0 0 Z " fill="#D2E3E6" transform="translate(247,413)"/>
<path d="M0 0 C2.475 0.495 2.475 0.495 5 1 C4.67 2.65 4.34 4.3 4 6 C2.68 6 1.36 6 0 6 C0 4.02 0 2.04 0 0 Z " fill="#075245" transform="translate(217,296)"/>
<path d="M0 0 C0.66 0 1.32 0 2 0 C2 3.63 2 7.26 2 11 C1.01 11.33 0.02 11.66 -1 12 C-0.67 8.04 -0.34 4.08 0 0 Z " fill="#2C3B49" transform="translate(184,143)"/>
<path d="M0 0 C4.25177923 0.47241991 6.29969203 2.84964071 9 6 C9 6.99 9 7.98 9 9 C4.77728219 6.46636932 2.21689838 4.43379675 0 0 Z " fill="#122A36" transform="translate(160,175)"/>
<path d="M0 0 C1.94268841 2.91403262 3.46395304 5.85808576 5 9 C4.01 9.66 3.02 10.32 2 11 C-1.07692308 5.70769231 -1.07692308 5.70769231 -0.6875 2.125 C-0.460625 1.42375 -0.23375 0.7225 0 0 Z " fill="#D4E5E8" transform="translate(103,307)"/>
<path d="M0 0 C0.99 0.33 1.98 0.66 3 1 C2.2884375 2.0828125 2.2884375 2.0828125 1.5625 3.1875 C0.05847097 5.89475226 -0.56599182 7.96194275 -1 11 C-1.99 10.67 -2.98 10.34 -4 10 C-3.52449439 8.51965236 -3.04448784 7.04074979 -2.5625 5.5625 C-2.29566406 4.73878906 -2.02882813 3.91507813 -1.75390625 3.06640625 C-1 1 -1 1 0 0 Z " fill="#273745" transform="translate(296,141)"/>
<path d="M0 0 C3.3 0.33 6.6 0.66 10 1 C10 1.66 10 2.32 10 3 C7.03 3 4.06 3 1 3 C0.67 2.01 0.34 1.02 0 0 Z " fill="#E1EEF2" transform="translate(230,410)"/>
<path d="M0 0 C0.99 0.33 1.98 0.66 3 1 C3.33 3.97 3.66 6.94 4 10 C3.34 10 2.68 10 2 10 C0.68373308 6.38026598 0 3.90432869 0 0 Z " fill="#E6F1F5" transform="translate(91,279)"/>
<path d="M0 0 C0.79921875 0.01804688 1.5984375 0.03609375 2.421875 0.0546875 C3.02515625 0.07789063 3.6284375 0.10109375 4.25 0.125 C3.92 1.115 3.59 2.105 3.25 3.125 C-0.71 2.795 -4.67 2.465 -8.75 2.125 C-5.00631258 0.25315629 -3.9099209 -0.11499767 0 0 Z " fill="#C6DADC" transform="translate(299.75,46.875)"/>
<path d="M0 0 C0.66 0.33 1.32 0.66 2 1 C0.54744301 4.82946843 -1.42895561 6.12050295 -5 8 C-5.33 7.34 -5.66 6.68 -6 6 C-4 4 -2 2 0 0 Z " fill="#D6E6E9" transform="translate(378,377)"/>
<path d="M0 0 C0.33 0.99 0.66 1.98 1 3 C-2.66666667 3 -6.33333333 3 -10 3 C-7.29536552 -0.8183075 -4.37912428 -0.24787496 0 0 Z " fill="#CBDDDD" transform="translate(289,294)"/>
<path d="M0 0 C4.95 0.33 9.9 0.66 15 1 C15 1.33 15 1.66 15 2 C10.38 2.33 5.76 2.66 1 3 C0.67 2.01 0.34 1.02 0 0 Z " fill="#1D3440" transform="translate(221,185)"/>
<path d="M0 0 C3 1 3 1 3.94921875 2.84765625 C4.19285156 3.57855469 4.43648438 4.30945313 4.6875 5.0625 C4.93886719 5.79597656 5.19023437 6.52945313 5.44921875 7.28515625 C5.63097656 7.85105469 5.81273437 8.41695312 6 9 C5.01 9 4.02 9 3 9 C2.01 6.03 1.02 3.06 0 0 Z " fill="#20303F" transform="translate(292,164)"/>
<path d="M0 0 C1.98 0 3.96 0 6 0 C6.66 1.65 7.32 3.3 8 5 C7.01 4.67 6.02 4.34 5 4 C4.67 3.34 4.34 2.68 4 2 C3.01 1.67 2.02 1.34 1 1 C0.67 2.32 0.34 3.64 0 5 C0 3.35 0 1.7 0 0 Z " fill="#B4CBCA" transform="translate(216,303)"/>
<path d="M0 0 C0.33 0 0.66 0 1 0 C1 4.62 1 9.24 1 14 C0.01 13.34 -0.98 12.68 -2 12 C-2 11.34 -2 10.68 -2 10 C-1.34 10 -0.68 10 0 10 C0 6.7 0 3.4 0 0 Z " fill="#F0F6F9" transform="translate(318,294)"/>
<path d="M0 0 C3.375 0.3125 3.375 0.3125 7 1 C9 4 9 4 8.625 6.1875 C8.41875 6.785625 8.2125 7.38375 8 8 C7.4225 7.05125 6.845 6.1025 6.25 5.125 C4.17183449 2.23865902 3.24531925 1.15904259 0 0 Z " fill="#E5EEF0" transform="translate(155,294)"/>
<path d="M0 0 C1.670625 0.061875 1.670625 0.061875 3.375 0.125 C3.705 1.115 4.035 2.105 4.375 3.125 C1.075 2.795 -2.225 2.465 -5.625 2.125 C-3.625 0.125 -3.625 0.125 0 0 Z " fill="#CBDCDD" transform="translate(143.625,293.875)"/>
<path d="M0 0 C0.33 0 0.66 0 1 0 C1.33 2.97 1.66 5.94 2 9 C1.34 9 0.68 9 0 9 C-0.33 9.66 -0.66 10.32 -1 11 C-1.14285714 3.57142857 -1.14285714 3.57142857 0 0 Z " fill="#C4D9DA" transform="translate(89,262)"/>
<path d="M0 0 C3 3.75 3 3.75 3 6 C1.35 6 -0.3 6 -2 6 C-1.34 4.02 -0.68 2.04 0 0 Z " fill="#316F65" transform="translate(241,298)"/>
<path d="M0 0 C0.99 0.99 1.98 1.98 3 3 C2.67 3.99 2.34 4.98 2 6 C0.68 5.67 -0.64 5.34 -2 5 C-1.34 3.35 -0.68 1.7 0 0 Z " fill="#C7D9D9" transform="translate(241,294)"/>
<path d="M0 0 C0.66 0 1.32 0 2 0 C1.67 2.64 1.34 5.28 1 8 C0.01 7.34 -0.98 6.68 -2 6 C-1.125 1.125 -1.125 1.125 0 0 Z " fill="#C8DCDE" transform="translate(451,262)"/>
<path d="M0 0 C0.33 0 0.66 0 1 0 C1 2.31 1 4.62 1 7 C0.01 7.33 -0.98 7.66 -2 8 C-1.125 1.125 -1.125 1.125 0 0 Z " fill="#D9E8EB" transform="translate(452,255)"/>
<path d="M0 0 C0.33 2.64 0.66 5.28 1 8 C-0.32 7.34 -1.64 6.68 -3 6 C-3 4.35 -3 2.7 -3 1 C-1 0 -1 0 0 0 Z " fill="#2A3947" transform="translate(175,160)"/>
<path d="M0 0 C0.99 0 1.98 0 3 0 C2.34 1.98 1.68 3.96 1 6 C0.01 5.67 -0.98 5.34 -2 5 C-1.34 3.35 -0.68 1.7 0 0 Z " fill="#CADDDF" transform="translate(103,147)"/>
<path d="M0 0 C-0.33 0.99 -0.66 1.98 -1 3 C-4.0625 4.1875 -4.0625 4.1875 -7 5 C-5.22678182 1.07358831 -4.52021524 0 0 0 Z " fill="#E4F0F4" transform="translate(192,62)"/>
</svg>
